/* XPM */
static char *_668f9c78420439fd0912d3cea3e402eKNqLql1OpJquKB6T[] = {
/* columns rows colors chars-per-pixel */
"35 60 229 2 ",
"   c None",
".  c #AB1E64",
"X  c #B91D67",
"o  c #BB2A6A",
"O  c #B9256C",
"+  c #BB2776",
"@  c #BA2972",
"#  c #BD2D7B",
"$  c #B62473",
"%  c #BE357F",
"&  c #BD3E7E",
"*  c #FD2953",
"=  c #FE2E5B",
"-  c #FD335D",
";  c #FC264C",
":  c #D11A73",
">  c #ED1C74",
",  c #F71D75",
"<  c #CA286C",
"1  c #C1286A",
"2  c #D5336F",
"3  c #C62D78",
"4  c #C3327C",
"5  c #DE3A71",
"6  c #D63979",
"7  c #D12776",
"8  c #FE2E6D",
"9  c #E8376D",
"0  c #FE3664",
"q  c #FE3B6C",
"w  c #FC3A66",
"e  c #E22E7C",
"r  c #E23D74",
"t  c #FE3E72",
"y  c #F63F78",
"u  c #FD426C",
"i  c #FA486F",
"p  c #E74176",
"a  c #EA4275",
"s  c #E3417B",
"d  c #EB4679",
"f  c #F34373",
"g  c #FD4373",
"h  c #FC4973",
"j  c #FF457C",
"k  c #F44C79",
"l  c #FC4C7C",
"z  c #F44B77",
"x  c #EA597F",
"c  c #FC537D",
"v  c #F9597B",
"b  c #FD6D79",
"n  c #FC7F70",
"m  c #FE846D",
"M  c #FA8F6E",
"N  c #FE8473",
"B  c #FD857B",
"V  c #FC8B76",
"C  c #FB977A",
"Z  c #C33682",
"A  c #C63E8A",
"S  c #CB3D8A",
"D  c #C83983",
"F  c #D13C86",
"G  c #D63F95",
"H  c #E02B84",
"J  c #F0288D",
"K  c #E3358E",
"L  c #EC3995",
"P  c #F13FA0",
"I  c #CA428D",
"U  c #CA438A",
"Y  c #DD4382",
"T  c #DD4589",
"R  c #D74489",
"E  c #C2518F",
"W  c #CA4293",
"Q  c #CB449A",
"!  c #C94495",
"~  c #D4449C",
"^  c #D94998",
"/  c #D55998",
"(  c #E14381",
")  c #E0478B",
"_  c #FF4783",
"`  c #F34C84",
"'  c #FE4B84",
"]  c #FD4C8B",
"[  c #EF5A8B",
"{  c #F45483",
"}  c #FC5385",
"|  c #FC568C",
" . c #F85B8B",
".. c #E54998",
"X. c #F34D96",
"o. c #E85595",
"O. c #FE5494",
"+. c #FC5B93",
"@. c #FD5598",
"#. c #FE5A9C",
"$. c #F75A9C",
"%. c #F66289",
"&. c #FE7685",
"*. c #FF7C8E",
"=. c #FA7A84",
"-. c #EA6398",
";. c #FD639B",
":. c #F96999",
">. c #EE719C",
",. c #FD7D95",
"<. c #FD7D9C",
"1. c #F77A9E",
"2. c #CE4EA0",
"3. c #DF5FB4",
"4. c #EC4AA6",
"5. c #EA4AAC",
"6. c #F14EA0",
"7. c #E456AA",
"8. c #FE5EA5",
"9. c #F95AA5",
"0. c #F759B1",
"q. c #DA7BA8",
"w. c #DC61B2",
"e. c #DB65A6",
"r. c #F564A3",
"t. c #FD65A5",
"y. c #FC6BA3",
"u. c #FE63AC",
"i. c #FD69AB",
"p. c #F662AC",
"a. c #EC70A8",
"s. c #FD7CA3",
"d. c #FB73AC",
"f. c #FE7DAB",
"g. c #FC70A1",
"h. c #E569B9",
"j. c #FE66B2",
"k. c #FD6AB4",
"l. c #FE6CBB",
"z. c #F566B7",
"x. c #EB70BC",
"c. c #FE7EB2",
"v. c #FF74BE",
"b. c #FD70B7",
"n. c #FE6DC2",
"m. c #EE78C0",
"M. c #F475C4",
"N. c #FE73C6",
"B. c #FE7BC3",
"V. c #FC76CF",
"C. c #F87BCA",
"Z. c #EF78D2",
"A. c #FE7BD4",
"S. c #FE76D0",
"D. c #FE838D",
"F. c #FD8B8D",
"G. c #FE8584",
"H. c #FE9B8B",
"J. c #FB9584",
"K. c #FD849B",
"L. c #FC8D9A",
"P. c #FD9495",
"I. c #FF9D92",
"U. c #FAA290",
"Y. c #FD82A4",
"T. c #F685AB",
"R. c #FA8AAA",
"E. c #FE96A4",
"W. c #FF9CA4",
"Q. c #FC91AC",
"!. c #FF9BAE",
"~. c #FC83B3",
"^. c #FB8DB4",
"/. c #F687BB",
"(. c #EE91B4",
"). c #FC97B3",
"_. c #FB9CBB",
"`. c #F896B8",
"'. c #E184B8",
"]. c #FFA4B7",
"[. c #FBADBD",
"{. c #FAA5BA",
"}. c #FAB3AD",
"|. c #FB89C4",
" X c #FC86CA",
".X c #FD8ACC",
"XX c #F685C5",
"oX c #ED93CE",
"OX c #FA9BC1",
"+X c #FB92CC",
"@X c #F799C6",
"#X c #EB85D7",
"$X c #FC85D5",
"%X c #FF82DF",
"&X c #F68CD9",
"*X c #FD95D3",
"=X c #FD9AD4",
"-X c #F19ED3",
";X c #EC89C2",
":X c #FCA4C3",
">X c #FAABC1",
",X c #F7A5C5",
"<X c #FDB6CB",
"1X c #FAB7C7",
"2X c #EDA3D6",
"3X c #FAA6D7",
"4X c #EFBED3",
"5X c #FBB3D2",
"6X c #FABDDD",
"7X c #F7B8D8",
"8X c #FF89E5",
"9X c #FF86E9",
"0X c #FF94EB",
"qX c #FF95F2",
"wX c #FF9AF2",
"eX c #FBBAE4",
"rX c #FAC3C2",
"tX c #FBC6C8",
"yX c #FBCCD5",
"uX c #F9C4D7",
"iX c #FCD7D9",
"pX c #FBDDC9",
"aX c #FBDAE9",
"sX c #EFEFF5",
"dX c #F4EDF5",
"fX c #FDEDF3",
"gX c #FDF5F8",
"hX c #FDF9FB",
"jX c #FAF0F2",
/* pixels */
"                                                                      ",
"                                                                      ",
"                                                                      ",
"                                                                      ",
"                                                                      ",
"                                                                      ",
"                                                                      ",
"                                                                      ",
"                                                                      ",
"                                                                      ",
"                                                                      ",
"                                                                      ",
"                                                                      ",
"                                                                      ",
"                                                                      ",
"                                                                      ",
"                                                                      ",
"                                                                      ",
"                                                                      ",
"                                                                      ",
"                                                                      ",
"                                                                      ",
"                                                                      ",
"                                                                      ",
"                                                                      ",
"                                                                      ",
"                                                        dX            ",
"                                                    4X).gX            ",
"                                                  (.v %.<X>.          ",
"                                                ;X,.v K.).u           ",
"                                              XX,.E.,.{.Y.u           ",
"                                            XXs.,.[.].<Xs.h [         ",
"                                          2X^.Y.s.>X[.[.g.} +.        ",
"                                        2XOX_.:XY._.yXuXy.O.#.        ",
"                                      2X`.).:X5X^.Y.K.>Xy.@.8.r.      ",
"                                      _.Q._.:X<X_.K.D.1X;.O.#.r.      ",
"                                    :XL.E.!.].[.yXD.G.tX| _ O.#.      ",
"          uXuXT./.                jXF.J.P.W.W.W.iXB V iXl t _ _ -.    ",
"          =.Q.y.| t.C.          sXgXrXP.H.H.I.H.U.m C fXu 0 w t c     ",
"        ,Xb &.~.#.#.8.k.m.        K.c 1.`.>X}.pXH.M }.hXw * = - g     ",
"        Q.&.*.~.u.k.j.8.#.r.      z * = 0 g %.Q.uXfXhXgX1.= * * -     ",
"        Y.<.<.K.+XB.l.u.@._ ' [   f * - w g t t q k ,XhXuX`.h * ; x   ",
"      &Xf.s.Y.Y.5X.Xl.u.@._ q 0 { f = q j _ _ _ j g T.fXE % / :.i T.  ",
"      $Xf.c.~.Y.yX6Xk.8.O._ t - c l 0 _ @.8.8.#.O.] OX7X# + $ 4 -.(.  ",
"      |.f.f.Y.K.yXaXd.] ] |  .{ ` c t O.l.V.S.N.u.#.5Xq.4 # # + 4 q.  ",
"      ~.<.<.K.F.rXOX6X,X:X>.6 1 < ' g 8.A.9X9X8XN.b.7X/ Z Z Z # U     ",
"    &X,.*.D.G.B rX~.~.7Xq.@ O O 7 ` j j.8XqXqX9XA.B.3XI S A A Z ^     ",
"    @X=.B N N V 1Xd.d.,X& @ @ 3 H X.] l.8XwXqX8XV. X;XU I W W ! ~     ",
"    {.n m N P.yXaX7X@X,X/ % Z K K X.| k.&XwXqX%XN. Xe.I I ! Q ~       ",
"    rXJ.E.^.:.{ $.@.@XaX'.I ~ P L 6.+.;.$X0X8XA.k.|.I S W Q Q ~       ",
"    hX>Xh w t t.u.t.i.6X-X2.5.4.....;.| B.$XA.n.8./.D S W Q Q         ",
"    dX,.w g | +XB.B.B..XeXw.7.4.....;.} t.v.l.u.#.a.D S W ! h.        ",
"      5X' ] d.3X*X*X.X XeXx.7.....T :.c } t.u.#.+.o.D S W W #X        ",
"      oXd.@.|.=X=X*X.X=X|./.^ ^ ) Y %.h l } #.O.+.T F R S 3.          ",
"        M.p..X.X.X X X3Xi.c.o.T ( s  .h h h ' ] | Y Y R F #X          ",
"          V.M.B.N.v.*X+X#.:.[ ( s p { h u u g g c s ( 6 7.            ",
"            A.z.j.u.3X+.] }  .d a a k h u u u u z s r 2 x.            ",
"            #XV.6.8.i.j q j } d p r r 5 9 9 9 f a 5 2 e               ",
"              Z.0.X.y 8 8 9 5 2 1 o       O o 1 < 1 < :               ",
"                5.J , , > X .                                         "
};
