/* XPM */
static char *b5aa7624c2c6454686a064775b6bbe0b[] = {
/* columns rows colors chars-per-pixel */
"60 60 154 2 ",
"   c None",
".  c #5F4E40",
"X  c #604F41",
"o  c #625143",
"O  c #6C5542",
"+  c #6F5944",
"@  c #715742",
"#  c #745942",
"$  c #7B5B42",
"%  c #7C6044",
"&  c #99753E",
"*  c #A37C3F",
"=  c #815E42",
"-  c #856243",
";  c #8B6544",
":  c #876943",
">  c #8D6A44",
",  c #8D6748",
"<  c #926A46",
"1  c #986D47",
"2  c #946C48",
"3  c #9A6E48",
"4  c #947143",
"5  c #997442",
"6  c #9E7942",
"7  c #957348",
"8  c #9E7149",
"9  c #9D7C4C",
"0  c #A37D41",
"q  c #A3754C",
"w  c #A67A4E",
"e  c #A9794F",
"r  c #A47750",
"t  c #A77850",
"y  c #AC7C51",
"u  c #B17F53",
"i  c #847366",
"p  c #907D6F",
"a  c #AB833F",
"s  c #A78143",
"d  c #AA8443",
"f  c #AE8945",
"g  c #A5834B",
"h  c #AA8749",
"j  c #AD8A4A",
"k  c #B38D44",
"l  c #B18E49",
"z  c #B69046",
"x  c #B99447",
"c  c #B5914A",
"v  c #BA964A",
"b  c #BD9A4E",
"n  c #AA8A52",
"m  c #B58256",
"M  c #B88457",
"N  c #B28158",
"B  c #BB8659",
"V  c #BD885A",
"C  c #BE895A",
"Z  c #BE895B",
"A  c #BE895A",
"S  c #B39353",
"D  c #B69451",
"F  c #BA9851",
"G  c #B89A57",
"H  c #BF9F55",
"J  c #BB9B54",
"K  c #BB9D5A",
"L  c #9B816D",
"P  c #AE9066",
"I  c #B39364",
"U  c #A58B70",
"Y  c #A08C78",
"T  c #AA8F79",
"R  c #C19E4E",
"E  c #C29F4E",
"W  c #C29E4E",
"Q  c #C08A5B",
"!  c #C18B5C",
"~  c #C28B5C",
"^  c #C28C5C",
"/  c #C28C5D",
"(  c #C38D5E",
")  c #C48D5D",
"_  c #C48D5E",
"`  c #C58E5E",
"'  c #C78F5F",
"]  c #C68E5E",
"[  c #C19F51",
"{  c #C7905F",
"}  c #C3A04E",
"|  c #C7A450",
" . c #C5A556",
".. c #C5A352",
"X. c #C9A753",
"o. c #C8A754",
"O. c #C9A752",
"+. c #CAA853",
"@. c #CAA954",
"#. c #CBAA55",
"$. c #CFAE57",
"%. c #CEAD56",
"&. c #C4A65B",
"*. c #C7A95F",
"=. c #CAAA58",
"-. c #CDAF5D",
";. c #CCAD5A",
":. c #D0AF57",
">. c #D0AF58",
",. c #CFB05C",
"<. c #D1B15A",
"1. c #D1B25A",
"2. c #D3B45D",
"3. c #D5B75E",
"4. c #D1B159",
"5. c #C89060",
"6. c #C99160",
"7. c #CA9161",
"8. c #CA9261",
"9. c #CB9261",
"0. c #CB9362",
"q. c #CC9362",
"w. c #CD9462",
"e. c #CE9563",
"r. c #CF9563",
"t. c #CE9463",
"y. c #CF9664",
"u. c #D09664",
"i. c #D19664",
"p. c #D19764",
"a. c #D19765",
"s. c #D29765",
"d. c #C5A762",
"f. c #CEB46F",
"g. c #D3B560",
"h. c #D5B861",
"j. c #D7BA62",
"k. c #D6B961",
"l. c #D7BA62",
"z. c #D8BC64",
"x. c #DAC069",
"c. c #A79180",
"v. c #A8938B",
"b. c #A7988B",
"n. c #B09B88",
"m. c #AC9991",
"M. c #B3A197",
"N. c #B9A592",
"B. c #B3A298",
"V. c #B9A8A0",
"C. c #C2AF9E",
"Z. c #C5B19F",
"A. c #C5B3A6",
"S. c #CCBBB0",
/* pixels */
"                                                                                                                        ",
"                                                                                                                        ",
"                                                                                                                        ",
"                                                                                                                        ",
"                                                                                                                        ",
"                                                                                                                        ",
"                                                u.u.u.u.u.u.u.u.u.u.u.m 8 8                                             ",
"                                        u.u.u.u.u.u.u.u.u.u.u.u.u.u.u.w.V V V y q                                       ",
"                                  u.u.u.u.u.u.u.w.w.w.y.w.u.u.u.u.5.B 5.u.u.u.w.) m m m                                 ",
"                            u.u.u.u.u.u.w.) / / m m m { V u.u.u.u.5.) B / ) q.u.w.) q.u.Q q 8                           ",
"                          u.u.u.u.5.V m m y V V w.u.u.u.5.5.5.q.q.q.! 5.B q e m ) B 5.V V ! m e q                       ",
"                        u.u.u.w.V m / 5.5.w.u./ V V V V m m y q q q y V / Q y 2 2 t V ) ) M y m m y                     ",
"                    u.u.u.u.u.w.) u.5.) ! y y q 3 2 2 3 y y q 8 8 8 8 8 8 y y m y 2 ; e y ) ) ! y q 3                   ",
"                    u.u.u.u.w.5.M m e q 8 2 ; 3 3 < < < 3 3 3 3 3 3 8 8 < ; ; 3 q q - - ; > t M ) y ; 1                 ",
"                    u.u.w.! u q 8 8 2 < ; < 3 8 3 < < < > ; 5 9 5 > ; < 2 3 3 ; ; < 2 2 - ; - = y 5.3 =                 ",
"                    u.5.y 8 8 8 2 ; < 2 2 2 < ; 7 G G 0 0 5 E x.#.6 5 S 5 - - 2 1 < < q y 2 8 8 m e 3 =                 ",
"                    ! q 8 8 2 ; < 3 < ; 5 n s < f j.j.k 0 5 E j.#.6 6 X.d $ o O @ $ ; ; 2 e M m q 2 - $                 ",
"                    8 8 8 ; - < < > > 4 -.| d < k j.j.k 0 5 E j.+.6 6 | d $ o o o o o # $ ; 2 < - $ $ ,                 ",
"                    8 < < - ; ; > c g s $.E a 5 k j.j.k 0 5 b #.E h 6 | d $ o o o o o o o $ q m y m N )                 ",
"                    / ) B 5.B 2 d x 5 s $.E a 5 k 2.2.k 0 7 F  .=.0 6 | d $ o o o o o o o # 8 m q V V e                 ",
"                    q e > y q ; H a 5 s $.E a 5 k 4.4.k 0 6 o.3.X.6 6 | d $ o o o o o o o O < 3 - 8 8 8                 ",
"                    8 3 - 8 8 ; ..a 5 s $.E a 5 k 2.2.k 0 5 E 4.X.6 6 | h % o o o o o o o O < 8 ; 8 8 8                 ",
"                    8 3 - 8 8 ; [ a 5 s $.E a 5 k 4.>.k 0 5 E 4.X.6 6 $.&.% o o o o o o o O < 8 3 8 8 8                 ",
"                    2 3 - 8 8 ; [ a 5 s $.E a 5 k 4.4.k 0 5 E 4.| 6 U d.g $ o o o o o o o O < 8 ; 8 8 8                 ",
"                    < 8 - 8 8 ; ..a 5 s $.E a 5 k 4.$.k 0 5 E 4.*.c.T w * % o o o o o o o O < 3 - 8 8 8                 ",
"                    < 8 - 8 8 < l a 5 s $.E a 5 k 4.>.k 0 5 ..j.f.V.Z.N.I $ o o o o o o o O < 8 - 8 8 8                 ",
"                    < 3 - q u q ; a 5 s $.E a 5 k 4.4.k d n ,.$.j T S.m.A.Y X o o o o o o O < 8 - 8 8 ;                 ",
"                    < 8 < e y 3 ; a 5 s $.E a 4 k 4.4. .g.;.f 6 0 9 B.i v.b.. o o o o o o O < 3 - 8 8 -                 ",
"                    < 8 ; 8 8 3 ; a 5 s $.E a < k h.z.=.f 0 0 l E & n.M.A.p X o o o o o o - 3 < = 3 8 -                 ",
"                    2 3 - 8 8 3 ; a 5 s $.E d G ;. .c 6 - - b 4.+.6 L C.P % o o o o o o o ; e y r 2 8 -                 ",
"                    8 3 - 8 8 3 ; a 5 s 4.$.=.#.b 0 5 5 > : } 4.X.6 4 d 0 % o o o o o o o ; 8 q q 8 8 -                 ",
"                    8 3 ; 8 8 3 ; a 5 j g.$.b 4 5 k X.k 0 5 E 4.X.6 6 R d % o o o o o o o ; 8 3 8 8 8 -                 ",
"                    8 8 8 8 8 3 ; f D ;.c 6 < @ > v 4.k 0 5 E 4.X.6 6 | d $ o o o o o o o ; 8 - 3 8 8 ;                 ",
"                    8 8 8 8 8 3 7 g.=.d 0 s 7 > * v 4.k 0 5 E 4.X.6 6 | d $ o o o o o o o ; 3 ; 8 8 8                   ",
"                    3 8 8 8 8 3 : k 6 6 | E a 5 a v 4.k 0 5 E 4.X.6 6 E d $ o o o o o o o ; ; 2 8 3 3                   ",
"                    $ 2 8 8 8 3 - > # 6 :.E a 5 a v 4.k 0 5 E 4.X.6 6 d 0 % o o o o o o o ; 2 3 8 < <                   ",
"                    $ 2 8 8 8 3 ; 6 ; s $.E a 5 a v 4.k 0 5 E 4.X.6 6 a 0 % o o o o o o o ; 3 3 8 > >                   ",
"                    $ 2 8 8 8 3 = 5 5 s $.E a 5 a v 4.k 0 5 E 4.X.6 0 ..s $ o o o o o o o ; ; 2 8 < >                   ",
"                    $ 2 8 8 2 - - < 5 s $.E 0 < a v 4.k 0 5 E 4.X.j &...4 $ o o o o o o O - 2 8 8 < >                   ",
"                    $ 2 8 2 3 3 2 > 5 s $.b 5 > a v 4.k 0 5 E 4.2.,.v 6 6 % o o o o o o O $ < 8 8 < >                   ",
"                    $ 2 8 e m q 2 < 5 0 X.l 0 5 a v 4.k * 5 #.z.$.h < 0 6 O o o o o o o O $ < 8 8 < >                   ",
"                      8 8 q q ; < & 5 5 ....a 5 a v 4.z D K =.[ 0 % > a : o o o o o o o O $ < 8 8 < >                   ",
"                      8 8 8 8 - < & 5 s 4.E a 5 d E 2.,.$...0 5 s 5 5 a - o o o o o o o O $ < 8 8 ; ;                   ",
"                      8 8 8 8 - < < 5 s $.E a 5 c h.h.H 6 4 h E | 6 6 a - o o o o o o o o ; 8 8 8 2 2                   ",
"                      8 8 8 8 - < < 5 s $.E c ;.2.v s 7 - - E 4.X.6 6 a - o o o o o o o o ; 8 8 8 8 ;                   ",
"                      3 8 8 8 - < < 5 s 4.g.$.v f 6 s 0 5 < E 4.X.6 6 5 + o o o o o o o O < 8 8 8 8 ;                   ",
"                      = 3 8 8 - < < 5 F ,.E h - 4 ..$.k 0 5 E 4.X.6 5 % o o o o o o o o - m e 8 8 8 ;                   ",
"                      $ 3 3 3 ; ; 7 &.=.d 5 > # 9 >.$.k 0 5 k X.k 5 @ o o o o o o o o o = q q 8 8 3 ;                   ",
"                      = 8 < < 8 $ 9 [ 0 d c 6 < k 4.4.k 0 5 a z 6 O o o o o o o o o o o = 8 8 8 2 ; ;                   ",
"                      = 8 > < 8 - < % j $.E a 5 d | 4.k 5 4 : : O o o o o o o o o o o o = 8 8 8 3 ; -                   ",
"                      = 3 < ; 3 - < @ J 4.E a 5 a z $.k - O o o o o o o o o o o o o o o = 8 8 3 8 <                     ",
"                      = 3 8 ; < - < - ..4.E a 5 d a f > o o o o o o o o o o o o o o o o = 8 8 - 8 <                     ",
"                      $ < 8 ; 2 ; ; - v 4.E 0 - - - O O O @ $ $ $ $ $ $ # O o o o o o o = 8 8 - 3 <                     ",
"                        - 8 2 3 2 $ - s X.b < O o O # $ $ $ $ $ $ O O O @ $ $ # O o o o = 8 8 - 2 =                     ",
"                        - 8 ; 2 ; $ $ 0 d > O o @ $ $ $ $ # @ @ O @ $ $ $ # @ @ @ O O o = 8 8 ; < $                     ",
"                        - 3 - < $ $ O 4 - o O @ # # $ $ $ $ # # # $ $ $ $ $ @ O O O o o - < < 3 = $                     ",
"                        = = $ < $ $ O + o O # # # @ $ $ $ $ $ $ $ $ $ $ $ $ $ # @ o o o $ = < ; $ #                     ",
"                        @ $ O # $ O o O O O @ @ @ @ @ @ @ O o o o o O @ @ @ @ @ @ O O o O $ ; $ O O                     ",
"                        o O o o O o o o o o o o o o o o o o o o o o o o o o o o o o o o o @ = O o o                     ",
"                                                                                                                        "
};
