/* XPM */
static char *e322887a723f45dec927d710ee1a3a99k4LaMIMkZ0zwBMZz[] = {
/* columns rows colors chars-per-pixel */
"60 60 226 2 ",
"   c None",
".  c #010100",
"X  c #0D0903",
"o  c #130B05",
"O  c #1A1305",
"+  c #281C09",
"@  c #2D1706",
"#  c #3B240C",
"$  c #36270E",
"%  c #3E2B15",
"&  c #442A0E",
"*  c #4C2C0D",
"=  c #44270D",
"-  c #522F0D",
";  c #54310E",
":  c #432D14",
">  c #4A2E12",
",  c #452F1C",
"<  c #4B341C",
"1  c #493515",
"2  c #533313",
"3  c #5D3916",
"4  c #543A1E",
"5  c #5B3C1A",
"6  c #573814",
"7  c #4F300F",
"8  c #643C15",
"9  c #623D19",
"0  c #6F3E0F",
"q  c #4B3723",
"w  c #4C3823",
"e  c #543D23",
"r  c #563E26",
"t  c #4C3F33",
"y  c #3E7710",
"u  c #396610",
"i  c #5B4719",
"p  c #565B1A",
"a  c #6C441B",
"s  c #6A441B",
"d  c #75491B",
"f  c #7A4E1E",
"g  c #774517",
"h  c #7D521F",
"j  c #635A1F",
"k  c #477815",
"l  c #537019",
"z  c #5C4224",
"x  c #5B442B",
"c  c #5E482F",
"v  c #57422A",
"b  c #5C4731",
"n  c #5E4A35",
"m  c #594939",
"M  c #624423",
"N  c #6D4924",
"B  c #614729",
"V  c #644A2C",
"C  c #6B4D2B",
"Z  c #674724",
"A  c #744C22",
"S  c #7A4E22",
"D  c #6C5424",
"F  c #7A5223",
"G  c #775A26",
"H  c #634D34",
"J  c #6A4F31",
"K  c #624E39",
"L  c #6B5234",
"P  c #66513B",
"I  c #6B553C",
"U  c #6F583E",
"Y  c #725635",
"T  c #735A3D",
"R  c #775938",
"E  c #7A6428",
"W  c #697527",
"Q  c #777A29",
"!  c #7B7E31",
"~  c #666921",
"^  c #5A4F43",
"/  c #5D574F",
"(  c #6A5641",
")  c #6E5942",
"_  c #675A4A",
"`  c #745E44",
"'  c #795E42",
"]  c #615C56",
"[  c #776045",
"{  c #796145",
"}  c #7A644A",
"|  c #79644B",
" . c #776956",
".. c #6A6055",
"X. c #6B6967",
"o. c #746C63",
"O. c #7A7268",
"+. c #7C7C7B",
"@. c #777673",
"#. c #844C18",
"$. c #85521D",
"%. c #895218",
"&. c #94581A",
"*. c #834E21",
"=. c #835424",
"-. c #81562A",
";. c #8B5C2B",
":. c #885927",
">. c #925D28",
",. c #875D33",
"<. c #866A27",
"1. c #95622B",
"2. c #9A652C",
"3. c #996528",
"4. c #8E732E",
"5. c #97792A",
"6. c #8C6135",
"7. c #87633A",
"8. c #946534",
"9. c #996936",
"0. c #9F713E",
"q. c #987A31",
"w. c #A36624",
"e. c #A96E2C",
"r. c #A46A2B",
"t. c #A46E32",
"y. c #A96F31",
"u. c #AC7233",
"i. c #A6733C",
"p. c #B17635",
"a. c #B27937",
"s. c #B27A3B",
"d. c #AB702F",
"f. c #826643",
"g. c #886C48",
"h. c #966C41",
"j. c #9D7244",
"k. c #997949",
"l. c #836D52",
"z. c #877257",
"x. c #967A59",
"c. c #A37441",
"v. c #AE7C45",
"b. c #A37A4B",
"n. c #A57E53",
"m. c #B17D43",
"M. c #887963",
"N. c #937C61",
"B. c #877F77",
"V. c #728021",
"C. c #63832D",
"Z. c #4E8112",
"A. c #7F9572",
"S. c #858737",
"D. c #9E8938",
"F. c #958525",
"G. c #A3832D",
"H. c #AE892C",
"J. c #AA862C",
"K. c #B28B2C",
"L. c #A58435",
"P. c #AC8A34",
"I. c #AB8A3A",
"U. c #A78636",
"Y. c #B28D33",
"T. c #B08E3D",
"R. c #B69135",
"E. c #B5923A",
"W. c #B9953C",
"Q. c #A9903E",
"!. c #9A814A",
"~. c #9B8841",
"^. c #998454",
"/. c #AB8C43",
"(. c #A68848",
"). c #B58145",
"_. c #B5834A",
"`. c #B8864B",
"'. c #AC9442",
"]. c #AA9248",
"[. c #B49545",
"{. c #BA9740",
"}. c #BC9A44",
"|. c #B4964B",
" X c #B79A4B",
".X c #BD9D4B",
"XX c #B59945",
"oX c #BA8B54",
"OX c #B98C5A",
"+X c #A99259",
"@X c #B59A53",
"#X c #BB9E54",
"$X c #B59959",
"%X c #A88357",
"&X c #BEA155",
"*X c #BBA25D",
"=X c #978566",
"-X c #8E8677",
";X c #958576",
":X c #9C9276",
">X c #AD9A68",
",X c #BE9668",
"<X c #A49878",
"1X c #BEA561",
"2X c #B1A27E",
"3X c #C09F4D",
"4X c #C1A04E",
"5X c #C2A353",
"6X c #C4A659",
"7X c #C6AA5D",
"8X c #C8AC5F",
"9X c #C29C6E",
"0X c #C5AB62",
"qX c #C9AD63",
"wX c #C1A761",
"eX c #8B8B8C",
"rX c #878685",
"tX c #938F84",
"yX c #979798",
"uX c #92918E",
"iX c #A29281",
"pX c #A9A497",
"aX c #B2A68A",
"sX c #9FA0A0",
"dX c #ACACAE",
"fX c #B6B5B3",
/* pixels */
"                                                                                                                        ",
"                                                                                                                        ",
"                                                    z.=XN.                                                              ",
"                                                  m ) I ` (   m m  .z.                                                  ",
"                                                _ ( ` K K ( n P x.` l.                                                  ",
"                                              N.N.z.} } H ( P n l.} [ `                                                 ",
"                                              } } I ` b | N.=X) I [ [ } l.                                              ",
"                                           .} I H ` ) K ) [ } } H b P P |                                               ",
"                                          } ) I I ` v n ` x H H [ K I ` U )                                             ",
"                                        n K } [ U I w ) x q n K I [ b H T I I                                           ",
"                                      | ` r b b n w I ) | K K | l.` P H [ K l.=X`                                       ",
"                                    n ( =Xb q b c , x H l.T r x T T L H T I ` x.}                                       ",
"                                    r ` g.Y M C C Z C 7.f.f.R ,.h.7.R A N I K g.g.                                      ",
"                                    x } ;.t.s.`.oXoXoXb.j.c.v.).s.y.>.#.g H K ` f.T                                     ",
"                                  P x [ ,.i.)._.m.s.s.s.s.s.s.s.a.p.e.w.%.J I U ' I                                     ",
"                                  n b ` ,.8.8.1.2.y.u.u.u.u.u.u.u.d.w.&.g V H B L L                                     ",
"                                  v c U A #.$.:.1.2.2.1.;.;.;.-.F f d d a B H I x B                                     ",
"                                  r x L R R 5 3 8 s a S -.:.:.=.f d 8 B T { [ x.c T I                                   ",
"                              n b q v V f.g.N %.3.t.u.s.s.s.u.u.e.w.#.V I z.f.f.I x.z.                                  ",
"                            H K H / _ v B T N &.w.r.y.y.t.9.2.2.3.&.#.V L ' J Y L g.g.                                  ",
"                            T ` _ X.X.K w B 4 6 a A F A N s 9 9 9 3 2 z L V H x B T f.H                                 ",
"                          [ L L o.X.X. .e M -.-.;.8.0.0.0.0.c.c.i.0.6.-.J e H w 4 B R H                                 ",
"                          T L n +.@.+. .v 2 g $.:.1.t.p.u.u.s.).).`.s.9.Y e v L c L L V                                 ",
"                          L C _ eX+.eXO.v * 0 %.3.r.y.y.y.y.y.u.u.e.w.$.B c < Y f.R V V                                 ",
"                          B V  .eX+.uXO.r 2 %.3.e.u.p.a.a.a.p.p.u.e.w.&.G x < e V L z z                                 ",
"                          z z x ] @.] t % 2 #.w.e.p.p.u.y.t.y.u.y.e.w.&.F v w L x e r z <                               ",
"                          L r < ..X.< I , 2 %.>.>.1.>.=.S A A A S =.$.g Z B B J r v < L x <                             ",
"                          Y x L | m < f.Y < : > ; - = o o o o X @ * - * < 4 B V C v < J C z                             ",
"                        E C B T G 8 < J V z V 5 d a # . . . . . O 8 d s e : e z C C < r C V G                           ",
"                      Q E z r V F 8 1 c o.O._ N 3.=.@ . . . . . o s 1.=.M : 4 4 M M < > z M G G.                        ",
"                  5.5.V.p < 4 r F 8 < X.yX+.m -.2.S @ . . . . . o 9 1.1.s 9 -.8.h.9.6.A 5 5 s H.H.J.G.                  ",
"              G.H.J.Q l u 1 2 4 S 9 ( v / ^ M 2.1.d $ X X X X X + 3 ;.9.S g =.i.v.c.0.*.8 2 i J.K.K.H.J.                ",
"            G.K.K.K.F.Z.u % 1 2 f l.fXo.< 5 a u.2.9 # O O O O O $ 2 :.y.9.9.h.k.k.k.j.9.-.5 6 5.K.K.K.K.H.G.            ",
"            H.K.K.G.V.C.A.rX^ 2 f :XdXrXz a -.u.2.6 # + + + + + $ > =.t.1.c.OX,X9X,XOX_.8.5 2 <.K.K.K.K.K.H.            ",
"            J.K.K.J.q.tXdXyX] > h ;XsX@.q a :.9.>.7 & $ $ $ $ $ # & d t.S *.6.n.%Xb.c.;.g 2 & <.K.K.K.K.K.J.            ",
"              L.P.Y.P.=XyXuXX.q h -XuXX.X.R f 1.S & & : 1 1 1 1 : & 8 2.g %.8.oXOX_.`.>.#.; # <.R.Y.Y.Y.P.              ",
"              U.P.Y.R.P.!.z._ B F B.+.rXeX[ a d 8 & 1 i i i i i i : ; f 8 #.>.`.oXv._.:.g * # 4.R.R.Y.U.                ",
"          I.E.E.E.E.E.R.R.Y.L.7.a  . .yXuX| a ; 2 D D p j G G G G D 6 ; 3 ;.6.j.k.h.h.;.=.- @ E W.E.E.E.E.I.            ",
"      I.E.W.W.W.W.W.W.W.W.W.2XuXO.=XL.!.M.T 6 * E <.~ k l E 4.4.4.4.<.6 3 v.OX,X,X,XOX`.i.= O D W.W.W.W.W.W.E.T.        ",
"      W.W.W.W.W.W.W.W.W.W.[.pXrX@.:XE.E.E.L.F q.I.D.~ k k W L.I.U.U.I.U.=.S g.b.n.b.j.,.g & 6 q.W.W.W.W.W.W.W.W.E.      ",
"    /.{.{.{.{.{.W.{.{.{.{.{./.(.(./.{.[.D.U.{.}.{.{.XX'.'.XX$X<X:X/.{.{.U.g.M.8.8.6.iX;X' q.E.{.{.{.{.{.{.{.{.{.{./.    ",
"      [.XXXX}.}.}.}.}.}.}.}.}.}.}.}.[.D.W Q Q.}.}.}.}.}.}.XX<XyX@.k.}.}.}.[././.I.(.tXrX+.+X}.}.}.}.}.}.}.}.}.{.XX      ",
"        [.XX}.}..X}..X}.}.}.}.}.}.}.'.W y y W [..XXX.X.X.X.X].!.~.[.XX'.'..X.X}.}..X].!.k.|..X}.}.}.}.}.}.}.}..X|.      ",
"            |. X X X[.XX.X.X.X@X>X$X X~.S.S.]. X.X.X.X.X.X.X.X.X3X.X[.! S. X.X.X.X.X.X3X.X.X.X.X.X.X.X.X.X.X3X X        ",
"                    |..X3X3X4X|.-X-X|.5X5X5X5X4X.X.X3X3X4X3X3X3X4X|.Q k k ! .X4X3X.X.X.X3X.X3X3X3X3X3X.X3X4X.X          ",
"                  #X5X5X5X5X5X&X|.^.^.&X5X5X5X5X5X5X5X&X#X#X5X5X5X.XS.C.C.S. X5X&XaXpX:X>X&X5X5X5X5X5X5X5X.X            ",
"                &X5X5X5X5X5X5X5X5X&X@X5X5X5X5X5X5X5X*XaXpX:X$X&X5X5X6X6X6X7X5X5X2XdXyX+.+.+X5X5X5X5X5X&X@X              ",
"              #X6X6X6X6X6X6X6X6X6X6X6X6X6X6X6X5X5X6X$XuXrXo.^.=X@X6X6X6X6X6X6X5X+X=XM. .!.@X6X&X&X&X@X                  ",
"              $X6X7X7X6X7X7X7X7X7X7X7X7X7X7X7X7X7X7X6X+X^.(.#X$X6X7X7X7X7X7X7X7X7X&X@X#X7X7X7X@X                        ",
"                $X*X7X7X7X7X7X7X7X7X7X7X8X7X0X7X7X7X8X8X8X7X7X8X0X7X7X7X7X7X7X7X8X7X7XqX7X8X7X*X                        ",
"                      *X7X0X0X0X0X0X0X0X0XwX*X*X0X0XqXqXqXqXqXqXqXqXqXqXqXqXqXqXqXqXqXqX0XwX*X                          ",
"                                                    1X1XwXwX0X0X0X0XqXqXqX0X0X0XwXwX1X*X                                ",
"                                                                                                                        ",
"                                                                                                                        ",
"                                                                                                                        ",
"                                                                                                                        ",
"                                                                                                                        ",
"                                                                                                                        ",
"                                                                                                                        ",
"                                                                                                                        "
};
