/* XPM */
static char *_3562e5edb534e49eb272e09def0a4f7rvrRa4m4HCa7UxGf[] = {
/* columns rows colors chars-per-pixel */
"60 60 218 2 ",
"   c None",
".  c #2F2845",
"X  c #412C44",
"o  c #4E3446",
"O  c #483446",
"+  c #513545",
"@  c #5B3544",
"#  c #553D4B",
"$  c #653540",
"%  c #643A46",
"&  c #693B46",
"*  c #6A3A43",
"=  c #723B43",
"-  c #7A3D43",
";  c #4E4453",
":  c #524553",
">  c #564754",
",  c #49595C",
"<  c #58565B",
"1  c #66424A",
"2  c #6D454C",
"3  c #7C4146",
"4  c #7B474B",
"5  c #684B55",
"6  c #724D53",
"7  c #75575B",
"8  c #6F5356",
"9  c #6D655E",
"0  c #76685E",
"q  c #4E5C60",
"w  c #466261",
"e  c #426A64",
"r  c #44766A",
"t  c #4B7469",
"y  c #45796B",
"u  c #4B7D6E",
"i  c #477166",
"p  c #4C7F70",
"a  c #5A7E73",
"s  c #516360",
"d  c #636B69",
"f  c #726A60",
"g  c #786465",
"h  c #767867",
"j  c #677871",
"k  c #BA362C",
"l  c #C63C2F",
"z  c #C54539",
"x  c #CA4639",
"c  c #D54434",
"v  c #D34C3B",
"b  c #D84937",
"n  c #D1503F",
"m  c #893F42",
"M  c #8B4143",
"N  c #854547",
"B  c #914343",
"V  c #994A47",
"C  c #875654",
"Z  c #A24743",
"A  c #A64843",
"S  c #A84B44",
"D  c #A5544B",
"F  c #A85B53",
"G  c #836E5E",
"H  c #8B625E",
"J  c #936858",
"K  c #84705F",
"L  c #BA7A5E",
"P  c #A16B5D",
"I  c #806564",
"U  c #807D79",
"Y  c #A77B66",
"T  c #C85A46",
"R  c #D35643",
"E  c #D35945",
"W  c #D45D49",
"Q  c #D85C45",
"!  c #E25C43",
"~  c #DB654B",
"^  c #D66A54",
"/  c #D7765C",
"(  c #C56B54",
")  c #EC6A4A",
"_  c #E86548",
"`  c #EB724E",
"'  c #E57654",
"]  c #E97452",
"[  c #E87B57",
"{  c #CC7960",
"}  c #DA7860",
"|  c #5B826E",
" . c #548573",
".. c #598472",
"X. c #598975",
"o. c #5B8C79",
"O. c #578874",
"+. c #4E8170",
"@. c #65846E",
"#. c #778B6F",
"$. c #668A76",
"%. c #768775",
"&. c #62927C",
"*. c #6A977E",
"=. c #7F9676",
"-. c #8E8773",
";. c #9A8F71",
":. c #8B9474",
">. c #989873",
",. c #92846B",
"<. c #BB8461",
"1. c #BA8965",
"2. c #A88A7B",
"3. c #A59C75",
"4. c #A69B74",
"5. c #B1936D",
"6. c #ADA178",
"7. c #BBA474",
"8. c #B8A578",
"9. c #DE8058",
"0. c #E0825F",
"q. c #C88E64",
"w. c #DC866A",
"e. c #C8956A",
"r. c #D69567",
"t. c #D69869",
"y. c #DA9A76",
"u. c #DD8F73",
"i. c #E58764",
"p. c #E59974",
"a. c #E69F69",
"s. c #C6AB74",
"d. c #CCAC74",
"f. c #C8A574",
"g. c #D7AB76",
"h. c #DAA971",
"j. c #E7A76E",
"k. c #EAA976",
"l. c #EEB575",
"z. c #EFB778",
"x. c #E7B577",
"c. c #F1B574",
"v. c #F0B97B",
"b. c #6B9A84",
"n. c #719F86",
"m. c #74A385",
"M. c #79A788",
"N. c #79A68A",
"B. c #7CA991",
"V. c #939789",
"C. c #919E91",
"Z. c #869388",
"A. c #A49A89",
"S. c #87A78C",
"D. c #81AD93",
"F. c #8AB59B",
"G. c #88B496",
"H. c #9DB69C",
"J. c #A8AD97",
"K. c #A6B69D",
"L. c #BBB49A",
"P. c #B2B18D",
"I. c #96BBA1",
"U. c #A2BAA5",
"Y. c #ADBDA6",
"T. c #CCA484",
"R. c #C5B88D",
"E. c #CBB696",
"W. c #CAB798",
"Q. c #D6B692",
"!. c #E4A884",
"~. c #EAB888",
"^. c #EABA95",
"/. c #9AC3A5",
"(. c #A3CBAC",
"). c #A7C4A7",
"_. c #A8D0AD",
"`. c #B1CEB2",
"'. c #ACD3B2",
"]. c #B6D7B7",
"[. c #B0C9A9",
"{. c #BDE2BE",
"}. c #D5C496",
"|. c #EBC69A",
" X c #F0C499",
".X c #E5C389",
"XX c #C5C9A9",
"oX c #D1CCA9",
"OX c #D4CCA6",
"+X c #CBD2AF",
"@X c #C5D0AD",
"#X c #DAD7A9",
"$X c #C9D8B5",
"%X c #D0DDB7",
"&X c #EECCA3",
"*X c #E8D4A9",
"=X c #F2D7AB",
"-X c #F3DFB3",
";X c #C7E2BF",
":X c #CBE2BE",
">X c #D2E4BB",
",X c #F6E2B5",
"<X c #F7E7B9",
"1X c #C2E6C2",
"2X c #CCECC6",
"3X c #CCEFC9",
"4X c #C9E7C2",
"5X c #D2EEC6",
"6X c #DBEFC4",
"7X c #D0ECC5",
"8X c #CFF0C9",
"9X c #D4F1C9",
"0X c #DCF2C9",
"qX c #E6F3C7",
"wX c #FCF5C5",
"eX c #FEF9C9",
"rX c #F5F6C8",
"tX c #FAEFC1",
/* pixels */
"                                                                                                                        ",
"                                                                                                                        ",
"                                                                                                                        ",
"                                                                                                                        ",
"                                                                                                                        ",
"                                                                                                                        ",
"                                                                                                                        ",
"                                              3X3X3X3X3X3X3X3X3X3X3X3X3X3X3X3X3X3X3X3X3X3X3X                            ",
"                                    3X3X3X3X3X3X3X3X3X3X3X3X3X3X3X3X3X3X3X3X3X3X3X3X3X3X3X3X3X3X                        ",
"                              3X3X3X3X3X3X3X3X3X3X0XrXqXqX3X3X3X3X3X3X3X3X3X3X3X3X3X3X3X3X3X3X3X3X3X                    ",
"                        3X3X3X3X3X1X_._.1X3X3X3X3X9X9X3X3X3X3X3X3X3X3X3X3X3X3X3X3X3X3X3X3X3X3X3X3X3X3X                  ",
"                    2X3X3X3X3X3X1XD.M.M.o.(.3X3X3X3X3X3X3X3X3X3X3X3X3X3X3X3X3X3X3X3X3X3X3X3X3X3X3X3X3X3X                ",
"                  3X3X3XqXqX3X3X(.M.M.m.X.O.o.D.1X3X3X3X3X3X3X3X3X3X3X3X3X3X3X3X3X3X3X3X3X3X3X3X3X3X3X3X3X              ",
"                3X3X3X3X3X3X3X3X].M.m.&.u u y y o.1X3X3X3X3X3X9X0X3X3X3X3X3X3X3X3X3X3X3X3X3X3X3X3X3X3X3X3X3X            ",
"              3X3X3X3X3X3X3X3X'.G.b.X.O.y y y y y D.F.b.b.(.3X3X3X3X3X3X3X3X3X3X3X3X3X3X3X3X3X3X0X3X3X3X3X3X3X          ",
"            2X3X3X5X5X8X3X3X_.M.m.X.X.O.y y y y y y y y y u {.3X3X3X3X3X3X3X3X3X3X3X3X3X3X3X3X3X3X3X0X3X3X3X3X          ",
"            3X3X6X6XqX6X6X3X/.M.&.O. .y y y y r e y y y y u {.3X3X3X3X3X3X3X3X3X3X3X3X3X3X3X3X3X3X3X0X3X3X3X3X3X        ",
"          3X3X6XqXeXeXwXqX5X1XB.X.u y y y y y y y y y y u /.3X3X3X3X3X3X3X3X3X3X3X3X3X3X3X3X3X3X3X3X3X3X3X3X3X3X        ",
"          3X3X6XrXeXeXeXrX6X3X3XI.j u &.N.u y y y y  .n.'.3X3X3X3X3X3X3X3X3X3X3X3X3X3X3X3X3X3X3X3X3X3X3X3X3X3X3X3X      ",
"        2X3X3X6XeXeXeXeXwX6X3X3XA.1 $X3X3X{./.I./.].3X3X3X3X3X3X3X3X3X3X3X3X3X3X3X3X3X3X3X3X3X3X3X3X3X3X3X3X3X3X3X      ",
"        3X3X3X6XrXeXeXeXqX6X3X2X7 7 3X3X3X3X3X3X3X3X3X3X3X3X:XQ.}.>X%X%X%X+X+X+X+X+X+X+X+X+X%XoXT.:X3X3X3X3X3X3X3X      ",
"        3X3X3X5X6XrXrXqX6X3X3XP.$ Y.3X3X3X3X3X3X4XOXQ.y.g.>Xw.] ) ' ) ) ! c c c c c c c c c v v k E.3X3X3X3X3X3X3X3X    ",
"        3X3X3X3X5X6X6X6X3X3X2XC % 2X3X3X3X3X3X}.[ ) ) ) ) i.' ' ) ' ' _ v c c R R R W W W E c c c E.3X3X3X3X3X3X3X3X    ",
"      3X3X3X3X3X3X3X3X3X3X3XL.* g d 3X3X3X3X2X[ i.&X=X,X<Xp.eX<Xp.eX&X/ eX^./ eX!.&XeXeXeX,Xc c l E.3X3X3X3X3X3X3X3X    ",
"      3X3X3X3X3X3X3X3X3X3X2XH $ @XJ.d `.3X3X4Xi.p.eX<X=X X] ,XeXwXeXi.b |.eX-XtXR ^ !.eXy.^ c c c E.3X3X3X3X3X3X3X3X    ",
"      3X3X3X3X3X3X3X3X3X3XXX- 2 4X3XY.1X3X3X+X] k.eXk.i.[ ) k.eXeX&X_ c ~ wXeX!.c c w.eX} c c c c W.3X3X3X3X3X3X3X3X    ",
"      3X3X3X3X3X3X3X3X3X3XY * 8 8X3X2X2X3X3XoX) !.eXwXwX!.) i.eXeX^.! c v ,XeXw.c c w.eX} c c c c W.3X3X3X3X3X3X3X3X    ",
"      3X3X3X3X3X3X3X3X3X:XV $ I 3X3X3X3X3X3XoX) ~.eX^.k.[ ) &XeXeXwX^ c u.eXeX-Xv c w.eX/ c c c c E.3X3X3X3X3X3X3X3X    ",
"      3X3X3X3X3X3X3X3X3XXXB $ 7 9X3X3X3X3X3XoX)  XeX|. X~.p.eX-X=XeX^.v <X&X!.eXw.c w.eX/ c c c c W.3X3X3X3X3X3X3X3X    ",
"      3X3X3X3X3X3X3X3X3XL.M $ 6 2X3X3X3X3X3XoX`  X<X-X=X!.k.^.i.i.p.i.R w.W v w.^ c W w.R c c c c W.].B.F.1X'.F.(.2X    ",
"      3X3X3X3X3X3X3X3X3XL.m @ @ @X3X3X3X3X3XoX) ] ] ` ) ) ) ) ) ] u.x x T ^ z z z z z z z z z z T [.M.u y &.p y u       ",
"      3X3X3X3X3X3X3X3X3XL.B + < S.1X3X3X3X3X+X[ ` ) ) ` ) _ ' p.OX2X$X+XZ.; X X X X O + @ J e.> C.(.m. .u y y y y       ",
"      3X3X3X3X3X3X1X'.'.J.B j o.O.&.'.3X3X3X4Xu.[ _ ! ~ 2 O K.2X3X3X2XU O O o + @ % % & % q.l.; Z.D.*.X.O.y u y y       ",
"      3X3X3X3X3X3XF.M.M.M.%.&.O.u y  .{.3X3X3X#Xj.^ ' i.# . U.3X3X3XK.& & & & & & & & & M r.l.: $. .u u y u (.'./.      ",
"      3X3X3X3X3X3XD.M.M.m.&.X.u e r y '.3X3X3X#Xc.c.c.z.: . U.3X3X3XI & & & & & & & & M F y.z.< &.y y y y F.2X3X        ",
"      3X3X3X3X3X3X'.&.*.o.X. .y y y y &.B._.3X#Xc.c.c.l.: . U.3X3X2X6 & & & & & & = V W.*XT.v.< &.y y y y p n.1X        ",
"      3X3X3X3X3X3X3XB.+.+.u y y y y y y y u D.#Xc.c.c.z.: . U.3X3X;X2 & & & & & - V A F D t.l.: *.u y y y y  .          ",
"      3X3X3X3X3X3X3X1XD.O.y i e y y y y y y y P.c.c.c.l.; . U.3X3X;X2 & & & = M A A A A A r.l.; Z.D.t X.N.a I.          ",
"      3X3X3X3X3X3X3X3X3X@XV + o i  .F.o.y y y P.c.c.j.9.o . U.3X3X;X2 & * M Z A A A A A A r.l.; C.:X2 `.3X`.            ",
"        3X3X3X3X3X2X#X.X~.( 6 @ o H.3X1X(./.'.#Xc.j.' ) + . U.qX0X;X4 M Z A A A A A A A A r.z.; C.$X& ].3X3X            ",
"        3X3X3X3X>X.Xc.l.l.c.l.f.;.V.3X3X3X3X3X*Xa.` ) ) o . U.0X9X:XD S A A A M A A A A A r.z.; C.$X* `.1X              ",
"        3X3X3X7X~.c.h.e.h.g.d.s.#.:.2X3X3X2XOXf.) ) ) ) o . U.3X3X:XL j.V B M V Z A A A A r.l.; C.@X* ;     n.y         ",
"          3X3X.Xc.c.l.g.s.s.s.s.:.y (.3X].R.s.q.) ) ) ) + . U.3X3X:XL j.N - - m B A A A A r.z.; C.@X%     m.X.y r       ",
"            >Xl.c.c.x.s.s.s.s.s.3.y O.n.=.s.s.<.) ) ) ) + . a F.1X:XL k.N 3 N B Z A A A A r.l.; %.K.$.&.&.O.y y y y     ",
"            .Xl.c.l.d.s.s.s.s.s.4.y i y >.s.7.<.) ) ) ) o . t X.&.H.L k.N 3 3 M A A A A A r.l.; w O.u u u y y y y y y   ",
"          x.l.l.c.x.s.s.s.s.s.7.:., e e t #.3.<.) ) ) ) o . t X.X...C J & & & Z V M N N N r.l.; w @.d u y y r y         ",
"        c.1.l.c.c.g.s.s.s.s.s.3.;.-.| y y y @.<.) ) ) ) + . e u X...1 & & @ & - 3 3 3 3 3 q.l.; w h - < y @.#.u         ",
"      l.j.f.d.d.d.d.s.s.s.s.s.3.3.3.3.3.>.>.#.Y ) ) _ Q o . e e O...1 & & % & & 3 3 3 3 3 q.l.; w h - < | 3.3.#.y       ",
"      l.g.s.s.s.s.s.s.s.s.s.7.3.3.6.s.s.s.7.s.q.) _ T E o . e y u ..1 & & & & & = 3 4 2.2.f.z.; w h = # >.3.3.>.y       ",
"      d.s.s.s.s.s.s.s.s.s.s.8.3.7.s.s.s.7.-.8.<.) T T E o . e y r t 1 & & & & & & 3 4 2.W.R.v.; q f = 1 4.3.>.@.y       ",
"      s.s.s.s.s.s.5.s.s.s.s.s.s.s.s.s.s.s.6.3.<.) D E E o . e r e t & & & & & & & = 3 3 3 e.z.: s -.,.;.4.3.>.>.u       ",
"      G G G G G G G K K K K K G G G G G 0 0 0 J / P { { 8 ; , q , q 5 5 8 7 7 7 8 5 6 6 6 7.~.< 9 f f f f f 9 9 ,       ",
"                                                                                                                        ",
"                                                                                                                        ",
"                                                                                                                        ",
"                                                                                                                        ",
"                                                                                                                        ",
"                                                                                                                        ",
"                                                                                                                        ",
"                                                                                                                        "
};
