/* XPM */
static char *b62e3369042b484091bbe5eb71ca9a474Uj6CHBKG7QGp1tc[] = {
/* columns rows colors chars-per-pixel */
"60 60 221 2 ",
"   c #001C00",
".  c #121F0B",
"X  c #091B17",
"o  c #151D1F",
"O  c #191D1C",
"+  c #171611",
"@  c #3B1E02",
"#  c #231B11",
"$  c #002000",
"%  c #0B2505",
"&  c #093800",
"*  c #1B3500",
"=  c #143B00",
"-  c #183A00",
";  c #092318",
":  c #18251E",
">  c #2C2807",
",  c #362D00",
"<  c #3D2B02",
"1  c #3B2C0C",
"2  c #3D2408",
"3  c #2E3300",
"4  c #353400",
"5  c #3C3B00",
"6  c #383200",
"7  c #292117",
"8  c #352515",
"9  c #312916",
"0  c #3A2C14",
"q  c #353B17",
"w  c #0B1C24",
"e  c #0C1C2B",
"r  c #071724",
"t  c #151E22",
"y  c #1B1F20",
"u  c #12162B",
"i  c #191D2A",
"p  c #0E1C30",
"a  c #061B30",
"s  c #141A34",
"d  c #0D222A",
"f  c #132424",
"g  c #12212C",
"h  c #1A252C",
"j  c #1A2426",
"k  c #1B2E33",
"l  c #172233",
"z  c #3A2E20",
"x  c #383127",
"c  c #4B1E19",
"v  c #4C2703",
"b  c #422B05",
"n  c #44260C",
"m  c #4B260F",
"M  c #46290E",
"N  c #492B0D",
"B  c #452804",
"V  c #532F0D",
"C  c #44320C",
"Z  c #4A340D",
"A  c #47380B",
"S  c #54310F",
"D  c #5B3409",
"F  c #462512",
"G  c #4B2514",
"H  c #462C11",
"J  c #492B11",
"K  c #4D2519",
"L  c #4D2C1B",
"P  c #472A1C",
"I  c #532D16",
"U  c #542A1E",
"Y  c #4D3216",
"T  c #4E3318",
"R  c #493513",
"E  c #523214",
"W  c #503218",
"Q  c #513915",
"!  c #482625",
"~  c #562A26",
"^  c #463623",
"/  c #194600",
"(  c #274100",
")  c #3D4E00",
"_  c #364900",
"`  c #345B00",
"'  c #3C6301",
"]  c #39610B",
"[  c #4B4A05",
"{  c #4B440D",
"}  c #53430F",
"|  c #465A00",
" . c #495702",
".. c #50590A",
"X. c #4F4D10",
"o. c #514716",
"O. c #57581D",
"+. c #605A1C",
"@. c #4C6007",
"#. c #58740E",
"$. c #5B6713",
"%. c #5D6C17",
"&. c #5A7119",
"*. c #636C1A",
"=. c #605D28",
"-. c #705F33",
";. c #5B6125",
":. c #717924",
">. c #667234",
",. c #70652E",
"<. c #111E40",
"1. c #507057",
"2. c #589603",
"3. c #57901B",
"4. c #4A9208",
"5. c #618F15",
"6. c #689E1D",
"7. c #72981E",
"8. c #5EA519",
"9. c #66AE0C",
"0. c #6AAC0A",
"q. c #65A903",
"w. c #66AF12",
"e. c #6DAB16",
"r. c #6DA41D",
"t. c #6EAB19",
"y. c #6DA412",
"u. c #72AC15",
"i. c #75A41E",
"p. c #72AA1C",
"a. c #7AAA1D",
"s. c #77A713",
"d. c #6CB212",
"f. c #6CB719",
"g. c #70B413",
"h. c #73B31B",
"j. c #78BD1E",
"k. c #72B907",
"l. c #75812B",
"z. c #789C2B",
"x. c #7B8E35",
"c. c #799F32",
"v. c #6EAC21",
"b. c #6FA422",
"n. c #74A425",
"m. c #7AA524",
"M. c #75AA24",
"N. c #7AA926",
"B. c #75A62A",
"V. c #7BA62B",
"C. c #77A829",
"Z. c #7AA92A",
"A. c #6FB521",
"S. c #74B221",
"D. c #7AB421",
"F. c #7BB727",
"G. c #6FAC33",
"H. c #77A634",
"J. c #7BA533",
"K. c #77A931",
"L. c #7EAA31",
"P. c #79AA3B",
"I. c #7FC809",
"U. c #7EC71B",
"Y. c #77CA1B",
"T. c #7CCB1B",
"R. c #78C713",
"E. c #7ED31C",
"W. c #78D411",
"Q. c #7BD60C",
"!. c #74CE25",
"~. c #7CCC22",
"^. c #7BCD2C",
"/. c #7DC621",
"(. c #7ED324",
"). c #7CD12C",
"_. c #77D42B",
"`. c #7CCD3B",
"'. c #79CE32",
"]. c #7ED233",
"[. c #7A9471",
"{. c #859F39",
"}. c #879A39",
"|. c #83A22D",
" X c #81AD2D",
".X c #84AC25",
"XX c #82B222",
"oX c #82A334",
"OX c #84AD33",
"+X c #85A339",
"@X c #89A33D",
"#X c #89AB3B",
"$X c #88A63A",
"%X c #82CA0E",
"&X c #80CF14",
"*X c #84CF1C",
"=X c #82D31F",
"-X c #8ADB1A",
";X c #8CD41B",
":X c #84CE25",
">X c #83CE2B",
",X c #8ACC2C",
"<X c #8AC924",
"1X c #84D325",
"2X c #82D32B",
"3X c #8AD42B",
"4X c #8AD726",
"5X c #85CC31",
"6X c #8AC935",
"7X c #89CA32",
"8X c #87CE3B",
"9X c #82D235",
"0X c #88D632",
"qX c #92954E",
"wX c #89894D",
"eX c #8CA845",
"rX c #93A647",
"tX c #93A847",
"yX c #8CB441",
"uX c #95A954",
"iX c #93D547",
/* pixels */
"u h g <.e [.E.0XiXg s h 4X(.^.I.a : h 4.Y.E.iX$ i j & U.^.=Xe . u 1.%X`.8XX h i r <X(.U.1.f X r U.E.R.& l O   ;XY.T.2.e ",
"% = S.e.A.9X1X(.-XG.h.h.1X(.(.T.t.u.d.j.~.(.1X9.e.h.8.~.T.-Xh.d.w.j.U.].4Xq.0.9.6.3X2X~.S.g.k.g.T.1XY.w.S.h.q.3X~.&X2.% ",
"k = ,X*X2X^.2X).Q.8X=X(.1X).).'.1X>X).3X).).).).^.'.2X).(.~./.9X_.>X2XW.:X>X!.!.1X].(.~.T.).].2X9X).^.~.~.9XE.`.^.T.3.; ",
"d / ,X6X:X5X>X5X6X6X,X>X>X>X>X>X>X>X>X(.>X5X6X6X>X(.>X>X>X>X>X>X>X:X,X5X5X5X>X>X>X>X>X>X>X>X>X5X>X>X>X>X5X5X:X*X7X<X5.f ",
"g = p.v.d.v.t.p.p.p.p.t.t.t.t.t.t.t.e.e.t.p.p.p.e.e.t.t.t.t.t.t.t.u.u.u.t.t.t.t.t.t.t.t.t.t.t.p.t.e.e.t.t.t.e.0.b.y.' f ",
"p = C.K.M.Z.Z.N.N.N.N.Z.N.N.N.N.N.N.N.V.Z.N.N.N.Z.V.N.N.N.N.N.N.N.V.Z.Z.N.N.Z.Z.N.N.N.N.N.N.N.V.Z.N.N.N.Z.Z.C.p.K.M.` g ",
"e - Z.J.N.J.V.Z.C.C.Z.V.V.V.V.V.V.V.V.oXV.Z.M.C.V.oXV.V.V.V.V.V.V.J.V.V.m.m.V.V.V.V.V.V.V.V.V.V.V.V.V.V.Z.Z.V.M.H.V.` e ",
"w - a.V.a.V.Z.Z.V.B.Z.n.M.M.C.C.C.C.C.Z.n.N.V.Z.n.N.C.C.C.C.C.C.C.M.M.Z.n.V.Z.Z.C.C.C.C.M.M.C.M.C.C.B.V.n. Xm.a.J.m.' f ",
"e - N.V.a.V.n.V.oX{.oXZ.C.C.C.C.C.C.C.M.V.V.$X@Xn.M.C.C.C.C.C.C.C.p.N.V.eX+Xn.n.C.C.C.C.C.C.C.M.V.V.z.+XoXoXC.a.H.n.' g ",
"p - Z.K.M.B.L.@X$.l.@XV.V.V.V.V.V.V.V.M.V.@X*. .L.M.V.V.V.V.V.V.V.a.i.+X&._ +XOXV.V.V.V.V.V.V.N.V.J.eX( tXx.C.M.H.B.' g ",
"p * m.s.i.Z.}., J J X.@XV.N.Z.M.b.n.V.F.#X4 M n ) yXn.b.N.N.m.Z.V.f.C.%.J C 3 uXe.N.OXV.V.V.V.F.tX,.b N b -.n.B.P.p.' g ",
"e -  XXXm.J.> Q F G < ..M.C.n.V.V.Z.i.@X$.A J L 5 )  XZ.V.n.N.N.N.Z.#.4 F M A 5 {.n.r.V.oXV.t.6.*.< Z N b b eXi.B.M.' g ",
"w = N.i.tX@.N G K K N < r.OXV.|.|.V.Z.+.< n K c B A | +XV.Z.M.m..X*.6 b K G J R A eXf.V.{.Z.d.rX, b N J M M _ .XB.B.] g ",
"; - c.x.6 C G J R H M J T [ $XD.D.V.@ J J M M M J K P o.}..X7.uX;.m N M Y J J J H 2 eXM.M.$X:.b J G G G J H H , >.|.` k ",
"f * uX4 C n J R R R M n c < | z.Z.%.~ J M M R C H F ! n [ $XrX=.0 N M M Q T J M 1 L { #XB.*.@ J F G J J J J J H 1 }.| g ",
"t q { b F J H Y T T T M G J < wXO., K M H T T T Y H F 2 < { -.M @ M M Y T T Y N W F < 5 qX< G N N J M M J J F N P } O.u ",
"i > < L F m T T W L L W b J L ~ ~ G b Y T W W L T T v @ L ! P J v N T W W W E E L J R N J G m J Y R T R Y W J v U n 0 s ",
"t # H N J T W W W W J J J H H J M J J T T T T T T T Y J M J M M J Y W Y J Y T W Y J M J J M M Y T T T T T T T J H n 8 O ",
"t # H N E T W W W J J M J J J J J J J Y Y T T T T T W Y J n M J Y W Y J n M J J Y W J M J M Y T T Y T T T T T T J n 8 O ",
"t # T E E T W W W J J J J J J J J J M M J T Y T T T W W Y Y J Y W J M J J J J J J Y Y J J W Y T T T T T T T T T T H 8 O ",
"o # T E E T W W J J J J J J N N J J J H H T T T T T W W W W W W E J J J J J J J M J W W W W W T T T T T T T T T T Y 8 O ",
"o # T E E T W W J J J J J J N J J J J H H T T T T T W W W W W W W J N J J J J J M J W W W W W T T T T T T T T T T Y 8 O ",
"o # T E E T W W J J J J J J J J J J J H M Y T T T T W W W W W W W J J J J J J J M J W W W W W T T T T T T T T T T Y 8 O ",
"o # T E E T W W J J J J J J J J J J J M M Y Y T T T W W W W W W W J J J J J J J M J W W W W W T T T T T T T T T T Y 8 O ",
"o # T E E T W W J M J J J J J J J J J H M Y Y T T T T T T T T T T J J M J J J M H Y T T T T T T T T T T T T T W W Y 9 O ",
"o # T E E T W W Y J M M J J J J J J J H J Y T T T T T T T T T T T W Y J M M J J T T T T T T T T T T T T T T T W W Y 9 O ",
"o # T E E T T W W J M M J J J J J J J M Y Y T T T T T T T T T T T Y W W J J Y W T T T T T T T T T T T T T T T W W Y 9 O ",
"o # T E E T W W W J J J M M J J J J n T T T T T T T T T T T T T T W W W W W W W T T T T T T T T T T T T T T T W W Y 9 O ",
"t # T E E T W W W W W J J J M M J J W T T T T T T T T T T T T T T W W W W W W W T T T T T T T T T T T T T T T W W Y 9 O ",
"t # T E E T W W W Y W W Y Y Y Y Y Y W T T T T T T T T T T T T T T W W W W W W W T T T T T T T T T T T T T T T W W Y 9 O ",
"t # T E E T W W W W Y Y J Y Y Y Y W W T T T T T T T T T T T T T T W W W W W W W T T T T T T T T T T T T T T T W W Y 9 O ",
"o # T E E T T T T T T T T T T T T T T T T T T T T T T T T T T T T T T T T T T T W W W W W Y Y W W W W W W W T W W Y 9 O ",
"o # T E E T T T T T T T T T T T T T T T T T T T T T T T T T T T T T T T T T T T W W W W W W W W W W W W W W T W W Y 9 O ",
"o # T E E T T T T T T T T T T T T T T T T T T T T T T T T T T T T T T T T T T T W W W W Y J J J Y W W W W W T W W Y 9 O ",
"o # T E E T T T T T T T T T T T T T T T T T T T T T T Y Y T T T Y T T T T T T T W Y W Y J M J J J J J W Y W T W W Y 9 O ",
"o # T E E T T T T T T T T T T T T T T T T T T T T T T T Y J Y Y T T T T T T T T W Y Y J J M J J J J M Y W W T W W Y 9 O ",
"o # T E E T T T T T T T T T T T T T T T T T T T T T T Y J H M H Y T T T T T T T W W J M N J J J J J M J W W T W W Y 9 O ",
"o # T E E T W W W W W W W W W W W W W T T T T T T T W J J J M M J Y T T T T T T W Y J J J J J J J J M n W W T W W Y 9 O ",
"o # T E E T W W W W W W Y Y W W W W W T T T T T T T Y J M J J J M Y T T T T T T W W J J J J J J J J J M W T T W W Y 9 O ",
"o # T E E T W W W Y W W W W W Y W W W T T T T T T T W J M J J J J Y T T T T T T W W J J J J J J J J J J W W T W W Y 9 O ",
"t # T E E T W W W Y J J M J J W W W W T T T T T T T W J J J M J J Y T T T T T T W W J J J J J J J J J J Y W T W W Y 9 O ",
"t # T E E T T W W J M M J M J Y W E W T T T T T T T W W J J J Y W T T T T T T T W W W J J M J J J M J Y W W T W W Y 9 O ",
"t # T E E T W W Y J J J J M M J E W W T T T T T T T W W W W Y W W T T T T T T T W W W W J J J M J J Y W W W T W W Y 9 O ",
"o # T E E T W W J J J J J J J M J W Y T T T T T T T W W Y Y W Y Y T T T T T T T W W W W W W J Y W W W Y Y W T W W Y 9 O ",
"o # T E E T W W J J J J M J J J J W Y T T T T T T T T T T T T T T T T T T T T T T T T T T T T T T T T T T T T W W Y 9 O ",
"t # T E E T W W J M J J J J J M J W Y T T T T T T T T T T T T T T T T T T T T T T T T T T T T T T T T T T T T W W Y 9 O ",
"o # T E E T Y W Y J M M J J J J W Y W T T T T T T T T T T T T T T T T T T T T T T T T T T T T T T T T T T T T W W Y 9 O ",
"o # T E E T Y W W J M n J M J Y W Y W T T T T T T T T T T T T T T T T T T T T T T T T T T T T T T T T T T T T W W Y 9 O ",
"o # T E E T W W W W Y J J J Y E W W W T T T T T T T T T T T T T T T T T T T T T T T T T T Y T T T T T T T T T W W Y 9 O ",
"o # T E E T W W W Y Y W W W W W W W W T T T T T Y T T T T T T T T T T T T T T T T T T T T T W T T T T T T T T W W Y 9 O ",
"o # T E E T W W W W W W W W W W W W W T T T T J H J T T T T T T T T T T T T T T T T J H H Y T T T T T T T T T W W Y 9 O ",
"o # T E E T T T T T T T T T T T T T T W W Y J J J J J Y T Y T T T T T T T T T T Y J J J M J J T Y T T T T T T T T L 8 O ",
"t # T E E T T T T T T T T T T T T T T W Y J n J J J n T T Y T T T T T T T T T T J M M M J J H T Y Y T T T T T T T J 8 O ",
"t # T E E T T T T T T T T T T T T T T W Y J M J J J M Y T Y T T T T T T T T T T J M J M J M n Y T Y T T T T T T T J 8 O ",
"t # T E E T T T T T T T T T T T T T T W W Y J J J J J Y T Y T T T T T T T T T T J M J J J M M J T Y T T T T T T T J 8 O ",
"t 7 T E E T T T T T T T T T T T T T T W W W W W Y W T T T T T T T T T T T T T T Y J M J M M J T T T T T T T T T T T 8 O ",
"t 7 T E E T T T T T T T T T T T T T T W W W W W T W T T T T T T T T T T T T T T W Y J J M J W T T T T T T T T T T T 8 y ",
"t # T E E T T T T T T T T T T T T T T W W W W W W W T T T T T T T T T T T T T T W Y Y J Y W W T T T T T T T T T T T 8 y ",
"t O x ^ S D T T T T T T R R R R R R R R R R R R R R R R R R R R R R R R R R R R R R R R R R R R R R R R R R E E T z O f ",
"t o + ^ T J S S S V V V I I I I I I I I I I I I I I I I I I I I I I I I I I I I I I I I I I I I I I I I I I J T ^ # O t "
};
