/* XPM */
static char *ee5873904f7f4fafabaa975bd61ceffbH4ULPLBl8vVdpr39[] = {
/* columns rows colors chars-per-pixel */
"60 60 199 2 ",
"   c None",
".  c #1D1C1C",
"X  c #1E1D17",
"o  c #221F1A",
"O  c #281F18",
"+  c #301B1E",
"@  c #1F211E",
"#  c #3C2A0C",
"$  c #37280F",
"%  c #252216",
"&  c #2C2415",
"*  c #24231C",
"=  c #2A241A",
"-  c #2E291C",
";  c #322613",
":  c #352811",
">  c #3A2C14",
",  c #322B1B",
"<  c #3A2E1D",
"1  c #3A321D",
"2  c #1C1D20",
"3  c #2D1D21",
"4  c #1D2222",
"5  c #1E2C2E",
"6  c #1C2E31",
"7  c #1F3A3E",
"8  c #1F3639",
"9  c #242321",
"0  c #2A2622",
"q  c #272A23",
"w  c #2C2B23",
"e  c #272B2B",
"r  c #322E25",
"t  c #362F27",
"y  c #2E3326",
"u  c #333225",
"i  c #3B3523",
"p  c #34342A",
"a  c #3A362B",
"s  c #333A2A",
"d  c #3D3B2B",
"f  c #3C3927",
"g  c #272F30",
"h  c #283935",
"j  c #3B3C31",
"k  c #472E07",
"l  c #482E07",
"z  c #442D0A",
"x  c #4A3107",
"c  c #47310B",
"v  c #4A3209",
"b  c #54390B",
"n  c #5C3C0A",
"m  c #51360B",
"M  c #432F15",
"N  c #413118",
"B  c #4B3617",
"V  c #533913",
"C  c #5B3E14",
"Z  c #623E08",
"A  c #4F2925",
"S  c #433B25",
"D  c #423D2B",
"F  c #493E26",
"G  c #54312A",
"H  c #344029",
"J  c #3F4E31",
"K  c #3F5330",
"L  c #5E4012",
"P  c #63410C",
"I  c #6C460C",
"U  c #6D480C",
"Y  c #744B0D",
"T  c #794F0D",
"R  c #6C4712",
"E  c #774C11",
"W  c #43412D",
"Q  c #49442C",
"!  c #4C4326",
"~  c #57472B",
"^  c #444333",
"/  c #4A4633",
"(  c #474834",
")  c #4E4A36",
"_  c #4B4939",
"`  c #534D34",
"'  c #524D39",
"]  c #5A4F36",
"[  c #465835",
"{  c #575136",
"}  c #5C5236",
"|  c #55523B",
" . c #5A533A",
".. c #5D5A3F",
"X. c #635635",
"o. c #665937",
"O. c #6A5B34",
"+. c #62573B",
"@. c #635D3C",
"#. c #6B5D3B",
"$. c #52703E",
"%. c #506A3B",
"&. c #6C613C",
"*. c #75663E",
"=. c #76683D",
"-. c #7C6C3B",
";. c #7B6837",
":. c #7F703E",
">. c #213F42",
",. c #264648",
"<. c #394C45",
"1. c #2E544E",
"2. c #2E5A5E",
"3. c #325B5B",
"4. c #35604D",
"5. c #38685D",
"6. c #2F5B61",
"7. c #336564",
"8. c #464847",
"9. c #5E5B41",
"0. c #595640",
"q. c #5A5D5F",
"w. c #4C5755",
"e. c #655E42",
"r. c #615F4E",
"t. c #625D51",
"y. c #58665C",
"u. c #656143",
"i. c #6A6545",
"p. c #6D6848",
"a. c #736541",
"s. c #726C44",
"d. c #7B6C43",
"f. c #736C4B",
"g. c #74724E",
"h. c #79724E",
"j. c #7B7549",
"k. c #7D7651",
"l. c #7E7851",
"z. c #516F71",
"x. c #476C73",
"c. c #646A65",
"v. c #7D7C6C",
"b. c #86530D",
"n. c #816B3B",
"m. c #816F46",
"M. c #8A7643",
"N. c #8B7C4C",
"B. c #867649",
"V. c #927E42",
"C. c #937C49",
"Z. c #827C54",
"A. c #857F5A",
"S. c #9C844D",
"D. c #9B8646",
"F. c #8C8153",
"G. c #8D8659",
"H. c #8E8858",
"J. c #9B8552",
"K. c #9D8A53",
"L. c #958D5C",
"P. c #938B59",
"I. c #9A925F",
"U. c #A28A46",
"Y. c #A28C4A",
"T. c #A58C52",
"R. c #AE955E",
"E. c #AB9857",
"W. c #B59B5A",
"Q. c #BFA25E",
"!. c #928863",
"~. c #9C9160",
"^. c #8B8C77",
"/. c #A09664",
"(. c #A49B67",
"). c #B99E61",
"_. c #A9A16D",
"`. c #BFB378",
"'. c #B9AD73",
"]. c #C0A55F",
"[. c #CCAB64",
"{. c #CDAE68",
"}. c #C0A261",
"|. c #CAB365",
" X c #D7B66A",
".X c #C7BC77",
"XX c #E1BD6D",
"oX c #D6C972",
"OX c #E3C06E",
"+X c #EFC974",
"@X c #E7C472",
"#X c #F1CA74",
"$X c #BCAB81",
"%X c #CEC281",
"&X c #D9C58A",
"*X c #EBDE91",
"=X c #E9C980",
"-X c #F3E696",
";X c #C7C5B7",
/* pixels */
"                                                                                                                        ",
"                                                                                                                        ",
"                                                                                                                        ",
"                                                                                                                        ",
"                                                        = , .                                                           ",
"                                                      > R V   N B B B N =                                               ",
"                                                .   M I U C P Y T T T R B o                                             ",
"                                                = > n I U U U U U I U L                                                 ",
"                                                : c P I U U U U U U I Y E V                                             ",
"                                              ; z m n n U U U U U U I I U Y C =                                         ",
"                                          o : z k x x n U I Y Y U U U I x > M = .                                       ",
"                                            ; z l k x P n Y b.Z b P P I I ;                                             ",
"                                          O # z z k v b x b.n # # # # z I c ;                                           ",
"                                          ; z k l z z # c P B @. .' Q S b V $ =                                         ",
"                                        o # k z # S > & z M i.I.I.I.~.L.~ m & *                                         ",
"                                        * # k : ` Z.u * # , ( '  . .u.h.{ z & X                                         ",
"                                        * : # Q L.F.y * : w j | i.k.G.H.f.> & .                                         ",
"                                        . ; S G.Z./ a u = u S ` X.` { f.A.1 = 2                                         ",
"                                          & s.Z.i.9.` f i K.{.XXOX XQ.S.d.i o                                           ",
"                                          * i...G. .X.> N n.XX#X#X+X#X@XM.w                                             ",
"                                          2 u.i.A.} m.#.*.~ ;. X#X+X+XT.F *     *                                       ",
"                                             .p.Z.` C.!.v.<.w O.[.+XW.S _     w D 0                                     ",
"                                        3 A G i.h.D M.&X;Xx.z.v.{.#XR.w.c.  * u d                                       ",
"                                        3 A A u.i.d } {.$Xy.c.&X#X#X=X^.r.* f Q =                                       ",
"                                            + ) L.l. .@.a.#.m.R.}.[.[.).N.w ` O.i             ^                         ",
"                                              9 e.L./.'.`.h.d w | Z.(..XH.d X.o.} o.~     u } E.&.                      ",
"                                              5 q ^ u./.*X-X&X(.l.k.(.oX@.r Q O.V.D.-.1 i =.Y.oXs.                      ",
"                                          6 7 8 g t ^ ) u.Z./.`.%X%X.Xs.u w . Q -.&.&.-.M.U.U.|.&.                      ",
"                                        6 >.,.1.,.| } / e.p.i.p.k.A.i.w p       F :.D.U.U.V.d.K.)                       ",
"                                        7 ,.3.4.3.g.[.J.@.s ..f.e.D   p w       ! V.U.V.=.} u.F.                        ",
"                                      6 ,.2.5.1.7.l.#XW.B.4         w r         S -.=.+.} ` B.s.                        ",
"                                      / <.7.,.6.7.l.[.T.N.e         r           r `  . . ...F.W                         ",
"                                    ] T.p.h h 2.3.J.[.OXW.q       0 w           r `  . .] k.e.                          ",
"                                    #.].X.= F | i.[.{.W.N.p       w 0         * S  . . .f.p.                            ",
"                                     .F.` o = < ~ ~ t.c.c.e     0 r           w `  .e.f.e.t                             ",
"                                    e./.@.@ q * - w 8.q.8.      w w         0 Q } p.f.|                                 ",
"                                    9.H.  * u d ( ( ^ j j }  .a w           p ' ' ) a                                   ",
"                                    +.a.  w u ^ ' ( ^ p d d.&.` `                                                       ",
"                                    K. X  w u ^ ) d u w d { #.*.S                                                       ",
"                                    C.|.Y.* H J W p w w u.Z./ `                                                         ",
"                                    J.XXB.s $.$...0.p ..A.( w 0                                                         ",
"                                    *.S.d.y [ %.[ p ) ' p y *                                                           ",
"                                      a a 9 K K y * . w w u f                                                           ",
"                                          2 9 q w     4 i -.a.                                                          ",
"                                          9 } B.B.    9 o.C.+.                                                          ",
"                                          ^ a.T.#.    u  .@.d                                                           ",
"                                          h.A.+.      / Z.!./                                                           ",
"                                        d h._.e.      a ' ) r                                                           ",
"                                        w W  .        X * - *                                                           ",
"                                        - i i           % , ,                                                           ",
"                                        - i F S         % - 1 1 -                                                       ",
"                                        - i S S ,       % = - - =                                                       ",
"                                        * * * * o       X X X                                                           ",
"                                                                                                                        ",
"                                                                                                                        ",
"                                                                                                                        ",
"                                                                                                                        ",
"                                                                                                                        ",
"                                                                                                                        ",
"                                                                                                                        "
};
