/* XPM */
static char *c565eb91c00c48a38364392391652f2fMaJaEaZUl8mnW64Q[] = {
/* columns rows colors chars-per-pixel */
"60 60 199 2 ",
"   c #171D1E",
".  c #1A1D1B",
"X  c #2B251C",
"o  c #383126",
"O  c #3D3326",
"+  c #3D3224",
"@  c #3E3223",
"#  c #3F3222",
"$  c #413221",
"%  c #413124",
"&  c #423124",
"*  c #3F3224",
"=  c #3E3324",
"-  c #403221",
";  c #3A3123",
":  c #2B2822",
">  c #191E1F",
",  c #141D21",
"<  c #191E20",
"1  c #2E2B27",
"2  c #49331C",
"3  c #4A3219",
"4  c #4E3317",
"5  c #503315",
"6  c #503314",
"7  c #513314",
"8  c #523214",
"9  c #503316",
"0  c #503317",
"q  c #523213",
"w  c #4D351A",
"e  c #443522",
"r  c #312A1F",
"t  c #1A1E1C",
"y  c #32271B",
"u  c #48331F",
"i  c #4F3318",
"p  c #4F3317",
"a  c #4F3316",
"s  c #503214",
"d  c #503113",
"f  c #503114",
"g  c #513216",
"h  c #513215",
"j  c #503215",
"k  c #4C331A",
"l  c #493119",
"z  c #302519",
"x  c #412E1C",
"c  c #4E3318",
"v  c #4E3117",
"b  c #4F3117",
"n  c #503218",
"m  c #4E3217",
"M  c #4E3116",
"N  c #4E3115",
"B  c #3C2C1C",
"V  c #443220",
"C  c #4D3116",
"Z  c #4A2C12",
"A  c #4C2F14",
"S  c #403121",
"D  c #433120",
"F  c #4F3319",
"G  c #4D3217",
"H  c #492C12",
"J  c #472A10",
"K  c #46290F",
"L  c #482A10",
"P  c #4C2E14",
"I  c #503318",
"U  c #4F3218",
"Y  c #403021",
"T  c #453220",
"R  c #4C3016",
"E  c #472B11",
"W  c #482B11",
"Q  c #492B11",
"!  c #4A2D13",
"~  c #4E3218",
"^  c #4D3016",
"/  c #4D2F15",
"(  c #4D3015",
")  c #403122",
"_  c #4C2F15",
"`  c #4E3016",
"'  c #4B2D13",
"]  c #482B10",
"[  c #4C3015",
"{  c #4E3216",
"}  c #4B2F15",
"|  c #4B2E14",
" . c #4F3217",
".. c #513218",
"X. c #413022",
"o. c #453221",
"O. c #4F3116",
"+. c #47290F",
"@. c #4B2E13",
"#. c #503217",
"$. c #403020",
"%. c #46321F",
"&. c #4F3418",
"*. c #4D3117",
"=. c #492D13",
"-. c #462A10",
";. c #472C12",
":. c #472B10",
">. c #4A2E14",
",. c #492C11",
"<. c #492D12",
"1. c #4B2F14",
"2. c #46321E",
"3. c #45321F",
"4. c #4F3419",
"5. c #4D2F14",
"6. c #472A11",
"7. c #472910",
"8. c #503418",
"9. c #4A2E13",
"0. c #4C3116",
"q. c #4A2D12",
"w. c #472A0F",
"e. c #482C11",
"r. c #482C12",
"t. c #45331F",
"y. c #4D3419",
"u. c #4D341A",
"i. c #4E3319",
"p. c #513419",
"a. c #3F3122",
"s. c #423320",
"d. c #4D351C",
"f. c #3F3221",
"g. c #44331F",
"h. c #503319",
"j. c #4F3216",
"k. c #4F3215",
"l. c #513315",
"z. c #3F3220",
"x. c #46331E",
"c. c #513212",
"v. c #513213",
"b. c #503216",
"n. c #503213",
"m. c #4E341A",
"M. c #4E3419",
"N. c #4C341B",
"B. c #4D3319",
"V. c #372E21",
"C. c #2F281F",
"Z. c #453423",
"A. c #49321B",
"S. c #4B3219",
"D. c #4D341B",
"F. c #4D351B",
"G. c #4B351C",
"H. c #4D331A",
"J. c #4D3218",
"K. c #48341D",
"L. c #433322",
"P. c #28251E",
"I. c #1B1E1D",
"U. c #312A21",
"Y. c #443421",
"T. c #48351F",
"R. c #49341D",
"E. c #4A331B",
"W. c #4D3318",
"Q. c #4B3319",
"!. c #4C3319",
"~. c #4B331A",
"^. c #4B331B",
"/. c #4A341C",
"(. c #4B351E",
"). c #413424",
"_. c #2E291F",
"`. c #191D1C",
"'. c #151D23",
"]. c #1E1D1A",
"[. c #312516",
"{. c #3E2F1E",
"}. c #44321E",
"|. c #47321A",
" X c #4A3117",
".X c #4D3014",
"XX c #4E3113",
"oX c #4A3118",
"OX c #493118",
"+X c #4B3116",
"@X c #4B3016",
"#X c #4B3117",
"$X c #49321A",
"%X c #493219",
"&X c #402E19",
"*X c #2C2519",
"=X c #1A1C18",
"-X c #151C1F",
";X c white",
/* pixels */
"  . X o O + @ # $ % & & & & & & & & & & & & & & & & & & & & & & & & & & & & & & & & & & & & & & & & & & * = # - ; : > , ",
"< 1 2 3 4 5 6 7 8 9 0 0 0 0 0 0 9 5 5 5 5 5 5 5 5 5 5 5 5 5 5 5 5 5 5 5 5 5 5 5 5 5 5 5 5 5 5 5 5 5 5 5 7 7 q 7 w e r t ",
"y u i p a 5 5 s d f g h j g g g j 5 5 5 5 5 5 5 5 5 5 5 5 5 j h h h h h h h 5 5 5 5 5 5 5 5 5 5 5 5 5 5 5 j s 5 4 k l z ",
"x 4 c c c c c c i v b n n n n n c c c c c c c c c c c c c c i n n n n n n n c c c c c c c c c c c c c c c c c c m M N B ",
"V c c c c c c c C Z Z A b n n n i c c c c c c c c c c c c c i n n n n n n n c c c c c c c c c c c c c c c c c c m M m S ",
"D F c c c m c G H J K L P n n n c c c c c c c c c c c c c c i I n n n n n U c c c c c c c c c c c c c c c c c c c c 4 Y ",
"T m c c c c i R E W Q W ! M n n ~ c c c c c c c c c c c c c i I I n ^ / / ( m c c m c c c c c c c c c c c c c c c c c ) ",
"T m c c c c c _ J L Q L H M n n ~ c c c c c c c c c c c c c c n ` ' W L L ] Z [ m m c c c c c c c c c c c c c c c c c ) ",
"T m c c c m m { ! W L Q P M n n m c c c c c c c c c c c c c i M Z L L L L L K E [ i c c c c c c c c c c c c c c c c c ) ",
"T m c c c c c i G } | [ m m U U c c c c c c c c c c c c c c i ' L L Q W L Q W K H ^ i U U U U U U U U U U U U U U U I ) ",
"T m m c c c c c c c c c c c c c c c c c c c c c c c c c c c ~ Z W J Q Q Q Q W J L P n n n n n n n b  .n n n n  .n n ..X.",
"o.m m c c c c c c c c c c c c c c c c c c c c c c c c c c c m Z Q L Q Q Q Q Q Q W P n n n n n n n  .O.( ` b n n n n n X.",
"T m c c c c c c c c c c c c c c c c c c c c c c c c c c c c m Z Q Q Q Q Q Q Q Q L P n n n n n n n ` Z L L Q ' ` n n n X.",
"T m c c c c c c c c c c c c c c c c c c c c c c c c c c c c C Q L L Q Q Q Q Q Q Q P n n n n n n b Z +.K L L L @.b n #.Y ",
"T m c c c c c c c c c c c c c c c c c c c c c c c c c c c c m ' J K L Q Q Q L J Q ` n n n n n n ` W +.W Q Q L Z M n #.$.",
"%.m c c c c c c c c c c c c c c c c c c c c c c c c c c c c i ( Z L Q Q Q Q L Z ( n n n n n n n ` L L Q Q Q +.Q M n #.$.",
"%.m c c c c c c c c c c c c c m m i &.&.i i i c c c c c c c c  .m A Z Q Q H @.M U U U U U U U U ^ W W W J W J W v U  .Y ",
"T m c c c c c c c c c c c c m m i  .( M I n n U c c c c c c c c c c *.C C C c c c c c c c c c c G =.-.E ;.-.:.>.c c c ) ",
"T m c c c c c c c c c c c c c c ( ,.L Q ,.P M U c c c c c c c c c c c m m m c c c c c c c c c c c ^ <.J -.E @.M c c c ) ",
"T m c c c c c c c c c c c c c A W +.J L +.J ' m c c c c c c c c c c c c c c c c c c c c c c c c m m m _ A C c 4 c c c ) ",
"T m c c c c c c c c c c m m m W W Q Q W Q L Q _ m c c c c c c c c c c c c c c c c c c c c c c c c c c c c c c c c c c ) ",
"o.m c c c c c c c c c c c m [ J Q W Q Q Q Q Q P m c m c c c c c c c c c c c c c c c c c c c c c c c c c c c c c c c c ) ",
"%.m c c c c c c c c c c i m 1.J Q W Q Q Q Q Q P m c m c c c c c c c c c c c c c c c c c c c c c c c c c c c c c c c c ) ",
"%.m c m c c c c c c c c ~ m C E J L Q Q Q Q Q P m c m c c c c c c c c c c c c c c c c c c c c c c c c c c c c c c c c ) ",
"o.m c c c c c c c c c c m c C W J J L Q Q W Q _ c c c c c c c c c c c c c c c c c c c c c c c c c c c c c c c c c c c ) ",
"T m c c c c c c c c c c m c m @.Q J +.L L L ' m c c c c c c c c c c c c c c c c c c c c c c c c c c c c c c c c c c c ) ",
"2.m c c c c c c c c c c c c c m | ,.W ] ,.A n &.c c c c c c c c c c c c c c c c c c c c c c c c c c c c c c c c c c c ) ",
"%.m c c c c c c c c c c c c c c U b / / b I n U c c c c c c c c c c c c c c c c c c c c c c c c c c c c c c c c c c c ) ",
"3.m c c c c c c c c c c c c c c U n n n n n n i c c c c c c c m c c &.c c c c c c c c c c c c c c c c c c c c c c c c ) ",
"T m c c c c c c c c c c c c c c U n n n n n n i c c c c c c c m m c c c c c c c c c c c c c c c c c c c c c c c c c c ) ",
"o.m c c c c c c c c c c c c c c U n n n n n n i c c c c c c m C [ [ [ M c 4.c c c c c c c c c c c c c c c c c c c c c ) ",
"%.m n n n n n n U  . .m  .n n n i c c c c c c U n n n U U _ Z H Q Q L ,.' M  . .n I n n n n n n U  . . .m m m c c c c ) ",
"2.m n n n n n n n n n n n n n n i c c c c c c U n n n b ' L W Q Q Q Q J +.L P n n n n n n n n n n  .I I m c c c c c c ) ",
"T  .n n n n b P ' @.5.b n n n n i c c c c c c U n n n ' L J L W Q Q Q W L W Q M n  .n n n n n n n M @.@.| m c c c c c ) ",
"T  .n n n n ( L +.L Q ( I n n n i c c c c c c U n n  .Z Q Q Q W Q Q Q Q L L L ' b n n n n n n n  .' J +.6.>.m m c c c ) ",
"o. .n n n n ' K L W W P I n n n i c c c c c c i I  .` Q Q Q Q Q Q Q Q Q Q Q Q L `  .n n n n n n ` Q Q Q J W C m c c c ) ",
"T  .n n n  .Q J Q J 7.' n n n n i c c c c c c i 8. .@.Q Q Q Q Q Q Q Q Q Q Q Q L `  .n n n n n n ` J J L J E { i c c c ) ",
"2.m n n n n A Q W K W P  .n n n i c c c c c c i I n Z W Q Q Q Q Q Q Q Q Q Q Q L `  .n n n n n n b Z K L J <.m c c c c ) ",
"3.m i i i 8.i ( 9.! ( p i i i i c c c c c c c U n n Z Q W L Q W Q Q Q Q Q Q L ] ` n n n n i i i i C H H >.0.c c c c c ) ",
"3.m c c c c c m m m m c c c c c c c c c c c c U n n ' J Q Q Q Q Q Q Q Q Q Q J Q ` n n n n c c c c c m G c c c c c c c ) ",
"T m c c c c c c c c c c c c c c c c c c c c c i  .n ( Q Q Q Q Q Q Q Q Q Q Q J q.b  .n n n c c c c m m c c c c c c c c ) ",
"T m c c c c c c c c c c c c c c c c c c c c c &. . .n P J J Q Q Q Q Q Q Q W J @.#. .n n n c c c c c c c c c c c c c c ) ",
"T m c c c c c c c c c c c c c c c c c c c c c i n n n ` Z L +.J W L L W L Q @.M n n n b n c c c c c c c c c c c c c c ) ",
"T m c c c c c c c c c c c c c c c c c c c c c U n n n  .#.P Q L K L J w.,.( b b b  .b M n c c c c c c c c c c c c c c ) ",
"%.m c m c c c c c c c c c c c c c c c c c c c U n n n n b  . .P ! ' / ( `  .M b ` P Z ' / ~ c c c c c c c c c c c c c ) ",
"T m c c c c c c c i i i [ _ _ C m c c c c c c i U U U U U U m m i &.i m m  .b P Q L L L Q } c c c c c c c c c c c c c ) ",
"o.m c c c c c c c  . .( L J J Q ( c m c c c c c c c c c c c c c c c c c c c ^ W L W Q Q Q W [ c c c c c c c c c c c c ) ",
"T m c c c c c c c n M Q K L L Q H C c c c c c c c c c c c c c c c c c c c c ! K K J Q Q Q K e.m c c c c c c c c c c c ) ",
"2.m c c c c c c c 8.A J L Q Q W J 1.c c c c c c c c c c c c c c c c c c c c q.+.L W Q Q Q E W &.&.c c c c c c c c c c ) ",
"T m c c c c c c c I P J W W J L J [ c c c c c c c c c c c c c c c c c c c c ' L Q Q Q Q Q E <.i c c c c c c c c c c c ) ",
"T m c c c c c c c  .( ' L Q W Q <.G c c c c c c c c c c c c c c c c c c c c P J L Q Q Q Q J >.c m c c c c c c c c c c ) ",
"T m c c c c c c c U  .M q.,.Q H C &.c c c c c c c c c c c c c c c c c c c c M Z L Q Q Q Q r.0.c c c c c c c c c c c c ) ",
"t.c y.u.i.c c c ~ n n  .n M ` v i p.U c i i i i i i i i i i i i i i i i i i n ` ' ' Z Q ,.C i  .i i i i p 4 c c c c c a.",
"s.c d.d.u.c c c m n n n n n n n n n n n n n n n n n n n n n n n n n n n n n n n n U v C M n n n n n n n 9 5 { m m m p f.",
"g.4 p p 4 m c c c U U U U U U U U U U U U U U U U U U U U U U U U U U U U U U U U F h.h.F i U U U U U U p j.j.j.j.k.l.z.",
"x.j.c.v.5 k.4 c c c c c c c c c c c c c c c c c c c c c c c c c c c c c c c c c c c c c c c c c c c c c c m 5 5 5 5 b.f.",
"S u.n.s a p 4 c c c c c i.m.i.c c c M.M.c c c i.m.c c c c m.M.c c c M.m.c c c c m.i.c c c M.M.c c c i.m.N.B.p 5 k.m N.V.",
"C.Z.A.S.4.c m m c u.u.u.c u.D.u.u.u.M.u.u.u.u.y.u.F.u.u.B.M.u.u.u.u.M.D.d.u.u.i.y.u.u.u.u.M.u.D.u.u.i.u.G.H.m m J.K.L.P.",
"I.U.Y.T.R.E.W.j.m Q.!.B.!.W.~.B.!.~.W.~.!.B.k !.!.^.B.~.~.J.~.!.B.k B.!.^.B.~.!.J.~.B.B.k B.~.~.B.~.!.!./.^.~ c (.)._.`.",
"'.].[.{.}.|. X.XXXoXOXOXOX+XoX@X@X XoX#XOXOX X X+XoXoX@X X#X#XOXoX X+X#X XoX@XoX+X XOXoXoX@X X X X@XoX@X$X%X+XOX&X*X=X-X"
};
