/* XPM */
static char *_a47fd3620a940839c604ab521d97afexm78zNPn8fvEBLuj[] = {
/* columns rows colors chars-per-pixel */
"60 60 133 2 ",
"   c #551E00",
".  c #581F02",
"X  c #572001",
"o  c #5B2405",
"O  c #5F2907",
"+  c #5E2609",
"@  c #5F280A",
"#  c #602709",
"$  c #622B0C",
"%  c #66300E",
"&  c #662F11",
"*  c #673111",
"=  c #6B3414",
"-  c #6E3916",
";  c #6E3618",
":  c #6F3919",
">  c #713B17",
",  c #713619",
"<  c #733D1C",
"1  c #763F20",
"2  c #783F21",
"3  c #76411E",
"4  c #78421E",
"5  c #774121",
"6  c #7C4625",
"7  c #7A4323",
"8  c #7A4825",
"9  c #7B4926",
"0  c #7D4826",
"q  c #7E4826",
"w  c #7E4927",
"e  c #7F4927",
"r  c #7C4A27",
"t  c #7E4927",
"y  c #7F4628",
"u  c #7E4728",
"i  c #7F4629",
"p  c #7E4728",
"a  c #7E4929",
"s  c #7D4B28",
"d  c #7F4A28",
"f  c #7F4A2A",
"g  c #7E4C29",
"h  c #7F4D2A",
"j  c #7F4829",
"k  c #804827",
"l  c #804A26",
"z  c #804A28",
"x  c #804B29",
"c  c #814B29",
"v  c #81482A",
"b  c #80492A",
"n  c #82492B",
"m  c #814A2B",
"M  c #804B2B",
"N  c #834B2A",
"B  c #814C2A",
"V  c #824C2A",
"C  c #824D2B",
"Z  c #834D2B",
"A  c #804E2B",
"S  c #854D2A",
"D  c #854F2B",
"F  c #834A2C",
"G  c #844B2D",
"H  c #814C2C",
"J  c #834C2D",
"K  c #814F2C",
"L  c #834E2C",
"P  c #834E2E",
"I  c #854D2C",
"U  c #844E2C",
"Y  c #844F2D",
"T  c #844D2E",
"R  c #824B2B",
"E  c #82502D",
"W  c #83512E",
"Q  c #85502E",
"!  c #86502E",
"~  c #86512F",
"^  c #84522F",
"/  c #87512F",
"(  c #88502D",
")  c #8B552F",
"_  c #864F30",
"`  c #884F31",
"'  c #855330",
"]  c #875230",
"[  c #875031",
"{  c #895130",
"}  c #885331",
"|  c #895331",
" . c #8A5133",
".. c #8A5430",
"X. c #8B5531",
"o. c #895432",
"O. c #8A5432",
"+. c #8A5533",
"@. c #8B5533",
"#. c #8C5431",
"$. c #8D5733",
"%. c #8E5633",
"&. c #8A5334",
"*. c #8B5634",
"=. c #8C5634",
"-. c #8C5735",
";. c #8D5735",
":. c #8B5534",
">. c #8B5936",
",. c #8E5834",
"<. c #8F5935",
"1. c #8E5A35",
"2. c #8D5836",
"3. c #8E5836",
"4. c #8E5937",
"5. c #8F5937",
"6. c #8E5836",
"7. c #8E5738",
"8. c #8F5A38",
"9. c #8F5839",
"0. c #915936",
"q. c #915B37",
"w. c #905A36",
"e. c #905A38",
"r. c #915B39",
"t. c #925D3B",
"y. c #935D3B",
"u. c #945C39",
"i. c #915F3C",
"p. c #945F3D",
"a. c #915B3A",
"s. c #96603C",
"d. c #986142",
/* pixels */
"6 5 5 6 6 3 5 8 5 8 5 5 5 6 7 3 7 7 7 7 7 7 7 7 7 5 7 6 7 3 7 s 5 5 5 6 s s 6 5 5 6 6 5 5 6 w 7 K I K x x K x 6 K Z s 6 ",
"5 5 5 5 < > < 3 3 3 3 3 3 7 7 5 3 3 5 5 5 5 5 7 5 7 7 5 5 5 5 3 7 5 5 7 6 6 7 3 < 5 7 7 5 5 3 3 5 5 6 u x x s s 6 6 6 5 ",
"5 5 5 3 < : : < 3 3 5 3 3 3 3 3 3 3 3 3 3 3 3 5 3 7 7 3 3 6 5 < 7 5 3 5 7 7 5 5 3 3 5 5 3 < 3 7 x x x Q I w 7 7 3 3 3 3 ",
"5 5 5 3 3 3 5 5 3 5 5 5 5 5 7 7 6 7 5 3 5 5 5 3 3 5 7 7 5 7 5 5 5 3 3 5 7 7 5 3 w 5 3 3 3 5 w Q e.-.2.e.+.6 < 3 3 3 3 5 ",
"6 5 5 3 5 5 5 5 5 5 6 8 w w x x 6 3 < 3 6 w 7 < 7 3 5 7 3 : < 6 3 3 5 5 5 5 < > 6 5 3 3 7 Z { e.2.$.2.w.+.7 3 4 7 3 < 3 ",
"6 5 < 3 3 < < 3 h w w h Z s w w 3 < : < 6 s 6 3 7 < 3 5 < % = 7 3 3 7 5 5 < > - 3 3 3 7 x +.2.2.+.+.2.2.I 7 4 7 7 < - - ",
"6 < 3 7 < = - 5 Z 8 8 s Z w 6 7 < < < 7 w x 6 7 5 3 3 5 < = - 5 3 5 5 5 5 < > > < 5 5 5 Z 2.e.+.$.w.w.$.k 4 3 4 7 > = - ",
"7 < 5 6 < % = 8 5 3 < 6 Z Z x w 5 7 w Z Z x w 6 3 3 5 5 3 3 5 7 3 5 5 5 5 5 5 5 5 6 5 < w e.t.{ $.w.w.( 7 3 3 3 7 > = - ",
"5 5 < < 7 Z K w - * - 7 Z Z x Z s x x s s s 6 5 5 3 5 6 < % = 5 5 > 1 6 5 5 6 5 5 5 5 5 6 x  .e.y.S < = > 4 4 4 < > = - ",
"k 6 5 < < 7 h Z ' Z h h x 6 6 x x Z Z Z Z Z w 7 5 3 3 7 5 < < 7 5 1 5 5 < < 5 5 1 5 5 5 5 5 7 6 5 < > > 4 7 7 4 7 4 3 4 ",
"< < 5 k Z x 8 8 : < 7 h Z w x I 6 w s s s s 6 3 5 3 3 5 7 7 5 7 1 5 2 2 u k 6 7 5 5 6 6 7 5 1 1 > < 4 5 5 5 5 < 5 < 3 5 ",
"N < > < 5 < = * < 5 8 W K s w w 6 w s s x s 6 5 5 5 5 3 5 7 7 3 < 6 < = < < < 5 1 1 2 2 2 1 2 2 2 5 6 7 2 < 1 < 5 3 1 5 ",
"> - * $ X o - h W K h w w 6 w x I ' { { { { Q x 3 7 7 3 3 5 5 < 2 5 * X . X o = ; , > < < 2 5 7 7 7 2 2 2 5 7 6 u 7 5 5 ",
"* o   $ 6 { W 8 8 8 8 h Q { +.-.-.2.8.2.8.8.2.+.< 5 7 5 3 5 5 7 1 = o o $ $ o o o o $ & - > < < 2 2 2 7 7 7 2 1 < ; = = ",
"$ < I { Z w s h 8 W >.s.p.t.e.2.2.8.8.2.2.8.2.*.3 3 3 5 5 5 5 7 = o # < G x < $ o o o o o o # # , , < < < , = = $ o o o ",
"{ N 5 < 5 Z Z 8 6 W -.2.+.+.-.2.2.2.2.-.-.2.2.*.5 3 < 5 5 5 5 5 $ o , G x u G ` { x < & # o o o o o $ $ $ # # # o o o o ",
"7 5 3 3 3 7 w s 7 +.t.2.2.-.-.e.$.w.$.+.w.2.+.t.' - 5 6 < 6 6 $ o 5 6 1 6 5 < 7 6 x _  ._ u < * $ @ . X @ @ o $ X $ > 6 ",
"5 5 5 7 7 7 5 5 6 $.e.-.2.2.-.2.+.$.,.,.w.$.+.e.7.- < 6 5 6 = o ; 7 7 < 5 5 5 6 5 1 1 5 6 m _ { u 6 < & $ o o & 6 s m K ",
"5 5 5 7 7 7 5 3 Z -.2.+.2.2.-.$.+.) 2.w.2.$.e.2.u $ < u 5 : o = u 6 5 1 5 5 5 5 6 5 1 < < 5 7 6 I { ' I m 6 6 K u 6 7 5 ",
"7 5 3 3 5 7 7 7 +.e.2.{ -.2.-.-.2.) 2.2.+.y.p.I $ o 7 6 ; o   6 s 5 1 5 5 5 5 < 1 1 5 7 7 5 1 < < 1 1 7 K K u u 1 < < < ",
"6 5 3 3 3 7 7 5 2.p.2.{ -.2.-.-.2.$.2.$.$.s.-.- $ ; x : & & o ; 7 < 1 7 5 5 7 5 u 6 6 6 u s s s u 6 < : < < < < 7 5 3 4 ",
"6 7 4 4 5 5 3 < Q 2.2.+.-.2.-.-.$.2.w.2.$.$.5 O < s 5 $ = m <   < 5 5 1 1 5 u m I I K K m m u 6 7 m x 6 6 7 5 6 7 5 < < ",
"7 3 < < 3 5 3 < < I -.-.e.2.-.2.2.2.2.w.$.5 = = 7 7 * = 7 _ u o = 5 7 1 7 u u I 7 6 x I _ _ m u $ - 5 5 6 7 3 4 7 4 4 3 ",
"7 3 > - > 3 5 5 % 7 +.2.e.e.-.2.t.2.$.w.Q = % w 6 ; $ x _ < 7 1 $ 5 7 1 x m 7 x K x x x x x u u 3 6 7 7 x Z 7 3 3 3 4 4 ",
"6 < - - > < 5 7 6 < < Q t.-.Q Q x w 3 - * - 3 6 - < 6 6 5 < 5 6 @ ; 5 7 6 K I u u x u u s m K m Z Z Z x x x w 7 4 3 3 4 ",
"6 < - - < < 5 5 6 < - < > = % * * * % * > 3 5 3 < 5 6 6 7 5 5 7 = ; < 6 x x x x u x x s x m m x 6 x Z x x w 7 3 4 4 4 4 ",
"6 3 > < 3 5 5 7 5 3 < < < < < 7 5 5 5 5 7 7 3 - 6 7 7 7 7 7 5 3 5 ; ; 6 K u 6 m u x x s x m x 6 5 6 x s 6 6 7 5 5 5 4 4 ",
"6 5 < 3 7 7 7 7 5 7 6 7 5 7 7 7 < 7 6 5 3 3 5 7 w 6 5 5 5 7 5 5 s > ; 5 m s 6 x u x x x x x 6 1 1 6 u 6 5 5 5 7 5 5 5 4 ",
"6 5 3 5 7 7 5 7 3 7 7 5 3 5 3 > < 5 5 1 < 5 w x 7 5 5 5 3 5 5 7 6 < > 1 u m x u x x x s x u 5 < < 7 s 6 5 1 1 5 1 5 5 5 ",
"7 3 3 5 5 5 3 5 3 3 3 3 5 6 6 7 s 6 7 5 6 u 6 5 3 5 5 5 3 < 3 5 5 5 1 < 7 u x u x x x u x s 5 < < 7 m x 7 < < : < 1 5 7 ",
"7 3 3 5 5 3 3 5 6 7 3 3 < < < < < < < < 5 6 7 3 4 5 5 5 3 < < < < 5 5 5 1 5 6 u x x u x m m u 1 1 u s 6 5 < : - : < 5 6 ",
"6 5 5 7 7 5 5 7 3 < 3 7 7 3 5 7 5 6 6 5 < < 4 7 5 7 7 7 5 < > - < 5 6 6 < < 5 x u u u x I _ m 7 u u 6 1 > ; : ; - < 5 6 ",
"u < < 6 6 7 5 1 7 5 1 5 5 5 5 7 6 7 5 3 3 5 5 5 7 < > < 5 5 < < 5 3 < 7 x 5 < 7 5 5 7 7 7 6 6 7 6 5 < < > > ; = > < 5 5 ",
"6 5 6 K _ ' ' x 6 7 5 5 5 5 1 < < 3 3 3 3 5 5 5 < - - > 3 7 5 3 5 7 4 5 7 3 < 5 < 3 5 5 5 3 < < < 5 6 7 < ; : < < 1 5 7 ",
"5 6 I 8.t.p.8.I 5 5 5 7 7 7 7 5 - < < 5 5 3 5 5 > = = > 3 5 5 5 3 7 5 3 5 3 3 6 x x Z I I x w 6 5 3 1 5 5 5 5 1 1 5 5 7 ",
"< 6 { e.t.t.{ 5 < 1 5 5 7 7 7 5 - < 3 5 5 3 3 5 < > - < 3 3 3 3 < 5 4 3 w I I { 2.e.e.e.e.2.-.+.-.Z 5 < 5 6 7 1 7 5 5 5 ",
"x I -.e.2.2.{ 7 7 7 5 5 5 3 < > < 5 7 7 3 3 5 5 5 < < 3 3 3 3 3 5 7 3 7 { t.t.e.e.e.2.2.2.2.2.2.p.2.I 7 < < 1 7 7 5 5 3 ",
"3 < < < > < < - 5 5 5 5 5 5 < < 7 7 7 5 3 3 5 5 5 3 3 5 5 3 3 5 5 3 < 6 -.t.e.2.-.-.-.+.+.-.-.2.e.Q 6 1 1 7 7 7 5 5 3 5 ",
"w 3 5 5 < 3 7 7 3 3 3 3 5 7 7 7 5 5 5 5 5 5 5 5 5 3 3 5 5 3 5 7 5 3 < w 2.e.+.-.2.2.2.2.2.2.2.2.2.w ; = < 6 u 5 5 5 3 3 ",
"7 < < 6 5 < 3 3 7 5 5 5 5 7 7 5 3 3 3 5 5 5 5 3 3 3 3 5 3 < 3 7 7 5 7 Q t.e.-.e.-.2.2.e.2.2.-.-.e.I < & & - 1 7 5 5 3 5 ",
"6 < < 5 6 5 < 5 < 6 6 3 < 5 7 5 7 7 5 < 7 x u 1 5 5 5 5 7 7 7 5 u < 1  .p.7. .t.-.e.e.e.8.7.7.7.{ 5 < 7 < $ $ = 5 5 3 3 ",
"6 5 < 3 5 < < 5 w > - 3 w 5 3 5 u > ; 7 x 7 < < 7 5 1 1 5 5 7 5 : 6 _  .-.8.e.-.-.-.-.*.*.-.8.t.Z 3 < 1 7 < - = $ - 5 w ",
"7 5 5 5 5 5 5 5 < 6 6 7 1 1 7 6 = > 5 7 5 5 5 5 1 5 5 6 6 6 5 1 s < 5 e.d.*.' e.e.7.-.-.8.t.t.t.< < < < 7 u 5 ; $ $ $ * ",
"1 5 7 7 5 7 5 5 6 x u 6 s K 1 $ * 5 x 7 1 7 6 5 5 5 5 6 u u 6 5 7 5 1 u  .p.y.7.e.e.7.7.e.e.7.7.* < 6 5 5 5 6 5 s > o   ",
"- > < 5 7 7 7 7 m 7 u _ s ; $ & _ 5 > 7 s 5 ; - u 7 1 < < 5 6 6 < 5 7 5 7 I e.p.-.7.e.8.{ 7 = o - < 7 7 5 1 7 u 6 6 5 > ",
"$ @ $ ; 1 7 u K u _ _ 1 $ o ; I K 6 < 1 5 1 : = 7 5 5 5 5 1 < > m 5 < 7 5 < 5 { -.x : $ o $ = > 6 3 < 5 6 5 5 5 < 5 w Z ",
"= + o $ = ; 2 _ m p = o $ 7 _ K < x K 5 < 5 5 < < 1 5 6 6 5 < - < s u > < 6 7 = X @ * > 1 5 5 5 6 5 1 5 6 7 1 < 5 < < < ",
"_ : o o o o & 1 = o   & p K m u x u x I x 5 1 7 6 5 < < < 5 6 6 o = 7 s 6 1 5 7 1 5 6 6 7 5 5 5 < 5 6 7 1 < < < : < 5 5 ",
"1 { K * o o o o o o = x I s u m m 6 6 x Z w 5 < 5 < 5 3 > 3 6 < s & $ 1 m 5 > 5 u < < 5 5 7 7 1 5 3 7 5 < 7 5 $ = - < 5 ",
"6 1 1 u 5 $ o * $ ; 7 x m x u x w x Z Z w 7 6 x 3 < < 3 < 3 7 5 5 5 = o * u K 5 < < 5 6 5 1 5 5 w < 3 7 5 6 6 < > < 3 5 ",
"5 < 1 u x < * @ = m _ u x K x s x 6 6 Z { +.+.+.I x 7 5 7 3 < 5 1 u 7 * @ = 5 x 5 5 5 5 1 1 5 5 < < 7 3 = % < 7 3 4 5 7 ",
"1 u 6 > 5 _ 5   ; ' _ 7 x I s m K 6 6 I e.p.e.-.2.e.Z 3 7 5 < 5 5 5 u u : o $ < u u 5 < 1 7 5 1 3 6 x 5 = = < 7 5 5 5 5 ",
"u 5 < < 7 _ 5 X > m x 6 I I 6 x 6 x { -.2.+.+.-.2.t.Z < 3 6 7 7 5 1 1 5 7 < $   : 7 5 < 5 7 7 6 x < - 3 w 7 < < 5 5 3 3 ",
"6 < < 5 6 ' u $ 5 m s 6 K x 6 x 6 w I -.2.2.-.2.2.2.Z < 3 6 7 5 6 5 < 1 6 6 : o   < s 5 7 7 7 _ x = $ 5 I > $ - 7 5 3 3 ",
"7 1 7 7 7  .' = 7 x m 6 6 6 s x x 6 7 Z { -.2.2.-.x 7 7 5 3 3 < 6 5 5 6 6 5 > ; X 5 m 7 6 u 6 I x 7 5 Z I < = 7 6 7 5 5 ",
"m < 5 6 5 x I 5 5 s m 7 < 6 I x w w w 6 5 5 x -.w * = 7 3 - > < < 5 5 < 5 7 : o = m s < u m 7 6 6 Q x 7 Z I w w w 6 7 7 ",
"6 3 3 7 5 6 Z I x x w 5 < 3 w Z Z w 7 5 5 3 < > < 5 7 3 > - - < < 6 7 < u x * o I 6 < 7 x K x 6 s w w w w w s Z w w w w ",
"6 3 5 5 5 7 w w 7 6 7 < > < 7 w 6 5 3 3 5 5 3 < 3 5 5 4 < > < < 5 5 5 < 6 5 & - m 7 < 5 x x x u s s s w 7 5 7 w x x x x ",
"w 3 3 7 3 5 7 5 3 5 5 < - > 3 5 5 3 < 3 5 7 5 3 3 5 5 3 < < < < 7 < 1 5 7 ; * s u 5 1 5 u x x x w x Z s 7 3 5 w x x x x ",
"6 3 5 7 3 3 5 3 3 5 5 < > < 3 3 5 3 3 3 5 5 3 3 5 3 3 3 3 3 3 3 7 < 5 5 5 = *  .7 5 5 5 6 u x m w w x x w 6 w Z s s s s "
};
