/* XPM */
static char *a489ed4d025342a88b1d8ec8fd5f5855[] = {
/* columns rows colors chars-per-pixel */
"60 60 190 2 ",
"   c #070200",
".  c #0F0704",
"X  c #110904",
"o  c #1C0F07",
"O  c #150F09",
"+  c #190E09",
"@  c #141007",
"#  c #16110E",
"$  c #1B130D",
"%  c #1E1512",
"&  c #1E1914",
"*  c #1A1A18",
"=  c #20150F",
"-  c #211711",
";  c #241B14",
":  c #2A1D16",
">  c #261D19",
",  c #291F18",
"<  c #2A2017",
"1  c #26211B",
"2  c #2C231C",
"3  c #31261D",
"4  c #32281F",
"5  c #2C2521",
"6  c #2E2924",
"7  c #2C2A2A",
"8  c #312721",
"9  c #342B24",
"0  c #392D25",
"q  c #352D29",
"w  c #392F29",
"e  c #363024",
"r  c #3B3127",
"t  c #36302C",
"y  c #3C332C",
"u  c #353130",
"i  c #3D3531",
"p  c #3F3833",
"a  c #42362D",
"s  c #43382F",
"d  c #4C3C2F",
"f  c #423731",
"g  c #453A33",
"h  c #4A3D35",
"j  c #453D39",
"k  c #4A3F39",
"l  c #503F35",
"z  c #503F38",
"x  c #474036",
"c  c #4B4037",
"v  c #43413D",
"b  c #4D423B",
"n  c #514137",
"m  c #52443C",
"M  c #59473B",
"N  c #54483F",
"B  c #5B4A3D",
"V  c #4D4540",
"C  c #4F4843",
"Z  c #524641",
"A  c #554A42",
"S  c #5A4D44",
"D  c #554E49",
"F  c #5B4E48",
"G  c #5C5046",
"H  c #57514C",
"J  c #5D524B",
"K  c #5C5651",
"L  c #5D5953",
"P  c #604F45",
"I  c #615146",
"U  c #62554C",
"Y  c #68574D",
"T  c #65584E",
"R  c #6A5B4F",
"E  c #645750",
"W  c #685750",
"Q  c #655A53",
"!  c #6B5D54",
"~  c #645D5A",
"^  c #6B5E58",
"/  c #705F56",
"(  c #705E59",
")  c #69604F",
"_  c #6D6156",
"`  c #66615B",
"'  c #6D625A",
"]  c #726256",
"[  c #73655B",
"{  c #79675B",
"}  c #76695E",
"|  c #75695E",
" . c #786A5F",
".. c #7C6C5F",
"X. c #796A5E",
"o. c #7D705F",
"O. c #6D6562",
"+. c #6C6867",
"@. c #6E6965",
"#. c #676B6E",
"$. c #766760",
"%. c #736761",
"&. c #736A63",
"*. c #756860",
"=. c #766962",
"-. c #766D63",
";. c #776D64",
":. c #766D67",
">. c #766A62",
",. c #796B60",
"<. c #7B6F63",
"1. c #7D6D62",
"2. c #7B6D64",
"3. c #796F66",
"4. c #7B6D63",
"5. c #736F6A",
"6. c #7C6F68",
"7. c #7F7266",
"8. c #7D7165",
"9. c #76726F",
"0. c #7E7269",
"q. c #7C736C",
"w. c #7D726A",
"e. c #777370",
"r. c #7B7370",
"t. c #7A7571",
"y. c #7D7A75",
"u. c #806F63",
"i. c #806F68",
"p. c #847264",
"a. c #817464",
"s. c #817366",
"d. c #887567",
"f. c #81736A",
"g. c #817269",
"h. c #83776B",
"j. c #82756A",
"k. c #86786F",
"l. c #85796D",
"z. c #897A6E",
"x. c #807770",
"c. c #857A71",
"v. c #887C70",
"b. c #8A7D73",
"n. c #827D7A",
"m. c #887F78",
"M. c #8B8682",
"N. c #8F8E8C",
"B. c #918E89",
"V. c #948F89",
"C. c #948F8A",
"Z. c #92918F",
"A. c #98908D",
"S. c gray57",
"D. c #9C9696",
"F. c #9F9A96",
"G. c #9A9B99",
"H. c #9D9998",
"J. c #A49C99",
"K. c #A4A09D",
"L. c #A5A1A0",
"P. c #AFA9A9",
"I. c #B3AFAC",
"U. c #B5B1AE",
"Y. c #B5B4B2",
"T. c #B8B7B3",
"R. c #BEBAB6",
"E. c #BFBDBB",
"W. c #C0BCBB",
"Q. c #C6C2BF",
"!. c #C4C0BD",
"~. c #C5C4C3",
"^. c #C8C3C0",
"/. c #CCC8C5",
"(. c #CAC9C7",
"). c #D3CFCD",
"_. c #D6D2CF",
"`. c #D6D2D1",
"'. c #DDDCDA",
"]. c #E0DBD8",
"[. c #E2E1DF",
"{. c #E4E3E2",
"}. c #EBE7E4",
"|. c #ECE8E5",
" X c #F0ECE9",
".X c #F6F5F3",
"XX c #F8F3F0",
"oX c #FFFAF6",
"OX c #F8FCFD",
"+X c #FEFDFD",
/* pixels */
"B.B.V.i K H b A S A J ~ ' U U G S Q C /.Q.j ' R _ Q U A j 5 & v c A j 9 q q f r.G.* v ` t A J Q U T m 2 9 J c r 5 D G.OX",
"A ' < r q.[ N m U >.G y :.' ! } ( U ~ ~ D :.f.Y U ] >.>.Q ; g ` 4.v.-.g y A q.f   6 C ^ 2.0.2.| ] T ' &.A r r J ] 1.b A ",
"J -.[ 3 I d.M B ] I c f._ _ [ R N b ^ 0 U f.Q g g m A ! $.S f ' s.} ,.Q U J a 9 G ' [ G c S [ U S A h N 8.' x s A b D q ",
"b b r r ] ..1.p.1.n Q ' N k S A k h g I [ I h k b b S f.| [ g a R f.! [ U 2 a ] 2.' G a A ] ! ] ,.7._ k g b S A 9 b 1 @.",
":.2 2 b U ] [ ! ! ! a k k j h h V y a } m s x j y b ! 7.f.} m 9 S U Q U g h U ] ! [ [ Y W ! >.^ | f.k.[ I J ' ! r 0 y A ",
"J 2 2 b c A Q ' A c 9 y V g i y 8 0 8 _ A _ J J J m } f.7.| Q 2 h k k f 8 k F W Y Q Q [ >.Q U Z N Q [ _ [ | U h $ & p q ",
"A q.9 f b k g h g b f : y w A S S J N g | ] ! ] ! ,.! 8.} ' -.a + 8 9 $ y k A W Q S A S S k g m k h I Q S N f 2 6 D K t ",
"T 2.U 3 h g h k k g m ; m ] | z.1.] [ a F ' [ ] ( Q I M l I E q 0 J ' b ; f h Q I ! N h h A Q [ Z h g k h g 9 j R { v.I ",
"J w.N J 0 j k k k j 6 y ' ( | f.1.! } k f U Q S b h g b g f p # h ,.z.S 0 2 > 5 y J m h k ! [ I h g b j t # 2 c g m [ } ",
"A ' A ! N 0 k k a r ; b 6.! 1.8.4.[ ] U 8 0 f m g A g : 4 > % & 0 Q c.U m A m q , w c b b ! Q s k b 9 w J Q r j b h k J ",
"J ^ ' ,.k.A 9 > 0 J g c ! ! { { ' Q ' E k w ; 2 0 < o A 0.g f c b j 8.} ! | { S H 2 ; y y A k r 2 # J 6._ b.' 8 f m k i ",
"E g Q 4.| 2.Q > 4.U J k ' ] _ S h b c g r , x G h b [ 0.[ w J c ' J ' ! ] ! N m 0 y A c y - f J V 2 } S n [ %.w ; f w @.",
"q j m S ! ! Q V S f.6.a g Q S b k k h 2 9 ' b.2.>.0.' [ N m ' 9 U [ R ' I x f > k >.v.b.U b J ^ ' a [ ! ] Q b 8 5 k # y.",
"C c h a m g m J x >.| S < y c h k m r 9 S J ] ( [ Y ' U w 7.f.0 d Y [ ! A y ; j S ] ' ! N b ] _ ' 4 a Q S m r f %.w.J :.",
"L 0 h c k k b f 4 S A h 8 @ 0 y f g w # k k k P S A a 0 [ k.7.m 9 m b A 9 - y c g S h a 2 9 m b m b < 0 b c 0 k N A Q m ",
"J f a b g h m 8 ; Z f A 6 q y 9 5 q 5 ; 2 g c h h h : b ' ,. ._ q i b 8 8 ' k.>.5 8 i k J r a b l a < > q ; y c M U S m ",
"V J < h b V f > ; y g w 9 J R S U T ! < 2 x 9 h f ; g h m Q J G V 9 8 9 f 9 g J 8 h } s.k.[ y j 0 j ' Q m b f 8 N ' ' 6 ",
"9 j ; ; 0 9 3 h j - 8 w Q k.,.f.} h.T 9 ~ 0.A a y i 0 f b h g g c f 8 A b k g 8 A 0.b.7.} ! c : A ] f.k.f.0.2.S 0 f q M.",
"5.< y g g b J ! c 3 A { z.{ ! ! [ b 2 b 3.c.:.>.&.' E - 9 Z k b b 0 - 9 r g y y N 6.U m m a f D | A G U  .f.6.k.' 0 A.+X",
"F.8 ~ } [ | ] { i f S  . .U ! E 0 2 g 0 y f 8 a 0 ; 9 r 2 0 9 9 8 b ' Q 9 8 g r k J m g h h g g b h k k m A U ! ' E L [.",
"~ g 7.f.>.U S ] j i Z b A A q & g J A g < # r J N _ J g A f m A f q.2.' S ' _ < S J k h k b f 0 g y 9 0 9 0 y y b y 5 W.",
"A >.7.f.] g g G ~ 2 g c w ; t J | >.| k g j b h.k.k.| I J ! ! ,.y Z ' [ ! ] ' 0 h >.J h h c y < 8 g E D 2 w 8 3 : h D Q.",
"' 0.s.v.A f m a [ w ; 5 2 2 ' f.f.>.J 3 ' m g ,.6.7.} ] d.6.s.} J 2 b A ] J w 9 ,.s.! Q S b r y T _ >.h.k g m h S [ ' t.",
"9 Q .._ k b k h U J 0 V b 3 m d. .! 0 g U J r I  .6. .s.d.1.d...~ q h m g a 2 g 4.d. .! >.' y ~ p.8.d.4.r I ! I s.f.[ ' ",
"#.u F m b h g h U ^ r h S m 2 H L 8 < b A ' 3 b ~ ! _ ! ] } 0.[ ' > q i 2 m b k ! ' | E J r 2 ' 7.4.8.N m 6.i.f.1.[ D ~.",
"Z.y g b g g b N ! ^ 2 m | | b $ ; x 2 h c >.m 8 b m k k h k m I J 2 % f ! 2.m f m N h Z 8 X w U Q Q A 8 A ! [ [ ! b @.+X",
"J 8 3 m j c b h Z 0 3 h f.,.Q e A 8.g g Z ~ ~ 8 w b h k m k m g S 8 y x.h._ S 9 h h f $ 2 c 9 A Z 9 9 $ r x S G c f j {.",
"! ,.k 8 b j k h 2 , A ,.1.4.N x k.b.m ; b c k y 2 j b g b g k g b 0 E [ [ | h 2 b 0 q > j ~ f a 0 b Q ~ r c x g a r t e.",
"S ! ! Z 5 j y : a ^ ' h.f.U h 2.f.2.U ; 9 b c m 2 . y V g b Z h b y J Q Y M g r , ; ~ A ~ ' 2 a R f.,.w.g < y q a Q ' b ",
"J A k S > X 8 k c m F ! U s ! k.} U G > ; ; 8 8 b r O ; 0 8 < 4 ; $ b k g k b p 3 T h.y F F r ' 8.s.f.-.f - k F  ._ [ S ",
"N.q b 9 0 r f f k h g b r A >.( N b a 8 b y s S ' 2.j r A f g a h < 9 b k h b 1 T f.2.g g a b [ | | | Q j 2.h.c.f.2.A m.",
"+XH : r h b f y 0 g m m 0 r J m b y 8 b f J [ } 6.} ' y Q J A N b ' b 9 k g ; p z.u.f.A 0 r b G A A Z r U s.8.o.U h 2 b ",
"P.p a S ! U Z b f 0 9 f > 2 j 9 q < A A a Y _ s.s.8.-.x G c.[ ] ^ ' ,.Z > k E r S  .7.' 0 2 k g j h a r >.2.[ A 8 9 U S ",
"i b _ 1.s.1.Q Q S A y y J f 0 g $ i ' S g N 4.4.p.s.[ U J 0.f.u.N m Q Y h 6.' r m ! f.k.! 4 y b b b 2 b U U b 2 g ' 7.0.",
"A [ 7.d.s.[ ] ] } J b -.v.} }  .9 f &.A f N ] ! { 6.! Y h Q ] Y h k m k A ! A r J ' 2.f.7.,.k r a 9 2 r f y 9 g Q ' f.! ",
"k b k.7.s.! S U Q x b ,.2.! U ( Z 9 ! m b k Y ] ! ! | F , A I m k c w g J j r y h A G Q [ >.4.I a G Q b 9 # 0 b U U I ! ",
"].t A _ ] A f A 5 > b A F m k | ' f : m h k k S S m %.A + 8 x j v i ; f Z Z q ; Z g g s m S A k I b.' ' &.j - f a c A U ",
"L.6 r J A g g ; % 5 f b g a A Q E ' j , g f g h y s r 0 j y < 0 5 & > f j q # 2 0 Z g m h h k g Q A b A h y 2 h c r a A ",
"v C g r 0 r b f 5 b q f k b m j a 2 2 , 8 0 2 < 0 4 y b m g h g O c J 2 3 0 r J 0 8 a y j w 0 y A h r w k U k.f.,.! y J.",
"b f _ T I 6.f.4.y A E y 9 9 2 2 = f j k ' ' 2 j k k k g g k z k 9 ! [ R T [ S A ^ g 0 w 8 y q 5 0 w A Q 7.s.} ] Y J V ).",
"~.y h ! s.h.o.p.b s ) s.Q S b r y c h Y 0.Q 2 b m N S U I | S g 0 U 4.f.[ | S x 0.S m I U Q b y f b J A b Z Z b b y i E.",
"S.1 h N U >.>.T q m s.s.6.[ &.c y A U } 4.0.y w Z 7.4.8.k.f.] A a b W | Q [ x ' 7.,.R { d.4.U w y 2 a g g g r 0 r 9 O.}.",
"7 > w k b J Z ; y A { ] Q Z A E 8 S [ } ! ,.^ 8 A 2.f.f.4.} | ! y j g b A k A h.} ] ] 1.s.| j r [ b a r ; 2 0 g A ~ K ~ ",
"7 5 , r g j q > w g h c b c c 9 r J [ 4.] S ! S h J j b J ' ^ b 8 D b b g 3 ' h.>.! T 7.7.&.j y A >.Q ' h r y 0 0 g r C ",
"v 8 ! m g y x q.A 9 A h r 0 0 O r U ] Q J N a ! m ; 0 r 4 y y ; ; 2 8 w 2 0 ! | Q g J [ E A 5 i m m ' Q f ' | ' S 8 2 6 ",
"K 0 _ z.m < ' l.:.y 2 0 c G A i 2 b I k g m g b x h -.Q g 2 b ' Q g y f y r m m g h A J g # ; $ : w 0 2 A -.h.f.6.Q 9 q ",
"T.j h _ 2.Q h 7.-.b + F } _ } [ h y h b b g b f 9 ! :._ g 3 >.2.>.! ! ! ' y f k b b g 9 r A ! T m h s 8 h Q _ | ! Q p R.",
"~.9 g m Y ] m Y N a Q $.! p.1.] ' m f b b b w f [ k.,.I h a 4 b Q [ ! ' 2.A 0 b c g a U } v.8.h.6.T &.J 9 m n M N 0 j |.",
"c Q r a G [ h Q S g T _ [ f.s.s.{ _ 8 t 7 & 8 S ' [ S h U b N 0 g Q ( 1.d.} N ; t # y ' ' ,. .u.{ ! | ] f w j g 9 9 H .X",
"f U r a J Q w ' ;.Q y G Q _ 7.7.{ T 0 2 t ; 2 m g A r m S h g G y h ! ] f.h.~ ; > 9 0 h m Y ] ! ! | W ^ %.3 0 0 a J K ).",
"q j 8 h ! a 9 m b E , $ x A S Q Q g y J _ ' y f b y h N J h g m Z w m ! 4.[ j 5 k ~ g 3 b a h I I h A ' Z 3 m A S >.J V.",
"5.2 $ f 3 3 s a j 8 b J 9 g k h b 9 U | Q >.' ; y m y g Q b c m Q r f A h 0 < D | f.[ 8 2 Z b g g k g b 2 a ! >. .f.E D ",
"V.< c N ' >.U Q b 2 D J y ; f k p 2 ] P U | m b J j f 3 Y ' S A V < 3 2 3 9 y g A 2.! E < 2 g b b b b < 0 ! >.,.1.6.J 2 ",
"y c A 8.0.A g b %.f j f J &.h 9 O r ' h S ] f w.6.[ [ s g b b c 0 k j s m Q b a m ! ' A J J w 3 w f 8 f ! | k.f.s.! g y ",
"b h I ' ] Q _ ! ' J 3 y 8.2.h.W N 3 ! m J ! c >.T m Q S < b c y h ! b A [ l.y y N m b < A ' 2.Q y , < E _ [ j.1.>.g 2 j ",
"a b m S Y ,.f.k.7.! 0 r T [ ' [ [ A U J Z J j A h g g S b 8 2 ; F [ Q ] h.2.0 k g Z 0 2 c j m S ` J ; 8 S I Y ] ' 8 y C ",
"j i h g m N ! 1.| A ; g b Y Q U A 8 0 Q g h & j k k k k g 2 y 8 h A A _ { T 0 c b y , A f m h h s S m 9 b b a k m y & Y.",
"}.~ 0 h b a A m 3 2 i i 9 a b b t ' A j m r ` q g b k c w F A 9 c g k s g b s 5 p j Z 8 Z k m b m g y 2 b k b m k h p {.",
"+X+X~ 0 k Z f c @.y D i j g f f i oXR.; 0 6  X(.5 g j ; t Q b 2 g f r Z h b y ~ i U.XX@.i w r 0 9 i ~ n.6 y j g h g t ~.",
"OX+X.Xj i y 2 I.oX~ V 9.+X^.D p ~.+X+X_.K.~.OX+X).5 L U.F.t j 9.b ~ ~ 2 a ; 9.+X{.+X+XoX`.H.n.t.D.).+XoXE.9.V y a j b '."
};
