/* XPM */
static char *fcf8ec11b50844beffc93a29301cd393ffi5n6rRc0DckjqF[] = {
/* columns rows colors chars-per-pixel */
"60 60 217 2 ",
"   c #250C0D",
".  c #2B0D0D",
"X  c #3D0B07",
"o  c #330D0C",
"O  c #3C0E0B",
"+  c #370903",
"@  c #2F100D",
"#  c #34120D",
"$  c #3C120E",
"%  c #39190F",
"&  c #270F10",
"*  c #2C0F10",
"=  c #271011",
"-  c #2C1111",
";  c #351413",
":  c #3C1412",
">  c #3D1A15",
",  c #3E1D19",
"<  c #36231B",
"1  c #430A07",
"2  c #490C06",
"3  c #420E0B",
"4  c #4E0F0C",
"5  c #43130D",
"6  c #4B150D",
"7  c #4B190F",
"8  c #451409",
"9  c #531205",
"0  c #5D1407",
"q  c #52150C",
"w  c #531B0E",
"e  c #5B1B0C",
"r  c #441612",
"t  c #4A1611",
"y  c #441914",
"u  c #4C1B14",
"i  c #461E1B",
"p  c #4B1D19",
"a  c #521611",
"s  c #541C13",
"d  c #591E15",
"f  c #531E19",
"g  c #5B1F19",
"h  c #6D1B05",
"j  c #63170C",
"k  c #621D0C",
"l  c #651605",
"z  c #621F13",
"x  c #6A1E15",
"c  c #4B210D",
"v  c #4C2116",
"b  c #4C211B",
"n  c #42231C",
"m  c #562116",
"M  c #5A2117",
"N  c #55211A",
"B  c #5B221A",
"V  c #5D2819",
"C  c #6A230F",
"Z  c #72210A",
"A  c #632315",
"S  c #6A2313",
"D  c #6F2916",
"F  c #63251B",
"G  c #6B261C",
"H  c #6C2B1B",
"J  c #622816",
"K  c #722715",
"L  c #742916",
"P  c #7C2A16",
"I  c #71271A",
"U  c #722C1C",
"Y  c #7A2D1C",
"T  c #7D311D",
"R  c #76321E",
"E  c #482121",
"W  c #562522",
"Q  c #5C2522",
"!  c #572821",
"~  c #5A2A23",
"^  c #602625",
"/  c #622923",
"(  c #6B2C22",
")  c #732E22",
"_  c #792F21",
"`  c #683127",
"'  c #6A352D",
"]  c #733223",
"[  c #7B3424",
"{  c #7C392A",
"}  c #74382C",
"|  c #783A31",
" . c #822C15",
".. c #8A2E16",
"X. c #822E1A",
"o. c #8D2B14",
"O. c #8B3215",
"+. c #83321C",
"@. c #8B351B",
"#. c #8B381D",
"$. c #91361D",
"%. c #92391D",
"&. c #823523",
"*. c #893523",
"=. c #863A25",
"-. c #8B3924",
";. c #813728",
":. c #833B2A",
">. c #8C3D2A",
",. c #933B24",
"<. c #9B3D22",
"1. c #923E2A",
"2. c #9C3D29",
"3. c #863F32",
"4. c #A23E23",
"5. c #9F401E",
"6. c #974025",
"7. c #9B4226",
"8. c #94422B",
"9. c #9C442C",
"0. c #9F482E",
"q. c #834233",
"w. c #8C4632",
"e. c #8F4B38",
"r. c #954531",
"t. c #974933",
"y. c #9B4932",
"u. c #9A4A36",
"i. c #9D523F",
"p. c #A44224",
"a. c #AB4525",
"s. c #AB4826",
"d. c #A44529",
"f. c #A6492B",
"g. c #AC4A2C",
"h. c #AD4629",
"j. c #B24623",
"k. c #B44825",
"l. c #B94B27",
"z. c #B34C2C",
"x. c #BA4D29",
"c. c #B4512F",
"v. c #BC522E",
"b. c #A24C34",
"n. c #A94D33",
"m. c #A64F39",
"M. c #B44E32",
"N. c #B84F32",
"B. c #A55036",
"V. c #AD5133",
"C. c #A5513C",
"Z. c #A85038",
"A. c #B45235",
"S. c #BB5333",
"D. c #B25539",
"F. c #BC563A",
"G. c #BE593A",
"H. c #B85839",
"J. c #C54F2C",
"K. c #C2532E",
"L. c #CB552D",
"P. c #C6552A",
"I. c #D2572D",
"U. c #DC5B2E",
"Y. c #C35533",
"T. c #CA5632",
"R. c #C55936",
"E. c #CC5B34",
"W. c #C45B3B",
"Q. c #CA5E3E",
"!. c #D35C35",
"~. c #DB5E32",
"^. c #D25E3A",
"/. c #D85F39",
"(. c #E25E33",
"). c #CC623E",
"_. c #D66236",
"`. c #DC6335",
"'. c #D4623C",
"]. c #DC6538",
"[. c #DC643A",
"{. c #DD6D3F",
"}. c #E46336",
"|. c #EB6536",
" X c #E46B37",
".X c #EE6936",
"XX c #E2663B",
"oX c #EB6639",
"OX c #E36A3C",
"+X c #EC6A3C",
"@X c #F26734",
"#X c #F36A36",
"$X c #F86A37",
"%X c #F36739",
"&X c #F36A3A",
"*X c #A75340",
"=X c #AC5C45",
"-X c #BC5B42",
";X c #B7644C",
":X c #BC6A53",
">X c #C56343",
",X c #CC6342",
"<X c #CD6846",
"1X c #C96B4D",
"2X c #D36542",
"3X c #DB6641",
"4X c #DB6A42",
"5X c #D66E48",
"6X c #D8704B",
"7X c #D16E52",
"8X c #E46A42",
"9X c #EB6C41",
"0X c #E66E48",
"qX c #E76A49",
"wX c #F06F40",
"eX c #F6644A",
"rX c #EA7045",
/* pixels */
"> < n p b ) F.rXqXv N W Q ^ ^ ^ ^ ^ ^ ^ ^ ^ ^ ^ ^ ^ ^ W b b {.q.B B B B B B V W E ~ G.; B Q Q Q Q Q Q W Q Q ! ! Q W p =X",
"B Q Q B g u : *.+XH t s g B g g g g g g g g g B B B g t : H [.U s B B B B B M m u y L.y w m s s s s d d d d m d d 6 b.-.",
"M B m m B B u 6 L.b.# s m B B B m m m B B m m B B s u 5 [ ).U 8 g B B B B B B B 7 - z.q.u v s s s s s s s s s s t } =.% ",
"B B M M B B s 5 s ].i s m B B m d d m B B m m B u 5 6 n.W.L r s B B B B B B B m 6 @ d.+X=.e 6 6 5 5 3 3 3 5 5 3 U A.t s ",
"B B B B B B m t $ ].' s d d d s s s d B B d d s r A A.d.a 5 m B B B B B B B B d 5 . d.$X+X'.n.6.,.1.1.1.1.1.y.A.'.D y m ",
"B B B B B B B u r ].| s a a a s s s s d s s d s 5 2X7.$ y s m m B B B B B B g 6 $ O K.%XH.k C #.7.n.B.Z.m.b.8.!.+XS p B ",
"B m B B B m m a r ].3.: r 5 5 t a s s s s s s a m 2XB t s s s s s d B B m s t r : ,.[.=.t b N m s a 6 5 5 8 6 [ &Xp.t B ",
"B m B B B M m s 5 [.'.+.p y : # 5 u u u a s s 6 e.2XN m a s a a s s s m s a r : g [.-.5 m m M M M M M m s s s s ~.L.s B ",
"B B B B B M m s $ K.%X&XXX].~.a.a $ $ 5 5 u a 6 i.+XY y s s s s s a a s s 6 : s Y.Y.a m B B M M M M M B m s a 5 1._.s B ",
"B m B B B M m a $ -.&X|.{ { &.>.Y.z.U t $ . o o e.#XXX=.5 t u s a w 6 6 O X s R.&X*.m B B B M M M M M B B s s t G XXg B ",
"B m m m m m d t ; p.%XA m B B s O N b. X}.~.L.P.}..X|.#XK.d r r t N Q ) <.P.%X&X&X=.d m B B B B M M M M M B B s 6 2XU b ",
"d s s s s d s : ] +X;.p B M B B B s : ) ]..X#X#X&XU.~.&X$X$X@XI.a.*.) / B g G a.|.z.a m B B B B M M M M M B B B r { 2X8 ",
"d s s s s s t A OXS.: B B B B B B m s y p z.+X#XOXy # p ! N p y s m B A B B B y F _.U t m B B B M M M M B B B B f : H.R.",
"s s s s s s y <.&XU y B B B m B B m m d u > [ |.L.p m m m m m B B B m B B B F B N Y '.` t m m B M M B M B B B B B b S 0X",
"s s s s s s r g.+Xs s B B B B B B B B B m s $ g. .p m M M B B B B B B B B B V B V u B '.+.5 b s N N p m B B B B B m 6 r.",
"w s s a u y y S.}.u d B B B B B B B B M M s $ 0.a t m m M M B B B B B B B B B V B B p B '.9.q $ $ $ 5 s B m B B m m s q ",
"+ 8 N 5 X 9 %.XX|.s m B B B B B B B B M M s . L.4.: u s s s a p y X 6 s m B B B B B m y q t.:X1X<X2X2Xz s s s s s s s 6 ",
"<Xc...X.S.8X+X|.%X,.y s B m B B B B B B B s . }.L.I s r r r a L ,.S.<.a t s m s m d s s t 5 8 k 8X#X&X'.A a s s s y r A ",
"].G.u.:.&.T D S *.,X7.u u s m B B B B B B s y |.XX2X>X6.z I W.r.A *.W.A.t y s s s s s s s s f 6 4X.XE.n.V.a s a t B ,.3X",
"r 6 5 r y t p p u s ;.T.) 5 s B B B B B m u b z.m s M f.'.OX[ y p y s D.M.O u s s s s s s s u e rX4Xe t H r.# 5 [ OXXXT.",
"d s m m m B B B B B u V '.S u m B B B B B s ~ a., M m a d F u s m m B B Q.,.r s s s a a r B N T +Xn.q B a :.z.<.`.!.F r ",
"A B B B B B B B B B m . Y.d s B B B B B B s | E.r B B g s g g B B B B m I 0XS u s s : B U.$X$X#XwXe m B m : z.$XS.5 s s ",
"A B B B B B B B B B m . N.t d B B B B B d y n.E.r B B B B B B B B B B B y ;.8XI t r z.$Xd.B s t b t B M m u ( ~.u s M M ",
"B B B B B B B B B B m   S.a s s m d d s d ; !.7.p B B B B B B B B B B B f 3 3X~.I v.XX] > m m m m B B B B y k.a.# s M M ",
"M B B B B B B B B B m * N.a s s s s s s s s }.p g B B B B B B B B B B B N 8 4X#X.X`.U > m B B B B B B B B : (.*.y m M M ",
"M V B B B B B B B B m   S.a 5 t u s s t S ^.,.$ s B B B B B B B B B B B p +.9X!.p.d w m M B B B B B B B B u $X_ y B M B ",
"M V V V B B B B B m f   E.z.9.&.e 5 5 G E.,.t u g B B B B B B B B B B g &.8XW.d y m m M M M B B B B B B B t |.h.$ B B M ",
"B B B B B g f u p $ 9 ,.%X9X0XrX8X2X,X9XU.X s f g g d d g g g d d d d s G.W.3 u m B M M M M B B B B B B d # I.[.F m B V ",
"g g d s s y : u P g.8X'.y.S e k +.9.F.oX&X'.p.P s d d d s s s s s s s s W.h y m B B B m m m B B B B B B B y #.+Xf.f B B ",
"d s s u r A #.W.9X^.1.e 3 f N p u 6 q L 0.!.+X8X$.s f u u s s s s s s s W.Z y f B B m m m m s m B B B B s g t ~._.d g s ",
"r ; p R K.oX%X!.) 5 8 u s B B B B m B B u r m 1.OX].].].].].`.1.t d s w W.~.) $ ; y r $ y ! ( : t g s s s d : Y.&X<.y t ",
"2.z.E.OX#XXX,.d y u m m B B B B B B B B B f y 5 '.z.{ :.8.1.>._.f.r u ) }.$X+Xx.p.z.x.x.E.4XXX1.t t s s 6 F J.R.8.'.=.N ",
"eX&X#X#X{.8 r g B B B B B B B B B B B B B B a 5 i.+.> M B B B 1.#Xz.(.$XE.} N .   . . p b.|.&X&XoXd.B : 9.|.n.o r B R.%X",
") 1.z._.+X).M u m B M B B B B B B B B B B B s 5 q.@.> B B B B p !.%X%XT.u m m s s B B m r t 9.!.9X&X&XoX%XK.r m m B : r ",
"c 5 ; f *.!.W.&.B s s u m B B B B B B B B B s 5 t.%.: B B B B m ( %X+X..p B B B B B B B s u ; i [ g.E.+X&X) a m B B B M ",
"N B B f y r $.XX|.XXn.: t B B B B B B B B B a w OX+.: B B B B B > (.XXa s B B B B B B B B B B B B i y K.%X] a m B B B M ",
"N B B B B g t S [.+X_.- t m B B B m m m B m t -.XXd u B B B B B > L.L.5 B B B B B B B B B B B B M V g ..&X] a m B B B B ",
"m B B B B B m u j [.[.& 7 s m B d s s m m s o E...y m B B B B B > }.<.t B B B B B B B B B m f t 5 5 6 o.&X) u m B B B B ",
"m B B B B B B s $ Y.[.= 7 s s s s s s s s s V ~.u B m B B B B B u XX/ s B B B B B B B f y X S d.>X1X6X9X&X) 6 m B B B B ",
"m B B B B B B u $ Y.[.- u w w w w s a a y y g.l.p B B B B B B B m T.y m B B B B B B m : +.S.9XS.S K Y j.%XI 6 M B B B B ",
"M B B B B B B u r _.Y.; y u w w t y y s L 5.oX*.p B B B B B B B F a.: B B V B B B B m F +X+Xd.s N N f  .+XS 6 M B B B B ",
"M B B B B B B u L +X}.p.] f : y ) d.E.OX+XR.H t u s B B B B B m ,.[ y B B B B B B g u <.$XXXt N B B g x OXD a d m B B B ",
"M B B B B B m y j.oX{ S.XX/.K.E.8X9X&X%Xz.5 y u u s d d m d s u [ ( y s d B B B d d r k.$X[.r m B B d t ].8.r s s s d d ",
"m B B B B m u y XX] u # u b.+X&X&X#X#X+Xn.; y s d s s s s s s s u 4.: s s d d s s s : L.%XT.u B B B B a g M.g.: u s s s ",
"s g B B m p r f.w.u B B m p u ) v._.OX+X+X`.[ m t t u s s s s s y M.Y s s s s s s a ) %X+X,.u B B B B B m : F E.>.a u s ",
"s s s s u r ,.G.u m B B B B B N r m / -.s.K.!.!.S.[ u a s s s s s _ T.t t t 6 6 6 t Y.&X3X( s B B B B B B m y T }.v.V r ",
"s s s t 8 +.3XD B M B B B B B B B B s y ; ; 5 r z x.,Xz s s s s s t z.W.*XC.*XC.*X-X+X&X[ y m B B B B B m B m u Y +XOXy.",
"7 s y : U OX9.: u m N b N m B B B B B B B B B B m r *.u.t s s s s 6 f.&XQ. .<.Q.8X&X$X&X( p B m m B B B m m m m s B.#X%X",
"e 3 8 b.8X%X%.6 $ 5 2 9 O t s m B B B B B B B B B f $ ;Xe u s d 6 ).OXd.6 i b 3 j g.8X$X,.$ s m F B B B B m m s 6 8.&X+X",
"7X>X4X+X+X8X5X;X=X<X8X+XH.q r s B B B B B V V B B B p P W.q s a u ].J r m M B B B t q 0.4XL 5 m m s m B B m m t U 9X>Xe ",
"q A D L S e 9 3 4 T E.@X%X).s u B B B B B B B B B B s h 8Xz.s s ,.,.r m B B B B B B B u K -X$.s s s s s s d s u R.f.a N ",
"7 r r r t f f s s r : Z.&X9X+.y m B B B B B B B B B m h 8X&XQ.2X[.r s B B B B B B B B B u :.+Xg s u s s s s s s !.s N M ",
"B B g g m B B B B s r $ ~.&Xd.5 s m B B B B B m m d d l 8X9.a u s u m B B B B B B B B B t [ oX) u r t u 7 $ ; $ S.@.p B ",
"V Q B B M B B B B B s r =.&XW.t s s s s s s s s s a s l 2XS p f s s m B M B B B B B B B 5 ] %X}.!.J.L.E.E.x.p.<.E.s.y B ",
"B B B m B B B B B B B y p OXW.r s s s s s w w s s s a 0 3XL u s s s u : > : ; p M M s : ;.k.$X$X$X@X@X@X@X$X$X$X$XXXB N ",
"B B B B B B B B B B m y [ #Xz.r 5 t t t 5 7 U H a 6 u 2 2XD u a A 1.N.R.K.k.XX9.w m t y.s.,.( N u u u u u f [ a.L.[.,XA ",
"M B B B B B B B B m s # K..XS.r $ $ 5 s [ L.+X+XE.{ t 1 ).C p A |.[.1.N : o f.XXX.m N.r.: r y u s m m m m m s : y Q =.V.",
"d d d B B B B B m u r b .X.X4XY ] w.D. X+X[.a.O.O.E.W.+.[.S ~ ~.~.s p m f u 6 g.XXXXT.: B B B B B B B B B B B B B s i q ",
"e s d d d d s u : 8.b.W.#X#X.X.X.X+XOXg.P f y y r a X.^.+X_.}.v.r u B B V B y t f.T.d s B B B B B B B B B B B B B m s 6 ",
"s s s s s s s y T 4XS.S.S.S.v.S.c.@.0 y b m m B m m p 1 S.+X&XY s m B B B B u : f 1.t g B B B B B B B B B B B B B M s 6 "
};
