/* XPM */
static char *dfec5c5f90e1420abb3b351844176a7cDcBYQYkyK6ciybTl[] = {
/* columns rows colors chars-per-pixel */
"60 60 136 2 ",
"   c #13060F",
".  c #130610",
"X  c #160B14",
"o  c #190D16",
"O  c #1B0E1A",
"+  c #1E121C",
"@  c #21151E",
"#  c #231621",
"$  c #261923",
"%  c #291C26",
"&  c #2B1E29",
"*  c #2E212B",
"=  c #31242E",
"-  c #33282E",
";  c #2F2331",
":  c #332631",
">  c #352933",
",  c #392D36",
"<  c #3B2E39",
"1  c #3E323B",
"2  c #41353E",
"3  c #3F3441",
"4  c #433641",
"5  c #463845",
"6  c #463A44",
"7  c #473A44",
"8  c #473B45",
"9  c #473B47",
"0  c #473D46",
"q  c #453944",
"w  c #483B45",
"e  c #483A47",
"r  c #483C46",
"t  c #493C46",
"y  c #493D47",
"u  c #4A3D47",
"i  c #493D46",
"p  c #473948",
"a  c #463C48",
"s  c #493B48",
"d  c #493B4A",
"f  c #4A3C49",
"g  c #4A3E48",
"h  c #4B3E48",
"j  c #4B3F49",
"k  c #4B3D4A",
"l  c #4B3F4B",
"z  c #4C3F49",
"x  c #4C3E4B",
"c  c #4B3D4C",
"v  c #4D3F4C",
"b  c #4C3E4D",
"n  c #4A3E4A",
"m  c #4C404A",
"M  c #4D404A",
"N  c #4D414B",
"B  c #4E414B",
"V  c #4D424A",
"C  c #4C424B",
"Z  c #4D414D",
"A  c #4E404D",
"S  c #4D434C",
"D  c #4E424C",
"F  c #4F424C",
"G  c #4F434D",
"H  c #4F414E",
"J  c #4E424E",
"K  c #4D414C",
"L  c #50434D",
"P  c #50424F",
"I  c #50444E",
"U  c #51444E",
"Y  c #51454F",
"T  c #52454F",
"R  c #51444E",
"E  c #4E4351",
"W  c #504251",
"Q  c #524451",
"!  c #514750",
"~  c #524650",
"^  c #534650",
"/  c #534751",
"(  c #524453",
")  c #524652",
"_  c #544751",
"`  c #544653",
"'  c #524654",
"]  c #554754",
"[  c #554756",
"{  c #534652",
"}  c #544852",
"|  c #554852",
" . c #554953",
".. c #564953",
"X. c #564855",
"o. c #564A54",
"O. c #574A54",
"+. c #574B55",
"@. c #574B57",
"#. c #564954",
"$. c #584C56",
"%. c #594C56",
"&. c #594D57",
"*. c #5A4D57",
"=. c #594C56",
"-. c #564B59",
";. c #594B58",
":. c #594D59",
">. c #5A4E58",
",. c #5B4E58",
"<. c #5B4F59",
"1. c #5B4D5A",
"2. c #5C4F59",
"3. c #5C4E5B",
"4. c #5B4D5C",
"5. c #5B4E59",
"6. c #5D505A",
"7. c #5D515B",
"8. c #5E525C",
"9. c #5F525C",
"0. c #5E515C",
"q. c #61545E",
"w. c #61545E",
"e. c #5E5260",
"r. c #605460",
"t. c #625662",
"y. c #625562",
"u. c #645866",
"i. c #665964",
"p. c #695C66",
"a. c #6B5F6B",
"s. c #6C5F69",
"d. c #6A5C68",
"f. c #6E606D",
"g. c #71646E",
"h. c #736670",
/* pixels */
"$ o % > > > , 1 > > > & % * & : : $ * $ * % % * * * & & * = & $ = & % % & & % % & $ $ G ! ] 4.z G +.G ! &.&.* $ * * & $ ",
"% @ 1 ! G r q g g I ! q * & @ $ $ + = : > = * & % * = * & $ = q _ C r g L L v s 4 2 $ < l s s G 4 g q r I G % # & & % % ",
"+ # 1 0 q 0 r 6 q g | g $ % # % & % I 8.7.! I q _ >.8.2.r % & C &.| I I +.&._ z v +.& : v l 4 s 6 g g C I g $ + $ $ $ $ ",
"$ + > 4 4 r r g I | >.C @ % % * @ + 6 +.I r G q z C _ 2.C $ @ q >.&.+.| &.&.] z 4 _ % $ 5 W a 5 1 1 4 4 r 4 % # $ $ $ $ ",
"* X * C ! g 6 I | | +.q @ % & * * @ 4 C 6 q | | r q g +.z & * I &.>.>.>.>.>.| I 1.] $ # # # O X + + $ + $ % @ @ $ $ $ $ ",
"$ o & , 1 r r r q 4 r : @ % * & $ @ q ! | I >.7.I I &.>.2 @ # > C C L ! ! L C L 5 > # < 4 < 2 4 2 1 1 % $ & = = $ $ $ $ ",
"# $ > > = 4 r 6 C r C & % $ & % $ $ 4 ! &.G C G w w | | , % & & % @ @ % % # @ $ @ # O 4 g 4 5 s G I ! * # $ & $ $ $ $ % ",
"% + , G 1 * : 6 r q r @ % # * & & + & * = $ # % = % : : @ $ > % - $ # * * $ @ $ @ < & < s g s s 1 g +.: $ % * # % & & * ",
"$ + @ * = & # # $ * & o $ # * $ $ # # $ # $ & % % $ & $ * & * % * = & % % % $ % * = % : 2.G 6 w g C ! % * $ * * * * * & ",
"+ + + $ % $ + + + + + @ * # * = * % & * * * * $ & * = = * = * = * * % $ % * * : $ & $ : >.! g g G I I $ % $ * & % % % $ ",
"$ $ $ % % % $ $ $ # # & = $ * * % $ % * * * * $ * * $ * $ * & = & $ o o $ * * * & : * > 2.>.7.7.&.>.| $ $ % * $ $ $ $ $ ",
"$ $ $ $ # $ $ $ @ # $ % * & : & = * = * % % * & * % $ % % & & & = @     # * % # % = % $ 1 2 r z G C 6 # $ % $ # $ $ $ $ ",
"@ $ $ + + # $ # $ % = 6 r C | C r r g 2 * % * * * : r 2 q * = * : * # @ & * % % & : & O # + % % * % % + $ $ @ $ $ $ $ $ ",
"$ $ % % $ $ % % $ + & ! ! r r g C ! >.I , & * * & 1 s.q.8.= > = * : > = * % & = = , > % & @ % $ # + @ @ % $ + $ $ $ $ $ ",
"$ + # $ % $ $ $ = $ * &.I q 4 q q C &.! < & & & $ , 8.&._ * = = % = = = * % % * * = = * : % = % % $ $ $ % $ + $ # $ $ $ ",
"$ + # & * % $ & & # & C q r C 6 6 G >.! < & % $ % & < < , % % * = = * * > = % # & % $ $ = $ * $ $ $ $ @ @ $ + # $ $ $ $ ",
"$ # % % $ $ % $ % $ $ G I r r r G g ' ! < $ # & # $ $ & * , @ * * > = * * = : & * % & $ % = = , < * * > : & & & % $ % X ",
"% & & * $ % $ @ @ $ $ , : : > = ; * : : & # # + # $ $ $ # % % * & * & # $ * * * $ % = = $ @ * | d.i.r.r.r.+.! | +.! C = ",
"q I L C = : & % # % $ = # # $ % E 6 6 g g g g 4 4 l g 6 < > I C ! +.i.8.7.! = $ $ $ % % & @ $ ! ! ! G g ! g 2 6 >.&.| 1 ",
"2 &.2.| % % @ # % $ $ , % # $ : u.-.+.e.8.>.>.>.>.8.8.>.C 1 p.+.| _ w._ _ C % $ % % # + = = % 2 +.8.+.! 8.+.G &.! | | 1 ",
"= r G L & = % % $ @ % , * % $ = -.' +.>.+.+.-.+.+.+.+.! r * q.q &.I +.r C g & > & = * $ = = & 6 +.8.+.E +.+.C | G G ! , ",
"@ & & : $ = % @ @ # * : $ * $ $ ! 4.t.>.! >.e.-.>.+.+.+.g * &.6 | &.7.+.>.r @ $ * & % % * % $ w l ' G 6 g G g I I I I > ",
"= * & = * > : & $ % : : $ * $ & g G ' ! G G +.+.>.+.>.>.6 & ! | | 7.+.| >.q & = * $ % % * * $ > q r 6 1 1 6 g g ! ! I > ",
"* % * & % % = : & $ = , % * % < g , 1 ! ! a G e.+.+.8.>.2 $ C q.| q._ _ +.< $ & % = 1 > = > * % * = * $ + $ * % & * > $ ",
"& & * % = % = , = % = , * & = = &.>.> > G 1 8.G G 6 ! ! * $ < a 2 w >._ ! > & = $ 6 g.i.2.! _ +.q.>.i.r.= % = & $ % & & ",
"$ * = @ % % = * > $ @ % * = = * * < & $ & & # # $ # & # X + & $ $ % & $ : % $ * $ < 7.| +._ I C ! I >.>.* & * $ + # $ & ",
"= * = = , $ $ * = @ . o % = * * + % : 6 4 >.: 6 +.! 6 < < g ' ! w z , $ : & % = % < +.| 2.2.&.! &.| r r + > 1 , > > : : ",
"h.i.p.p.i.< & : % $ o o $ & & > = # * } $.t.> +.G +.+.+.4.! l G g &.1 $ & $ @ * $ < 7.&.2.&.+.+.} G 1 2 $ | i.p.>.+.! ! ",
"g G +.! | 1 = % & * $ $ * * * > 2 * * r G g : G >.8.+.! >.+.' r.L q.1 % = & % = & 1 &.I ! C C C m m , 1 @ q 6 4 q g ! +.",
"z 6 r 6 w * # @ : = * * : = * & $ $ $ $ * * * 4 ! >.+.+.r.r.' G 1.7.* @ % & % $ $ $ : % * & % $ + $ + % + 4 6 q q r G ! ",
"L q r L | , : < * * * * * * * % $ * * # $ & % 1 8.+.l g E ' E E >.+.% $ & = : = : & = $ * * & $ $ % $ % $ 2 g C r 6 6 4 ",
"r C I r C 1 : & % % = = % & > : % $ % $ % : + < | g g -.>.g g +.+.+.% % @ @ $ $ % $ * # % % $ $ + @ @ % $ , q 6 r r g g ",
"> , 2 4 1 > & $ $ $ > : : & & = % % * * * * % $ q r z z G _ | _ G L + * 7.i.f.p.p.i.i.i.u.2.W 6 I 4 @ = @ * 1 < 2 4 1 > ",
"+ @ $ $ $ $ $ $ * & > & & $ & * * * * * * * % $ $ % & % % * = * * = @ q 2.r _ W 1.>.8.w.3.+.W g g q $ > $ $ $ # % & & $ ",
"$ $ $ $ $ $ * = $ $ > & & & $ $ * * % % % * * % $ % % $ @ # $ $ % # @ C 2.C +.! L _ +.+._ G c 6 4 4 + * $ & % & * * & % ",
"% % % % $ $ % & # = G 6 Z 6 1 > , , = % % % & % * = = & $ $ % & = * # 2 &.+.r.1.>.2.2.>.] G s 5 g r @ & $ $ $ & = * % $ ",
"@ @ @ @ # # $ $ # > >.>.8.>.! g C C 4 : % % % % % & * % $ # $ & $ : % 1 >._ L +.>.1.1.+.+.! v 5 6 6 @ * $ $ + # & $ @ @ ",
"% % $ $ # $ $ % # = ! G ! G E ! ! | g > % % * * * * * * & % & = * = # 1 i.>.G 3.+.+.] 1.2.>.+.W g 6 # * $ & & * * % % & ",
"* * % $ $ $ $ $ % : G l ! G ! >.! _ r > % & = = * & & * & % % * > * @ > +.>.+.2.>.>.3.3.3.>.] ! ! r $ > $ & * * & % % * ",
"% * * * * * * & & = l E +.! ! -.2.>.C > % & * % * & & * * % % % $ % % & = 2 s 4 v G G v 5 1 < > : * O > & : > * * $ # $ ",
"% * % % O $ $ $ $ & 6 6 < 4 6 6 C I q = % & % % * & * % @ C 1 1 1 1 1 , , < < < & & : * * % # $ # $ # % , > * = * & $ # ",
"> 1 1 q 2 4 = $ % O O : : $ > > > < : & = : : : = & * * * d.d.p.8.q.i.i.p.d.d.d.r.< % & > > & * & : & # $ $ $ * & % $ # ",
"r | I 7.q.&.> # $ # 4 i.r.G G +.8.8.3.8.i.d.i.d.i.r.8.g $ G ] ! >.>.&.| _ | +.] r.< * & $ $ & > $ = % + + % * : = * * & ",
"2 I m | >.I & + # + ! ! 4 g 1 +.L G G ! +.! G _ _ +.3.v # v 8.8._ | | _ _ +.>.1.+.: % & % * & $ * * $ + # % $ @ % % $ $ ",
"> m C | &.C & $ : # g 4 4 4.G >.+.+.] 1.>.] _ 3.2.+._ g % G 3.! | +.>.2.2.7.>.+.>.: % : : > : & * & % * * * & $ # # @ # ",
"> m } 7.+.r * % $ # , +.r.8.8.! ] +.] ] ] W W >.2.>.! G & g >.+.w.8.&._ I _ +.+.] & $ & % $ % > # @ % * % $ * = $ $ $ $ ",
"% > 1 0 < > # # & & > >.>.g ! l >.3.1.] +.] ] 1.] 3._ L % : 2 6 1 < > : > 1 5 s 4 * & * < < : & : * > : $ # % $ $ # # # ",
"@ @ @ * $ * * * * $ 4 +.>.>.! ! >.2.+.] >.2.1.1.] 1.g w # # O O O + # # # $ # + # 6 u.-.W >.G 5 G G ! G 6 C C 1 $ $ $ # ",
"$ % & & & & & & * $ 2 | &.2.| ! ! +.&.2.+.| >.! ! C C , 2 y.&.5 3 a +.+.t.t.i.>.# m 7.7.&.I I g 4 a a q a a 4 4 % $ + $ ",
"* * * * * * * * % @ 1 _ &.>.| _ | | _ _ I I | I I C &.1 w _ | ! G E -.' >.E E m # 6 G m G | 6.I q 6 a q q 6 4 1 $ & $ $ ",
"# @ @ @ # $ # @ * @ : 4 q w q q < , , , , < < < 2 = < * G +.&.>.E Z ' E  .a G E O 1 m C g 6 0 6 m 6 g g 6 g m 2 X $ $ @ ",
"C C C L I I L G 2 # # % $ $ $ % $ # # # $ $ + # $ X o o 4 2.+.| ! G ' Z ! G  .} + , 0 | | 0 r m m 3 q a 4 a g , # 1 4 1 ",
"&.7.q.y.r.q.q.r.i.1 = = * = * * * % & % & % + & % & * % * G r I &.&.+.6 C C G 4 $ > , 1 r G &.&.| 6 r C r C 0 = $ C ! g ",
"G ! +.>.2.>.>.>.7.> % & & * % % = & = % = = * r g I L 2 $ r q z G I I 1 6 g r > + 1 2 - * 1 C C | r 6 r 0 0 1 * o 4 g 4 ",
"G C C I | +.| _ | = % * * * & * % $ * $ & * & ! &.I | 4 $ 6 r q 2 q r 2 r r r , + 1 q , * % > , > - = * * * % @ # G +.! ",
">.| L _ 2.8.7.+.+.: & = & & % * & % : % % $ + r C 1 z , @ , r q 0 r G r C 4 2 , o o o $ % @ @ $ @ $ $ @ $ $ # $ % | >.+.",
"2.| g q g | >.7.g > % & = * % & & * = & $ $ * > z G w > % $ * = = , 4 0 2 1 , > o % $ * $ % % $ % $ @ $ * % $ & * 1 ! +.",
", : & % * : , > , * % % * & & * & & & % # # % & & * & @ o + @ + + @ $ $ $ @ @ @ % % @ > , > * % % $ $ % * % @ # # % * * ",
"$ $ @ + @ $ $ # % % % & & & * * * & % % % % % % $ % % $ $ & & $ % % $ $ $ % % % = % % I w.8.&.&.+.&.+.! z < % # % $ # O ",
"* & % % % * & % $ & * & & * * & * & & & * * * * & * * * * = = * * * * = = = = * % $ % I &.I L +.| &.&.| I 4 * $ = * & % "
};
