/* XPM */
static char *_d057082ad2c4854a6e9cfe0253dbd50TipJarVUx2tA8Vhm[] = {
/* columns rows colors chars-per-pixel */
"60 60 177 2 ",
"   c #581F0F",
".  c #5E1F15",
"X  c #651F0D",
"o  c #601F10",
"O  c #552216",
"+  c #5E2215",
"@  c #65250F",
"#  c #6D260E",
"$  c #6F290F",
"%  c #73260C",
"&  c #742A0E",
"*  c #7E2D0D",
"=  c #642514",
"-  c #6E2712",
";  c #652A17",
":  c #6D2A14",
">  c #642A1C",
",  c #6D2B1B",
"<  c #742D14",
"1  c #7C2E13",
"2  c #722D19",
"3  c #6C311D",
"4  c #763116",
"5  c #7D3212",
"6  c #75321D",
"7  c #7C341B",
"8  c #7C381D",
"9  c #663026",
"0  c #6F3121",
"q  c #753521",
"w  c #7B3621",
"e  c #7C3922",
"r  c #7B3B2B",
"t  c #822E0C",
"y  c #82300E",
"u  c #832F11",
"i  c #823415",
"p  c #873917",
"a  c #8E3C16",
"s  c #83361A",
"d  c #883719",
"f  c #85391B",
"g  c #8D3D1B",
"h  c #913E16",
"j  c #923D1A",
"k  c #813521",
"l  c #843C22",
"z  c #8B3D22",
"x  c #893F28",
"c  c #8D401E",
"v  c #944217",
"b  c #94411B",
"n  c #9A431A",
"m  c #A1461D",
"M  c #A34A1E",
"N  c #A94C1F",
"B  c #AE531C",
"V  c #BB561F",
"C  c #BA591F",
"Z  c #874127",
"A  c #8E4124",
"S  c #844029",
"D  c #8E422B",
"F  c #944323",
"G  c #994623",
"H  c #964826",
"J  c #9C4B24",
"K  c #924529",
"L  c #954A2C",
"P  c #9C4B2B",
"I  c #9D5022",
"U  c #9B5129",
"Y  c #974F31",
"T  c #9C4E30",
"R  c #A44C24",
"E  c #AB4E24",
"W  c #A34E29",
"Q  c #A84F28",
"!  c #B34F24",
"~  c #A45226",
"^  c #AC5225",
"/  c #AF5921",
"(  c #A5512A",
")  c #AB542B",
"_  c #A6582B",
"`  c #AD582C",
"'  c #B45424",
"]  c #BB5625",
"[  c #B65A25",
"{  c #BD5925",
"}  c #B4562A",
"|  c #BB562A",
" . c #B5592C",
".. c #B85A2F",
"X. c #BC5B2D",
"o. c #BB5C2C",
"O. c #BE5D2C",
"+. c #BD5E2C",
"@. c #BF5E2C",
"#. c #BF5E2D",
"$. c #BF5F2D",
"%. c #BF5E2F",
"&. c #BF5F2F",
"*. c #BD5A29",
"=. c #A75530",
"-. c #A55432",
";. c #A85130",
":. c #AD5530",
">. c #AF5B36",
",. c #B55132",
"<. c #BD5733",
"1. c #B55A31",
"2. c #B65A31",
"3. c #B65A30",
"4. c #B45A32",
"5. c #B45B31",
"6. c #BD5932",
"7. c #B7602C",
"8. c #BF612D",
"9. c #BD622D",
"0. c #BF622C",
"q. c #BD602F",
"w. c #BD622F",
"e. c #BF622F",
"r. c #BB652D",
"t. c #BD602D",
"y. c #BD6030",
"u. c #BE6334",
"i. c #BF6236",
"p. c #BE6232",
"a. c #C05A25",
"s. c #C15B25",
"d. c #C05A27",
"f. c #C15B26",
"g. c #C85C27",
"h. c #C05629",
"j. c #C05C2A",
"k. c #C05D2A",
"l. c #C15D2B",
"z. c #C15E2B",
"x. c #C25E2C",
"c. c #C25F2C",
"v. c #C35F2D",
"b. c #C15C2A",
"n. c #C25634",
"m. c #C05A33",
"M. c #C36127",
"N. c #C46127",
"B. c #CD6527",
"V. c #C06129",
"C. c #C26128",
"Z. c #C0622A",
"A. c #C4602B",
"S. c #C6602B",
"D. c #C0602E",
"F. c #C1612E",
"G. c #C2612F",
"H. c #C4622E",
"J. c #C6632F",
"K. c #C6672E",
"L. c #C5622C",
"P. c #C8642F",
"I. c #CA662D",
"U. c #CE682B",
"Y. c #C16131",
"T. c #C26130",
"R. c #C36230",
"E. c #C26132",
"W. c #C56531",
"Q. c #C66530",
"!. c #C46533",
"~. c #C76632",
"^. c #C36735",
"/. c #C36332",
"(. c #C96531",
"). c #C36338",
"_. c #C66838",
/* pixels */
"U J I I I I I I I J J J J J I I I J L : w W W W ( ( ( ( ( ( ( ( W ( ( ( ( ( ( D : U ~ ~ ~ _ _ _ _ _ _ _ _ _ _ _ _ _ _ ~ ",
"u.F.0.Z.Z.M.N.N.N.N.N.N.N.N.N.N.N.S.u.u :.z.k.k.z.z.z.z.z.z.z.z.z.z.z.k.k.k.z.>.G r.[ [ { { { { { { { { { { { { { { Z.L.",
"*.{ [ [ { { { { { { { { { { { { { { } j R ] { { { d.d.d.d.d.d.d.d.d.{ { { { ] F h / ' ' [ { { { { { { { [ { { { { { [ [ ",
"S.{ { [ { { *.] ] *.{ { { *.*.*.*.*. .f ) d.d.{ { { { { { { { { { { { { { { *.W n ..| | | *.*.] ] *.*.*.*.{ { { { { [ [ ",
"] { { [ { { *.] ] { { { { { { { { { | b K ' [ { { { { { { { { { { { { { { { { ( 6 D W ) } *.*.*.*.[ { { { { { { { { ] ] ",
"[ ] { [ { { *.*.*.*.{ { { { { { { { } f ( ] { { { { { { { { { { { { { { { { { W n O.| | | [ [ *.] ' ] [ { { { { { { ] ' ",
"o.{ [ [ { { { *.*.*.{ { { { { { { { ] b ( { { { { { { { { { { { { { { { { { *.H b ^ ' ] *.*.*.*.{ [ { { { { { { { { [ ' ",
"=...1.1.............1.1.1.1.1.1.....} 7 P .............. . . .................P k ) ................................ .H ",
"5 t * * t t t i 1 < 1 i u i i i i i 1 - < u u u u u u u * # % u u t t t t y i < X 1 u u u t t t 1 : : < u t t t t t y < ",
"_.~.^.!.!.!.!.*.( x } X.O.O.O.O.O.O.O.O.O.0.y.y.6.6.y.O.} 8 K ) *.O.F.0.0.0.0.Y.Y.Y.Y.Y.Y.Y.Y.L...0 > A X.z.z.F.F.Y.L.I.",
"{ { { { { { d.z.1.Z 0.*.{ s.d.d.{ d.d.d.d.d.d.d.d.d.s.s.O.d ) I.s.{ { { { { { { d.{ { { { { d.d.3.r 9 -.| d.{ { { { d.d.",
"*.{ { *.{ { d.' R f { ' ' { ] { { ] ] { { { d.d.{ { ] ] ) l K ' { { { { { { { { { { { { { { { *.' F > E ] { { *.{ { { { ",
"*.{ *.*.{ { [ ' ^ F s.{ { { k.d.*.{ { { { d.d.d.*.{ { { ) g  .s.{ { { { { { { { { { { { d.d.d.d.*.W f g.{ { { *.{ { d.d.",
"j.h.*.*.{ { { *.} w G G R ' ] { { { *.*.*.*.*.*.*.*.*.*...z z G ^ ] { { { { { { { { { { { { ] ] ] W F x.| *.*.{ { *.d.d.",
"X.h.*.*.{ { { ] J w ^ ' ' [ *.{ { { { { *.*.*.*.*.*.*.{ E 7 H | [ [ { { { { { { { { { { { ] ] *.| W l E E ' ] { { { *.*.",
"O.*.*.*.{ { [ *.} Z } | *.*.{ { { { { { { *.*.*.*.{ { *.) z W | *.*.*.*.*.*.*.*.*.*.*.*.*.*.*.k.] P A } *.{ { { { { { { ",
"( W ( ( ( ( W P K q P W ( ( ( ( ( ( ( ( ( ( ( ( ( ( ( W D ; S P W W W W ( ( ( ( ( ( ( ( ( ( ( ( W x , P W W W W W W W W ",
"g n b b b b b j b b h h h h h h h a p # < h v h h h h h j c b h h h h h h h j 7 + 4 h h h h h h h g g a a a a h h a a g ",
"/.S.L.S.S.S.S.S.S.S.L.L.L.L.L.L.L.L.F.j ` I.L.S.L.L.L.L.L.S.S.S.S.S.L.L.L./.~.( s } Z.Z.Z.S.L.F.L.F.F.Z.Z.Z.S.S.z.z.Y.) ",
"1.' [ { { { { { { { { { { { { { { { ^ i H N E ' ] { { { { [ [ { { { { { { *.*.W b ..{ [ [ { { ] | *.{ { { { { d.{ ' ' E ",
"E ' ] { { { { { { { { { { { { { { {  .j ` [ { { { { { ] { { { { { { { ] [ *.*.J b | { { { { { ] ] *.{ { { { { { { *.*.| ",
"^ B ] { { { { { { { { { { { { { { ' ' f 6 f G ^ [ *.*.*.{ [ { { { { { { [ *.{ W n [ { [ { { { { { { { { { { { { { { ] ^ ",
"M B o.*.{ { { { { { { { { { { { { ' R d ( { { { { *.*.*.] ] { { { { { { { { { H s ^ [ [ [ { { { { { { { { { { { { { ' R ",
"3.[ | [ ] { { { { { { { { { { { { [ ' b R ' [ *.{ *.*.*.{ [ { { { { { { { { { R b ] ] [ { [ { { { { { { { { { { { { *.' ",
"..{ X.X.j.X.*.*.| | | *.*.| | | | E l = L )  .o.o.| | | | | | *.*.*.*.*.*.*.| A A } | | | | { { [ [ [ [ [ [ | | | *.*.' ",
"j j j j j j j j g z g j g j j j g f O O : g g b j g g g g g g j j j j j j j j o = j j j j j j j j g z g g g g g g j h p ",
") ) ) ) ) ` ) ( A , W ( ) ( ) ) ( ( ) ` ` ) ` ` ` ` ` ) 5.g P ` ` ) ) ) ) )  .` ` ` ` ` ` ` ` ` ` x , ( ) ) ) ) ) ) ) ) ",
"*.s.k.{ { s.{ U.' K L.k.z.k.*.0.s.s.g.g.g.k.k.k.s.{ { { K.n ` { { k.k.d.d.d.s.s.{ { { { { { { { Z.=.F U.s.{ s.s.{ { { { ",
"*.{ { { { { [ { *.l ' | [ [ { { [ { { { { | | | [ [ [ [ ^ i  .{ *.{ { { { { { { { { { { { { { { ' W f E ' [ [ { { { { { ",
"*.{ { { { { { ^ J z k.*.[ { { { { { { { { *.*.*.{ { { {  .j  .{ *.*.{ { { { { { { { { { { { { ] ' W b ' { { { { { { { { ",
"*.{ { { { { [ | } l ^ ' { { { { { { { { { *.*.*.{ { { { [ g J [ [ { { { { { { { { { { { { { { [ [ ( 6 H ' { { { { { { { ",
"*.{ { { { { ^ G l Z { [ [ { { { { { { { { [ { { { { { { } j ) ] ] ] { { { { { { { { { { { { { { { ( G ] ] { { { { { { { ",
"*.V { { { { s.{ ' A { { { ] ] { { d.d.d.{ { { { { { { { ' p P } *.*.*.{ { { { { { { { { { { { { { H F { { { { { { { { { ",
"1.} } } }  . . .P e ....................|  . . . . . . ...l > P .. . . . . . . .} } } } } }  . .} T q ` .. . . . .} } } ",
"3 5 t t t t * y & $ t t t t t t t t 5 @ @ i t y y y y y i & : 1 u u u u u u 5 = @ 5 5 5 5 5 5 5 5 < : < 1 u u u u u u u ",
"w ) O.Y.y.0.y.y.Y.Y.Y.Y.!.!.!.Y.!.Y.} l x ( O.0.0.t.....t.0.0.0.O.0.0.0.Y.Y.5.3 l ..............................o..... .",
"Y 7.[ [ [ [ { { { { ] { { [ { { { *.u.z Q I.s.s.{ { { { a.{ { { ] ] { { { d.O.e f  .{ { { { { { d.{ { { { { { { { { { *.",
"J / [ [ [ { { { { { { { { { { { { [ E s z [ { { s.{ d.d.{ { { { { { { { { { ] c b *.*.*.*.{ d.d.*.] { ' { { { { { { ] ] ",
"..{ { [ { { [ { { [ *.{ ' { { [ [ ] } F W { | { d.{ { { { { { { ] { { { { { { H b | { { { d.d.{ ] { { { { { { { { { { ' ",
"O.[ X.*.*.*.*.*.*.*.*.[ [ [ [ [ [ { *.g l G ^ { { d.d.d.d.{ { { { { d.{ { ] ' H b | *.*.*.*.{ { { { { { { { { { { { { ] ",
"M m E ' ] [ { { *.*.{ { { { [ [ { d.R 4 L } { { { { { { { { { { { { d.{ [ [ [ J n } *.*.*.*.{ { { { { { { { { { { { { ' ",
"} *.*.*.{ { { { { *.*.*.*.*.*.*.{ { ' b W ] { { { { { { { { { { { d.d.{ { [ [ P z | *.*.*.*.{ { { { { { { { { { { { { [ ",
"K W ( ( ( ( ( ( ( ( ( ( ( ( ( ( ( ( P 4 l H R W W R R R R W W R Q Q Q Q W R W S + P ) ) ) ) ) ) ) ( ( ( ( ) ) ) ) ) ) ( ",
"H n v v b b n b s . 2 b b b n n n b b b b j j j b b b b g $ 7 g j j j j j j j c Z g g g g j g j g 2 : b n n n n n n n n ",
")./.H.L././.L.I. .w ( L.0.F.L.L.L.S.S.L.v.v.v.v.v.x.x.k.) f } Z.S.L.I.L.S.L.L.L.L.L.L.L.L.L.F.~.L.L K L.Z.S.S.S.S.S.Z.Z.",
"6.*.[ [ { { { { ^ f *.{ [ [ [ { { { { { { { { d.d.{ ] ' R f W ^ ' { d.V { { { { { { { { { { ] ] k.P g ^ ' ] { { { [ [ [ ",
"6.d.{ { { { { { ' z { { [ [ [ { { { { { *.*.d.d.d.{ { { } g } ] { { { ] { { ] ] { { { { { { { ] ] W d N ' ] { { { { [ [ ",
"6.d.{ { { { { ' R z [ [ { { { { { *.*.*.*.*.d.d.{ { d.{ ^ g ..d.d.d.d.{ { { { { { { { { { { { { ] R n ' ' [ [ { *.*.*.*.",
"6.h.{ { { { [ ' G 8 E [ { { { { { *.*.*.*.*.*.*.{ { *.] J 6 S K J E ' { { { { { { { { { { { { { [ P s R ' *.{ ] { *.*.*.",
"X.{ { { { { { { ' A ' ] ] [ { { { { { { { { { | *.*.] | ' g J [ d.d.{ { { { { { { { { { { { { [ ^ z F  .[ { { ] { { { { ",
"X.[ | *.*.*.' G 6 w } { { { { *.*.*.o.o.| | | [ | | | | ^ g (  .| | | | | *.| | | | | | | | [ [ [ K F [ [ [ [ [ [ [ [ [ ",
"f f d d d d 7 ; O   5 i i i i i i s s l l f d d d d d d < X < s s s s s d s s w w s s s s s s s 7 = - 5 i i i i i i i f ",
") ` ) ) ) ) ) ) _ ) ` ` ) ) ) ) ) ` ( 2 w ( ) ) ) ) ) ) ) ) ) ) ( ( ( ( ) ) ( e , W ( ( ( ( ^ ~ ) ) ) ) ^ ^ ^ ^ ) ) ) ` ",
"O.{ *.*.d.d.d.d.d.{ { { { { { { { { /.n ) g.{ { { { { { { { { { { { { { { v.~.R R L.d.d.d.d.d.d.d.d.d.d.d.d.s.s.{ { { B.",
"*.C { *.*.*.{ { { { { { { { { { { { } j K R ' { { { { { { { { { { { { { { { d.W j | { { { { { { { { { { { { { { { { ' ^ ",
"*.{ { *.*.*.{ { { { { { { { { { { ] } j ) ] { { { { { { { { { { { { { d.d.] ' x m k.{ { { { { { { { { { { { { { { { { [ ",
"! *.X.*.{ { { d.d.{ { { { { { { { ] | j w E [ { { { { { { { { { { { { *.*.*.| P g E { { { { { { { { { { { { { { { { ] { ",
"..] | { d.d.d.d.d.{ { { { { { { { { | b W ] ] { { { { { { { { { { { *.*.[ E G w n | ] { { { { { { { { { { { { { { { ] ] ",
"=.] ] ] { { { { { { { [ [ { { { { [ ^ g W | [ [ [ [ [ [ { { { { { { *.*.[ [ [ H n { { { { { { { { { { { { { { { { { { { ",
"r ,.m.X.X.X.<.<.<.<.<.6.6.6.6.6.6.n.<.D D 2.<.<.<.6.6.6.6.6.6.6.6.6.6.6.6.6.<.D z <.6.6.6.6.m.m.6.m.m.m.m.m.m.m.6.6.<.<."
};
