/* XPM */
static char *assets21703567071[] = {
/* columns rows colors chars-per-pixel */
"40 40 242 2 ",
"   c None",
".  c #02026A",
"X  c #041765",
"o  c #01007D",
"O  c #050575",
"+  c #180A76",
"@  c #031775",
"#  c #170062",
"$  c #012479",
"%  c #4B027E",
"&  c #41157E",
"*  c #030185",
"=  c #00028A",
"-  c #050988",
";  c #04168A",
":  c #060797",
">  c #021593",
",  c #15108E",
"<  c #3A058C",
"1  c #301099",
"2  c #03298A",
"3  c #08249E",
"4  c #0A3596",
"5  c #173394",
"6  c #003288",
"7  c #0600A4",
"8  c #0619A9",
"9  c #0F0AB7",
"0  c #0A25A9",
"q  c #0327B4",
"w  c #063BBA",
"e  c #1530B5",
"r  c #2E3DB5",
"t  c #470784",
"y  c #56069C",
"u  c #510A95",
"i  c #660298",
"p  c #640E95",
"a  c #5D1EAB",
"s  c #6907A6",
"d  c #7B01AE",
"f  c #7305A9",
"g  c #661BA6",
"h  c #6803B8",
"j  c #7601BD",
"k  c #7F36A3",
"l  c #1346BB",
"z  c #3D54A0",
"x  c #316EBA",
"c  c #414F9E",
"v  c #5453BA",
"b  c #7F70A6",
"n  c #020EC8",
"m  c #0827C7",
"M  c #0633C8",
"N  c #0038D8",
"B  c #1632CC",
"V  c #0031EC",
"C  c #3D3EE0",
"Z  c #5400D0",
"A  c #7803C6",
"S  c #7011CA",
"D  c #5122C7",
"F  c #7029CF",
"G  c #5900F8",
"H  c #6F00F4",
"J  c #0043C8",
"K  c #0842D5",
"L  c #1056D1",
"P  c #2A53C9",
"I  c #0075C9",
"U  c #0076D7",
"Y  c #0A63CE",
"T  c #356CCD",
"R  c #0349EB",
"E  c #1A57E4",
"W  c #1949FC",
"Q  c #035DF6",
"!  c #1652F5",
"~  c #1348E2",
"^  c #274BF6",
"/  c #2958FD",
"(  c #304EF2",
")  c #007AF5",
"_  c #0375F9",
"`  c #1779FC",
"'  c #106CE8",
"]  c #3270F2",
"[  c #4953D2",
"{  c #4573CC",
"}  c #6A72D2",
"|  c #5A58E0",
" . c #5975F9",
".. c #4F6EE8",
"X. c #9506BD",
"o. c #8309B2",
"O. c #B11CBC",
"+. c #A24BAD",
"@. c #8A00CE",
"#. c #9403CA",
"$. c #920ECF",
"%. c #AB05DA",
"&. c #B304D9",
"*. c #8520C9",
"=. c #A824DC",
"-. c #AD3DDD",
";. c #9600F2",
":. c #A100E9",
">. c #B900E5",
",. c #AF07EF",
"<. c #972DF5",
"1. c #983AFC",
"2. c #902CE5",
"3. c #BA22E4",
"4. c #AE38F1",
"5. c #C605E9",
"6. c #CC0BF9",
"7. c #C314F6",
"8. c #D21BF4",
"9. c #CD2AF2",
"0. c #8E47F6",
"q. c #964CF6",
"w. c #9F5DF9",
"e. c #B450F5",
"r. c #A951FE",
"t. c #9568ED",
"y. c #AB6DFB",
"u. c #B570C9",
"i. c #C646DE",
"p. c #D04DF5",
"a. c #D755FE",
"s. c #CB4CFE",
"d. c #E24FFF",
"f. c #DD75EB",
"g. c #C868F9",
"h. c #D564FC",
"j. c #C377FA",
"k. c #D97BFE",
"l. c #CE69E8",
"z. c #EA76F5",
"x. c #34D1BE",
"c. c #148FDC",
"v. c #1894D9",
"b. c #1493CA",
"n. c #2E91CE",
"m. c #17A2D6",
"M. c #23A8D3",
"N. c #0188EB",
"B. c #1B99E8",
"V. c #028AFC",
"C. c #0488F6",
"Z. c #1685F8",
"A. c #0392FC",
"S. c #0597F7",
"D. c #1693FB",
"F. c #2995F7",
"G. c #3295F1",
"H. c #3092E7",
"J. c #00A6E6",
"K. c #00B8E8",
"L. c #04A1FC",
"P. c #05A6F6",
"I. c #15A9F9",
"U. c #01BBFC",
"Y. c #07B6F5",
"T. c #19B2ED",
"R. c #2CB0ED",
"E. c #64A8D6",
"W. c #4593F0",
"Q. c #7181F2",
"!. c #53AFF4",
"~. c #75BCEA",
"^. c #73A4E6",
"/. c #06C6F7",
"(. c #17CCF6",
"). c #16DAFB",
"_. c #00CFF1",
"`. c #26C9EC",
"'. c #2AD5F6",
"]. c #38DAFC",
"[. c #28CFF4",
"{. c #05E8FB",
"}. c #02F7F8",
"|. c #15F9FE",
" X c #34E6E2",
".X c #35F7F9",
"XX c #2DEBF1",
"oX c #0BCFCF",
"OX c #4ADEEB",
"+X c #4ED9FC",
"@X c #6BC5FB",
"#X c #71D9FD",
"$X c #76C8E4",
"%X c #5AE8F5",
"&X c #41F9F8",
"*X c #4CE9EF",
"=X c #7AE6F6",
"-X c #68EBFA",
";X c #BB87F8",
":X c #BB97FC",
">X c #8AABFF",
",X c #B7ACF9",
"<X c #AE8ED0",
"1X c #C78FDE",
"2X c #D88AEB",
"3X c #D39EE8",
"4X c #C885FD",
"5X c #C692F7",
"6X c #D38FF6",
"7X c #E787FF",
"8X c #EA94FC",
"9X c #F08FF3",
"0X c #C9A8FD",
"qX c #D9BAFE",
"wX c #D9BBEC",
"eX c #E9ACED",
"rX c #E7A8FF",
"tX c #F6A5FC",
"yX c #E7B9FB",
"uX c #F6BCFC",
"iX c #A5D3DD",
"pX c #A8D7FF",
"aX c #9AE9F5",
"sX c #8CFDFD",
"dX c #8CFAFA",
"fX c #94FEFE",
"gX c #9BFEFD",
"hX c #95F5F9",
"jX c #B9EBF6",
"kX c #A4FCFB",
"lX c #A8F9FB",
"zX c #B6F7F9",
"xX c #A7EDF6",
"cX c #86CAF2",
"vX c #C2DFE9",
"bX c #FAC6FF",
"nX c #F1CFF8",
"mX c #C3FFFD",
"MX c #CCFFFA",
"NX c #D3FDFF",
"BX c #D9FFFF",
"VX c #F2E6F2",
/* pixels */
"                                                                                ",
"                                                                                ",
"                                                                                ",
"                                                                                ",
"                                    lXhX                                        ",
"                                    lXfX$X                                      ",
"                                  zXfXfX=X                                      ",
"                                jXgXfXfXdX                                      ",
"                              vXmXsXfXfXgX!.                                    ",
"                            iXBXkXfXfXfXgX#X                                    ",
"                            jXzXfXfXfXgXgXdXU                                   ",
"                          xXBXzXsXgXgXfXfXkX!.                                  ",
"                        aXlXNXzXfXgXfXfXdXMXpXY                                 ",
"                        @X!.jXMXsXgXfXfXdXNXjX)             b wX                ",
"                      !.C.Q ~.MXkXfXfXgXfXmXcXV.H.        <X0XnX:X              ",
"                      I.C.` N.jXmXdXsXgXfXkXF.A.S.      <XrX;XqX5X              ",
"                      P.C.Z.) ~.mXhXfXfXgX#X) S.I.    3XrX6X;XqX5X              ",
"                      I.A.V.) G.lXkXsXsXgX!.) D.R.    tX6X6Xy.0X4X              ",
"            uXh       M.S.A.C.Z.+XgXdXgXaXN.Z.D.R.  bX7X4X4Xt.:Xj.F             ",
"            bX6XZ     T.L.V.S.Z.(.%XkXMX~.N._ Z.    tXj.k.4Xw.6Xy.2.            ",
"            tXuX;XG S b.I.C.S.N.[.{.=XlXL.V._ F.    7Xj.h.2Xj.8X7X2.            ",
"          3XtXj.nXt.H v S.S.S.P.'.|.XX%XD.V._ G.  f.z.h.e.yXrX3.2.g             ",
"          1X8Xr.:XyXA D I.S.C.P.%X*X}.+XD.) ` H.  h.h.a.g.bXtX%.F %             ",
"          2Xk.w.0.eX6XA B.P.B./.jXzX}.].A.) ` I   p.p.s.4.2Xf.A g               ",
"          z.h.q.q.2Xl.h H.Y.T.{.zXmX}.].V._ ] U   a.h.4.:.8.3.A                 ",
"          z.a.q.<.g.*.h T U.I.S.OX-X}./.` Q .. .*.d.-.:.7.8.$.p                 ",
"          tX9.1.e.f.*.j v /.Y.Y./.|.|./.Q / ^  .F =.:.7.6.%.o.                  ",
"          bX9.;.l.9Xd j v K./.Y.P.}.}.R.Q.! ( / [ :.6.>.5.#.p                   ",
"          VXtX,.9.O.i o.a J./.U.P.).{.!.>XV C / R ;.5.5.&.d &                   ",
"            eXd.5.#.f o.y v./.Y.J.(.J.( ] W V ^ N 0.&.5.#.u                     ",
"              l.%.$.o.p i n./.c.n.b.M n 9 ! ] B r ,X4.,.f t                     ",
"              u.i.#.f p i x J.L W.T q 9 9 m E 0 m | =.#.&                       ",
"                +.=.@.p t c I ~ R E q o : B 8 : 7 7 A j +                       ",
"                  k #.S t & P R R N q > * B 3 * o 1 Z u                         ",
"    &X.X X X XOXx.oX} @.t Q.T V K e q 0 - e ; o * < <                           ",
"OX&X.XXXXX[.`.K.E.^.T S t { E N K 8 > - ; 3 O o . # 0 R M                       ",
"m.v.c.B.v.c.H.Y [ | J e < = J L 3 * o o O ; o o > P ..P w : W.].XX`.R.M.M.      ",
"              l 9 m B e , # > w * * * * O - * o 0 r c 5 > : 4 [.).).            ",
"              6 6 4 2 @ @ X $ 6 2 @ @ @ X @ O . * O .                           ",
"                                                                                "
};
