/* XPM */
static char *assets21703566977[] = {
/* columns rows colors chars-per-pixel */
"60 60 256 2 ",
"   c None",
".  c #2A002E",
"X  c #02016A",
"o  c #010173",
"O  c #01007C",
"+  c #060777",
"@  c #011677",
"#  c #0E0D6D",
"$  c #2D0775",
"%  c #000F5D",
"&  c #460876",
"*  c #4A0E6E",
"=  c #5B4D70",
"-  c #010182",
";  c #02028C",
":  c #030886",
">  c #030395",
",  c #041697",
"<  c #0D0D88",
"1  c #30068B",
"2  c #00298C",
"3  c #032897",
"4  c #12269A",
"5  c #2D2E89",
"6  c #0701A9",
"7  c #041DA8",
"8  c #0202BC",
"9  c #1310B3",
"0  c #310CA2",
"q  c #0624A8",
"w  c #042AB8",
"e  c #0A34B0",
"r  c #2D32B2",
"t  c #580488",
"y  c #480195",
"u  c #580098",
"i  c #4E0D8C",
"p  c #66069A",
"a  c #6F0A97",
"s  c #5C03A5",
"d  c #5800B8",
"f  c #4E0BB2",
"g  c #6904A8",
"h  c #7701A8",
"j  c #7905BB",
"k  c #6A0ABA",
"l  c #4629AC",
"z  c #6421A5",
"x  c #2E4B94",
"c  c #0448BA",
"v  c #044FA7",
"b  c #2C4EB4",
"n  c #0363B7",
"m  c #2E69B4",
"M  c #404EBC",
"N  c #0B0EC8",
"B  c #072BC6",
"V  c #153CC8",
"C  c #0934D2",
"Z  c #2531C7",
"A  c #0532E6",
"S  c #2616EE",
"D  c #5D00C6",
"F  c #7A06CA",
"G  c #710ACE",
"H  c #782AD8",
"J  c #5000EE",
"K  c #6C09FB",
"L  c #413BE7",
"P  c #762FF7",
"I  c #1B51CC",
"U  c #0546D8",
"Y  c #104DCF",
"T  c #2749C6",
"R  c #0368D9",
"E  c #0F70CF",
"W  c #3267CD",
"Q  c #0347E8",
"!  c #0748F6",
"~  c #0755FA",
"^  c #1750F0",
"/  c #2749EC",
"(  c #2646F9",
")  c #2754FB",
"_  c #345BE4",
"`  c #0378E8",
"'  c #026AF8",
"]  c #0074FC",
"[  c #037AF8",
"{  c #116DF5",
"}  c #2E6BF7",
"|  c #4957CE",
" . c #4B68D0",
".. c #656AD4",
"X. c #4F6EF7",
"o. c #5E68EF",
"O. c #8502B9",
"+. c #9305B0",
"@. c #8129BE",
"#. c #B16EB2",
"$. c #8C58A3",
"%. c #8601C9",
"&. c #9604CA",
"*. c #8E10D4",
"=. c #A407D4",
"-. c #AD0AD3",
";. c #8D35D0",
":. c #AC30D4",
">. c #9803E9",
",. c #930AF5",
"<. c #BA0AE4",
"1. c #BA17E7",
"2. c #AD0BF5",
"3. c #9630F5",
"4. c #A43BF9",
"5. c #AF30ED",
"6. c #C603D7",
"7. c #C607E9",
"8. c #C903F4",
"9. c #CC15F6",
"0. c #D033EF",
"q. c #8E4CD3",
"w. c #B84CDC",
"e. c #AF76CC",
"r. c #9C56F9",
"t. c #9D47FC",
"y. c #A84BF5",
"u. c #B859FB",
"i. c #9370F1",
"p. c #B16DF6",
"a. c #9B61DC",
"s. c #D64AFD",
"d. c #C85DFE",
"f. c #D758FF",
"g. c #C749F1",
"h. c #E45BFF",
"j. c #C869FD",
"k. c #DB67FE",
"l. c #C979FC",
"z. c #D975FE",
"x. c #D671ED",
"c. c #EB71FA",
"v. c #C75FDA",
"b. c #258EBB",
"n. c #1BD4BD",
"m. c #4DC2BE",
"M. c #0595D9",
"N. c #1995D8",
"B. c #0990CD",
"V. c #2B90D8",
"C. c #19A8DA",
"Z. c #08A5DC",
"A. c #29ADD5",
"S. c #0389E9",
"D. c #1488E8",
"F. c #0295ED",
"G. c #1B9CE5",
"H. c #028BF3",
"J. c #0185FD",
"K. c #008CFD",
"L. c #0888F9",
"P. c #1689FD",
"I. c #0193F4",
"U. c #0596FA",
"Y. c #1696F6",
"T. c #259AE4",
"R. c #2C90F2",
"E. c #03A8EA",
"W. c #04B9EC",
"Q. c #03A8FA",
"!. c #18A6FA",
"~. c #04B7F8",
"^. c #14B5F7",
"/. c #19B5E9",
"(. c #26A5E8",
"). c #27B9E6",
"_. c #33B7F9",
"`. c #488BCC",
"'. c #7283DE",
"]. c #4B8AF5",
"[. c #728AF4",
"{. c #52B3EA",
"}. c #79ABFF",
"|. c #44A3DB",
" X c #36D2D0",
".X c #02C5ED",
"XX c #04C4F6",
"oX c #15D1F8",
"OX c #2FCBF2",
"+X c #00F8ED",
"@X c #04E9FB",
"#X c #18ECFF",
"$X c #02F9F9",
"%X c #19F5FC",
"&X c #00E0E8",
"*X c #29E7FA",
"=X c #27F5FE",
"-X c #38FBFD",
";X c #38EAF5",
":X c #00DEDB",
">X c #48CED6",
",X c #4CD0FC",
"<X c #66C9FA",
"1X c #6FD2F1",
"2X c #49EDF5",
"3X c #76EAFB",
"4X c #7AF5F6",
"5X c #67E0FF",
"6X c #9D87B8",
"7X c #B48BFB",
"8X c #B0A7F6",
"9X c #A2A6DF",
"0X c #CFA9D4",
"qX c #C987FE",
"wX c #DB88FB",
"eX c #C698FB",
"rX c #D797FA",
"tX c #D292E8",
"yX c #E788FC",
"uX c #EB98FF",
"iX c #F38DF8",
"pX c #D7B6FD",
"aX c #D2A9F5",
"sX c #E7A7FC",
"dX c #FAA7FE",
"fX c #FCB9FF",
"gX c #EFADF6",
"hX c #C699D6",
"jX c #A9CEDC",
"kX c #92DBFB",
"lX c #ACD5EB",
"zX c #84E7FC",
"xX c #8DFEFE",
"cX c #89FEF6",
"vX c #9CFEF3",
"bX c #94FEFE",
"nX c #9AFDFE",
"mX c #99F8F9",
"MX c #95F1F0",
"NX c #A5EAFD",
"BX c #ACFDFF",
"VX c #A5F8FA",
"CX c #B7FCFB",
"ZX c #AAE6ED",
"AX c #E7C5FE",
"SX c #FDCAFD",
"DX c #FBD5FF",
"FX c #EFD0FF",
"GX c #C4FDFF",
"HX c #CBFEFF",
"JX c #C8F6FC",
"KX c #D5FFFF",
"LX c #DBFDFE",
"PX c #FCF5FF",
"IX c #EDFFFF",
"UX c #DEC3F5",
/* pixels */
"                                                                                                                        ",
"                                                                                                                        ",
"                                                                                                                        ",
"                                                                                                                        ",
"                                                                                                                        ",
"                                                        ZX                                                              ",
"                                                        BXzX                                                            ",
"                                                      VXnXbX                                                            ",
"                                                    ZXBXxXnX1X                                                          ",
"                                                  lXCXbXbXbX3X                                                          ",
"                                                jXGXbXbXbXbXbX|.                                                        ",
"                                                ZXBXxXbXbXmXVX<X                                                        ",
"                                              lXHXnXbXbXbXcXVXzXR                                                       ",
"                                            jXLXBXnXbXbXbXbXvXxXR.                                                      ",
"                                            JXHXVXnXbXbXbXnXvXbX<Xc                                                     ",
"                                          jXHXCXnXnXbXbXnXnXnXnX3XR                                                     ",
"                                        jXHXHXVXbXnXbXnXnXnXnXnXcXY./                                                   ",
"                                        CXJXKXvXbXbXbXbXnXnXbXvXCX<XU                                                   ",
"                                      BXVXJXLXvXbXbXnXnXbXbXxXMXLXNX`                                                   ",
"                                    kXzXkXGXLXCXbXnXbXbXbXcXxXVXLXLXF.`                       UX                        ",
"                                  1X<X] D.kXLXJXxXnXbXnXnXcXvXNXKXKXZ.[                   = hXDXhX                      ",
"                                  ,XS.P.' |.GXKXvXnXbXbXnXnXbXnXLXNXF.P.E               $.pX8XpXeX                      ",
"                                {.Q.L.{ P.` kXLXCXvXxXxXbXnXbXvXGX{.K.U.H.            6XpXaX7XAXeX                      ",
"                                T.Q.H.` P.[ |.CXJXVXbXxXbXVXbXvXNXI.[ U.Q.          6XsXrXeX7XFXeX                      ",
"                                M.~.S.S.K.L.` kXHXVXbXxXbXbXnXbX<XS.[ H.~.        hXsXrXrXeXi.FXeXG                     ",
"                                N.^.S.H.J.P.` {.CXBXmXnXbXxXbXnX_.J.D.I.!.      aXfXyXrXqXeXi.AXeXH                     ",
"                  6X              !.H.K.K.P.J.R.mXBXmXnXxXcXvXkXH.L.D.U.!.      dXc.wXqXqX7Xi.aXeXH                     ",
"                  SXq.+           ).P.K.K.L.J.D.<XcXBXcXcXbXBX{.` Y.] U.(.    DXuXwXwXqX7Xp.i.aXqX3.                    ",
"                  SXuXG f         /.U.J.U.H.L.[ ,X*XNXVXcXCXNXB.D.H.' U.A.    DXrXl.z.l.qXp.i.rXp.3.                    ",
"                0XfXfXrXJ H       C.Q.H.H.L.I.H.).%X,XVXCXKX<XS.Y.J.' Y.      fXl.qXz.l.qXp.r.sXj.3.q.                  ",
"                hXdXtXDXp.K P 0   (.Q.H.H.H.Q.I.^.=X@X2XHXBXQ.K.Y.` ' !.      iXl.l.z.x.tXp.j.dXuXg.;.                  ",
"                0XdXyXaXDX;.K P u m !.U.Y.S.Q.F.W.%X#X&X4X3XU.U.K.' ] (.    wXc.j.j.j.j.sXrXc.j.d.y.z                   ",
"                tXdXyXi.AXAXd P F | Y.U.U.F.Q.Q.).-X#X+X2X5XH.P.K.' [ (.    x.k.d.f.u.p.DXgX5.=.,.d *                   ",
"                tXyXl.u.i.DXrXD K l G.U.U.I.H.~.;X3X%X@X;X,XH.P.J.' R.V.    c.f.f.h.u.uXPXfX0.w.*.k                     ",
"                tXyXp.p.t.eXSXe.D d T.Q.I.U.Y.E.;XCX2X&X=XOXK.P.] ] R. .  w.h.f.s.u.j.z.SXdX<.@.j *                     ",
"                yXc.r.r.r.a.gXdXd.d T.~.E.F.oX.XNXIXxX+X-XOXU.H.[ ] ` x   w.s.g.g.d.5.&.c.x.&.k k                       ",
"              #.iXk.r.t.r.q.sXyX;.F W ~.~.W.#X@XmXIXBX+X-XOXU.S.' { ].    g.g.d.k.y.,.1.0.s.+.%.i                       ",
"              #.c.f.t.y.t.t.iX;.d k  .^.~.Q.~.W.:XJX4X+X%X~.U.[ { ~ ]. .u 0.h.z.:.>.2.1.0.9.p O.                        ",
"              #.c.h.4.4.3.y.k.%.F g M !.~.Q.U.!.&X5X2X$X#XQ.P.{ ) ~ X.[.f g.h.*.=.2.9.9.9.&.a a                         ",
"              aXiXs.4.4.3.w.x.j G h z E.~.~.Q.^.~.*X=X$X@X!.] ~ ) ( X.o.N 0.1.>.2.<.8.9.-.h a                           ",
"              DXdX0.4.4.4.dXc.h *.j g M..X.XW.~.E.@X$X$X%XU.} ) ( ( ( o.L %.=.2.8.7.8.7.O.g p                           ",
"              PXSX9.s.,.5.dXx.+.k j g N.XX.XXX~.E.oX$X$X@XD.9XX.! ) ( } ( D -.8.8.1.7.-.O.g                             ",
"                PXyX7.5.-.0.+.+.j j p W ^..XXX~.Q.~.@X%X.X].lXA ) / ( ) ^ J 2.7.7.<.7.&.a i                             ",
"                0XDXc.1.7.6.+.t h +.g b ~..XXX~.Q.Q.oX=XF.].}.! ( ( ( ) / S ,.<.6.8.-.O.g *                             ",
"                  gXiX9.6.-.+.h h O.g l /.W.~.^.E.Z.oX/.U C T ) ! ! ( ( 8 L y.=.7.7.&.g i                               ",
"                    e.0.1.&.*.O.a g a u Z.XX~.B.B.Z.N.Y S N 6 A { ' ) Z 8 '.pX>.2.<.g s &                               ",
"                      v.:.-.&.O.p u z u B.^.M.E |.V.v Y B N 9 N ^ P.} 6 N ..8X>.2.=.u &                                 ",
"                      #.v.-.%.G u y a t m W.E R X.].v e 6 > 6 N N I e 6 9 8 N %.>.h i &                                 ",
"                        $.:.&.F j t & t m M.R U A U ^ e > < > 9 B w , > 6 9 r F %.s 1                                   ",
"                          $.:.O.&.g y & 5 n Y ! ~ Q U w > ; ; 7 Z q ; ; > - 1 D F u                                     ",
"                          . +.O.*.F y & 5 W U ! Q Q C w q : ; 7 V q O ; : - 0 D f $                                     ",
"             X X X X X>Xm. X>X..%.*.s $ i.W C Q U C w w q q O 3 T , O - ; < y 1 1                                       ",
">X>X2X-X-X-X-X-X-X=X*X*X Xn.OX].F *.s x }.I C Q U V 7 7 q q + 3 e O O O - $ $ $   I w                                   ",
"2X;X;XOXOX).)./.C.C.C.B.m 8X..c | f y 5 W I U Y Y q , , - : o 4 , o O - + # X 3 C Q Q q                                 ",
"B.B.N.N.G.N.G.G.N.G.T.E b o. .Y c r 1 $ > C R I e > : O - - X , < O + - O 4 T _ _ I Y e O `.,XOX XOXOXA.A.A.A.b.b.b.b.b.",
"        T.T.T.N.N.V.V.Y B 8 B C V V 0 1 < , c I - O - O O O # < : - O o q c  .'. .b 3 , , e {.*X#X*XoXoX                ",
"                    n w w Z V w q , : o # @ 3 e - - - O - + X + - - - o q w < o o - > > 4 X v OXoX.X                    ",
"                      2 3 2 2 2 @ @ @ # % @ 2 2 @ @ @ @ @ @ % # # + X X O - O O - : : +                                 ",
"                                                                                                                        ",
"                                                                                                                        "
};
