/* XPM */
static char *_b2d429064114369ab99e4b6b1542deeV1IpTy6LGpCVSlyi[] = {
/* columns rows colors chars-per-pixel */
"60 60 251 2 ",
"   c None",
".  c #7A2C5C",
"X  c #7A3C6B",
"o  c #912559",
"O  c #902F6B",
"+  c #A72B67",
"@  c #B62668",
"#  c #B82976",
"$  c #A83975",
"%  c #B63579",
"&  c #AF2E6E",
"*  c #AF1F5F",
"=  c #FB2A57",
"-  c #FE315D",
";  c #F2315E",
":  c #EA2C56",
">  c #C61E6F",
",  c #C72868",
"<  c #C73B6A",
"1  c #D93B6A",
"2  c #C72A77",
"3  c #D52876",
"4  c #C93777",
"5  c #D73A77",
"6  c #DF2860",
"7  c #EA3868",
"8  c #F53D6E",
"9  c #FE3B6C",
"0  c #FB3667",
"q  c #F82877",
"w  c #E83D76",
"e  c #FD3D73",
"r  c #F73975",
"t  c #EC2A6A",
"y  c #B04873",
"u  c #DA4C6B",
"i  c #D94779",
"p  c #DA597A",
"a  c #C34E74",
"s  c #EC426E",
"d  c #E5446E",
"f  c #FD446E",
"g  c #F4446D",
"h  c #E3447C",
"j  c #EA4778",
"k  c #F54573",
"l  c #FD4474",
"z  c #F64579",
"x  c #FE447C",
"c  c #FC4B7B",
"v  c #F84B77",
"b  c #F8567C",
"n  c #EA5778",
"m  c #FE7D7A",
"M  c #ED727A",
"N  c #FD837C",
"B  c #FB8678",
"V  c #EB8D77",
"C  c #BA3984",
"Z  c #BA3D91",
"A  c #C33C84",
"S  c #CB3D8D",
"D  c #C73786",
"F  c #D43B8A",
"G  c #CC3E93",
"H  c #D1358C",
"J  c #F83C83",
"K  c #E83796",
"L  c #E93692",
"P  c #F33EA3",
"I  c #954E8C",
"U  c #BB4986",
"Y  c #AA5481",
"T  c #BB5B85",
"R  c #B35498",
"E  c #9C759A",
"W  c #956A99",
"Q  c #AE6894",
"!  c #B675A8",
"~  c #AE71A9",
"^  c #C64389",
"/  c #DE4284",
"(  c #D8478A",
")  c #C95B8F",
"_  c #D75A87",
"`  c #CC4294",
"'  c #C94598",
"]  c #D84797",
"[  c #C85999",
"{  c #D85694",
"}  c #E4448C",
"|  c #E54884",
" . c #F54C83",
".. c #FC4B82",
"X. c #FB4987",
"o. c #E95789",
"O. c #F55384",
"+. c #FD5285",
"@. c #FD538C",
"#. c #FD5B8A",
"$. c #F65689",
"%. c #E54697",
"&. c #FA4B96",
"*. c #EA5995",
"=. c #F55592",
"-. c #FC5594",
";. c #F45A95",
":. c #FE5C94",
">. c #FC549B",
",. c #F35B9C",
"<. c #FE5B9D",
"1. c #F5569C",
"2. c #D96896",
"3. c #D07196",
"4. c #E56788",
"5. c #FA6887",
"6. c #FA7A87",
"7. c #E96798",
"8. c #FB6799",
"9. c #E97A99",
"0. c #FB7A98",
"q. c #DA58A3",
"w. c #CC52A3",
"e. c #E94AA5",
"r. c #F449A6",
"t. c #E856AA",
"y. c #FD5CA3",
"u. c #FD5EAB",
"i. c #FA58A7",
"p. c #F95DB1",
"a. c #DC68A8",
"s. c #DA79AC",
"d. c #DB75B9",
"f. c #CA6FB3",
"g. c #EB66A5",
"h. c #FE62A3",
"j. c #FE64AC",
"k. c #F767A6",
"l. c #E778A9",
"z. c #FF73A5",
"x. c #FF7BA3",
"c. c #F37CAB",
"v. c #FE7DAE",
"b. c #F975A9",
"n. c #FD64B3",
"m. c #FD6BB4",
"M. c #F96AB9",
"N. c #EA79B7",
"B. c #FD73B4",
"V. c #FD7CB3",
"C. c #FB71BB",
"Z. c #FD7CBD",
"A. c #F57AB9",
"S. c #EB6AB6",
"D. c #D97DC3",
"F. c #FE6DC6",
"G. c #FC74C5",
"H. c #FB7BC3",
"J. c #FE75CB",
"K. c #F87AC6",
"L. c #FE7CD6",
"P. c #E277C2",
"I. c #B682AC",
"U. c #B2A5BA",
"Y. c #FA8588",
"T. c #EE9889",
"R. c #F7918B",
"E. c #E8859B",
"W. c #FC839C",
"Q. c #F88797",
"!. c #EB9B98",
"~. c #FD9898",
"^. c #EF8888",
"/. c #FCA99B",
"(. c #F0A891",
"). c #D48EB1",
"_. c #E988A9",
"`. c #FB83A4",
"'. c #FD83AA",
"]. c #FC8AAB",
"[. c #F689A4",
"{. c #FE9AAD",
"}. c #FC95A7",
"|. c #EA87B8",
" X c #F987B9",
".X c #E996B9",
"XX c #FD93B4",
"oX c #FE9BB4",
"OX c #F998B8",
"+X c #EA91A7",
"@X c #FBA6A7",
"#X c #FFA3BB",
"$X c #FDA5B5",
"%X c #FDB5BA",
"&X c #EEAEAC",
"*X c #DA938F",
"=X c #ACACC6",
"-X c #CE89C5",
";X c #EB8AC1",
":X c #FF83C5",
">X c #FE8BCC",
",X c #F887C8",
"<X c #E995C8",
"1X c #FD92CC",
"2X c #FA9AC6",
"3X c #FF83D3",
"4X c #FC88D7",
"5X c #E793D2",
"6X c #FE92D3",
"7X c #FF9ADB",
"8X c #FF98D6",
"9X c #E58CD0",
"0X c #D9A9CC",
"qX c #D3B0CA",
"wX c #FFABC4",
"eX c #FDA7C9",
"rX c #FFB3CC",
"tX c #FDB9C8",
"yX c #FEA3DD",
"uX c #FDA9D3",
"iX c #FEB5D7",
"pX c #E9ADD0",
"aX c #FF8BE3",
"sX c #FE88E7",
"dX c #FF94EA",
"fX c #FF97E9",
"gX c #FF95F2",
"hX c #FE9AF3",
"jX c #FFABE4",
"kX c #FFA3E2",
"lX c #FFB9E7",
"zX c #FFBAF4",
"xX c #CFC4D9",
"cX c #FBC4CC",
"vX c #FFD5CB",
"bX c #FFC7D9",
"nX c #FFDAD8",
"mX c #FFE6D5",
"MX c #FFC7E7",
"NX c #FFD6EA",
"BX c #FFD7E3",
"VX c #FFD4FE",
"CX c #FFDAF3",
"ZX c #F4CCF0",
"AX c #FFE8E8",
"SX c #FFF6EA",
"DX c #FFE2FC",
"FX c #FEEDFE",
"GX c #FFE9F5",
"HX c #FFF7F9",
"JX c #EEEBFF",
/* pixels */
"                                                                                                                        ",
"                                                                                            =X                          ",
"                                                                                          CXHXFX                        ",
"                                                                                      E rX3.GXFXpX                      ",
"                                                                                    Q .Xp p BXbX.X                      ",
"                                                                                  I.OXp n u bX$XT Y                     ",
"                                                                                ).2X4.n 5.4.CX_.a 2.                    ",
"                                                                              E .X`.6.5.5.6.DX9.i _                     ",
"                                                                            ! |.9.].W.Y.Q.}.DX3.j h T                   ",
"                                                                          W |.c.0.oX}.}.$X#XMX2.v j )                   ",
"                                                                        ! ;Xv.x.`.W.tX$X#X#XMX4.b O.2.                  ",
"                                                                      E 2X X'.x.0.[.cXtXwX].bX4.O.@.7.y                 ",
"                                                                    ~ uX XXX#X].0.[.bXbX+XOXiX4.$.:.;.)                 ",
"                                                                    uX2XXXoXwXoX].].+XBXNXrXeX7.=.<.<.2.                ",
"                                                                  pX.XOXoXoXeXeXc.`.[.E.[.oXuX7.;.<.<.g.Q               ",
"                                                                0X<XXXXXoXwXeXiXXX].Q.Q.Q.oXeX7.;.<.<.k.3.              ",
"                                                              0X2XXXoXoX#XwXwXrX#XE.Q.Q.Q.#XeX7.=.-.<.k.s.              ",
"                                                            qXpXXX}.{.{.oX#XwXtXcX!.Q.Q.Q.wXeXo.O.@.-.k.a.              ",
"                                                          U.tX[.Q.Q.}.@X{.$X$X%XAX&X^.6.Y.rX2Xo. ...@.=.*.R             ",
"                  qXZXqXqX).                            xXGX!.Q.~.~.~.~.~.}.@X%XAX&XY.Y.Y.bXoXi z z ..O.o.2.            ",
"                ).iXbXwX2.l.|.<X                        HXnX*X^.R.R.~.~.~.@X@X@XnX/.N B V nX{.d 8 e e z  .7.            ",
"                .X4.Q.wX8.*.,.g.|.<X                  U.FXGX%X/.~.~.~.~.~.~.!.!./.R.B B T.mX}.1 0 0 0 9 l o.y           ",
"              ).+XM 6.XX8.=.y.y.h.g.N.d.              U.CXrXtX{.{.{.}.~.!.!.(./.T.V V V &XAXoX1 ; - - - 0 s a           ",
"              pXE.6.M W. X,.1.y.<.h.k.N.d.~             2Xi u n 5.W.}.$X%X%XvXvX/.T.(.(.mXSXoX1 ; = = - = 0 p           ",
"              2X9.6.6.0. Xk.k.k.j.j.u.k.g.N.3.          7.7 7 : 7 7 s b 8.XXiXMXNXbXvXSXSXSXrXi 7 = = = = : p           ",
"            I..X0.6.0.0.'.c.A.B.m.j.j.j.,.*.7.2.y       o.r ; = 0 0 9 e k j i _ 7.wXBXSXHXHXMX2X5.7 : = - : d T         ",
"            5X_.0.0.W.0.`. X:XZ.H.C.j.u.1.=.@. .7._     i w ; - - 0 9 e v v z z k d u 9.bXFXDXMXuX'.j : = = t 7.        ",
"            <Xc.x.0.`.W.'.XX8X XA.C.n.u.y.-.X.r e j _ y < d ; 0 9 e e l k k v x e e 8 o.rXFXVXf.T 9.x.8.l : 6 z.        ",
"          E ;XV.v.x.`.`.]._.iX2XZ.m.n.u.y.-.X.x 0 7 b n j g ; 0 8 l x c b O.+...x x k o.eXDX<X$ & @ 4 z.v.8.o.uX        ",
"          I.;XV.V.v.`.`.[.E.CXMXZ.m.u.i.>.&.x 9 9 0 7 c #.k 0 9 v ..@.-.:.:.=.=.-.X. .8.rXCXT % # # @ @ < 7.c.eXE       ",
"          9X|.V.V.V.'.[.[.E.GXCX,Xm.j.y.=.@.x l l 7 @.#.O.c 0 9 @.<.h.k.n.n.n.j.i.>.=.z.iXMX$ % # # # @ @ 4 _ .X        ",
"          5XN.V.V.V.'.`.Q.~.BXNXlXl.{ *.o.O.c +.@.:.O. .:.v 9 l >.n.C.G.G.J.F.F.n.u.,. XlX|.$ % C # # # # @ U |.        ",
"          5X|.c.'.`.W.W.Y.R.BXpXMX.X_ _ _ b.V.h.=.| , 5 X.x l ..y.M.J.L.4XsXL.L.F.C.g.6XlX3.y % C % D # 2 # [ Q         ",
"        ~ ,X'.W.W.W.W.Y.Y.^.BX.XeXMXlXMXlX2X7.4 , , * , X...v @.j.J.L.aXdXdXsXL.J.K.N.yXjX) % A C C D 2 2 C [ I         ",
"        s.'.0.6.Y.6.Y.Y.Y.R.BX.X|.2XeXVXiX{ @ @ @ @ @ , | @.z -.n.J.aXdXgXgXsXL.L.K.K.jXyXU A ^ A A D H D ' R           ",
"        |.0.6.m m Y.Y.N B @XbX_.c.c._.iX2.+ @ @ # # 2 3 | -.z -.m.J.aXfXhXgXsXL.L.K.K.jX,XU A S ^ ^ S S D [ I           ",
"        OXY.N B m N N M T.cXrXl.c.c._.lX) + + % # 2 3 3 F :. .<.C.3XdXhXhXgXsX4XJ.K.,XyXl.^ ^ ` ` ` ` G G [ X           ",
"      I.oX^.B B B N N R.%XBXuXOX Xc.s.MX) $ % # D H L L } <.X.-.C.3XfXhXhXgXaX3XG.G.>X6X[ ^ S ` ` ' ' G ' U             ",
"      qX$X6.m m 6.^.R.$XbXNXMXlXlX2X|.VXs.$ C S H L L L } y.@.-.C.3XdXfXgXdXaXL.G.C.6X,X^ ^ S ` ` ' ] ` w.O             ",
"      xX%X^.6.6.W.{.{.[.E.3.l.2. XlXiXVX<XU C D K P P K } h.-.-.m.K.7XfXdXaX4XJ.G.M.6XN.^ A S ` ' ] ' ' R               ",
"      JXcX%X%X#X'.8.v j i b.=.;.*.l.VXDXyX[ ' G e.P P %.} y.<.-.y.G.4X4XaXaXL.G.M.M.7X[ ^ A S G ' G ' ' R               ",
"      HXHXnX$Xu 7 r e  .h.B.<.<.k.a.<XVXlXd.` ] e.r.r.%.} ,.h.-.1.m.K.3X3XL.G.M.n.m.6X^ ^ A S G G w.Z f.                ",
"      JXFXE.u s 8 e x @. Xb.b.B.B.A.N.jXjX;X[ t.t.e.e.%.} =.h.=.-.h.C.H.G.G.C.n.i.m.Z.^ ^ A S G G ' R f.                ",
"        NXwXu g l .. .z.8X X X:XZ.:XA.1XzXkXa.q.t.e.e.%.} | z.$.@.-.j.B.m.m.n.u.,.B.g.4 A A S ` ' Z f.                  ",
"        U.MX9.j z ..=.1XyX1X6X>X6X:XH.:XVXjXa.q.t.%.%.%.} | z.$.+...:.h.j.j.y.1.1.B.( 4 4 S S ` ' R -X                  ",
"          pXuX| @.:.k.yX1X1X7X7X6X,X:X>X7X6Xl.a.q.%.] } | h 8.$.+.c +.:.8.h.<.>.=.z.i 5 4 ` S ` Z d.!                   ",
"          W 1Xj.=.,.B.yX1X8X7X7X6X>X,XkX,X6XA.{ { ] %.} | h 8.#.c c c +.:.<.>.-.=.8.5 5 F ( F G ' D.                    ",
"            R :Xk.g.Z.6X1X8X7X6X6X1X;XjXN. X:X{ ] ] } / i h 5.#.v c l v @.@.@.@.-.=.5 5 ( F ] G w.f.                    ",
"              d.K.t.3X,X,X1X>X,X,X|.jX1Xl.b.V.7.( ( ( / 5 h O.#.v l l l c c ....@. .i i ( ( F ` 9X                      ",
"              I d.K.K.>X,XN.:XH.N.,XzXV.7.7.z.z.| / | | h j O.+.k l l f f l l l +.z i ( ( F F q.-X                      ",
"                R 4X3XS.A.H.M.C.N.7XkX,.;.=.8.h.| h h j w s v b l f f f f f f l +.j 5 | / 5 F S.                        ",
"                  f.4XS.S.M.C.n.A.kXB.-.-...:.:.O.j w r w k v b l f f f g g f v b d 5 h w 5 ( 3.                        ",
"                    D.4XM.t.p.u.C.>X>.&.e r +.#.#.j w r r w j j s 8 7 s s 8 k v v d w w 5 4 )                           ",
"                      9X3Xt.r.i.m.y.X.J e r v #.$.j w w w 5 a y < < < 1 1 w w j h 5 5 3 3 4 Y                           ",
"                        P.J.%.r.>.J J q r 8 7 j h 5 5 4 & O X   X O O + @ , 4 4 4 2 3 3 > #                             ",
"                        I P.t.&.J q q q q t 1 < & & + o .               . o O + $ + + & + O                             ",
"                            w.K t q q q t , * o .                                                                       ",
"                            O C 2 3 3 > * o                                                                             ",
"                                O O                                                                                     ",
"                                                                                                                        "
};