/* XPM */
static char *result[] = {
/* columns rows colors chars-per-pixel */
"60 60 254 2 ",
"   c #3C0110",
".  c #58020B",
"X  c #48061B",
"o  c #550C1C",
"O  c #5D0C1D",
"+  c #570618",
"@  c #4F0814",
"#  c #670108",
"$  c #73030D",
"%  c #790203",
"&  c #6A0B14",
"*  c #650B1C",
"=  c #6C0D1C",
"-  c #680516",
";  c #770A17",
":  c #7A131A",
">  c #6A1417",
",  c #480422",
"<  c #590C24",
"1  c #5E142C",
"2  c #571728",
"3  c #541C34",
"4  c #5B1C33",
"5  c #591B38",
"6  c #4F1A33",
"7  c #6C0E23",
"8  c #650C26",
"9  c #740E24",
"0  c #631325",
"q  c #63142B",
"w  c #6B132C",
"e  c #63192B",
"r  c #6C1B2B",
"t  c #691625",
"y  c #721224",
"u  c #781326",
"i  c #721C2B",
"p  c #7B1C2C",
"a  c #771827",
"s  c #641C32",
"d  c #6C1C32",
"f  c #671C37",
"g  c #7B1D33",
"h  c #741B34",
"j  c #5A2237",
"k  c #69242B",
"l  c #79252C",
"z  c #63243A",
"x  c #682538",
"c  c #742233",
"v  c #792737",
"b  c #7C3537",
"n  c #6D3032",
"m  c #5D2743",
"M  c #672B41",
"N  c #732C41",
"B  c #7D3445",
"V  c #8C0002",
"C  c #860508",
"Z  c #970204",
"A  c #880915",
"S  c #88151A",
"D  c #971718",
"F  c #9B0F13",
"G  c #A50404",
"H  c #B80000",
"J  c #AA1508",
"K  c #B81906",
"L  c #BB0618",
"P  c #A61617",
"I  c #B71B16",
"U  c #972619",
"Y  c #8D261C",
"T  c #BA2809",
"R  c #A9241A",
"E  c #B62318",
"W  c #AF3314",
"Q  c #8A0E23",
"!  c #841D2B",
"~  c #8B1A2B",
"^  c #871924",
"/  c #941C23",
"(  c #961724",
")  c #841930",
"_  c #A31B25",
"`  c #B91823",
"'  c #872629",
"]  c #982529",
"[  c #98322B",
"{  c #8D2B34",
"}  c #842834",
"|  c #883839",
" . c #973737",
".. c #932C30",
"X. c #A62727",
"o. c #B72A26",
"O. c #BB3729",
"+. c #A63A37",
"@. c #B0352F",
"#. c #C31513",
"$. c #C72606",
"%. c #D83806",
"&. c #C72913",
"*. c #C63318",
"=. c #D83A17",
"-. c #CF2F03",
";. c #E23D0F",
":. c #C63727",
">. c #CB3728",
",. c #95423C",
"<. c #A9463B",
"1. c #B84A35",
"2. c #A9543A",
"3. c #B6533C",
"4. c #B6512B",
"5. c #BD603B",
"6. c #C94618",
"7. c #D64717",
"8. c #D44D12",
"9. c #E74B05",
"0. c #EA5906",
"q. c #E44617",
"w. c #EF5714",
"e. c #D86F14",
"r. c #F97715",
"t. c #F1700A",
"y. c #CC502C",
"u. c #E65629",
"i. c #DB7537",
"p. c #D56E2B",
"a. c #E56C39",
"s. c #E5753D",
"d. c #E46826",
"f. c #893946",
"g. c #943B45",
"h. c #993D50",
"j. c #A43944",
"k. c #974645",
"l. c #984B51",
"z. c #9C5259",
"x. c #A64845",
"c. c #B64B46",
"v. c #A85548",
"b. c #B75748",
"n. c #A75554",
"m. c #B75B55",
"M. c #B84B55",
"N. c #BC654C",
"B. c #B96548",
"V. c #B86754",
"C. c #B16A57",
"Z. c #B36666",
"A. c #C65A46",
"S. c #C65B54",
"D. c #C46849",
"F. c #C87249",
"G. c #D9774A",
"H. c #C76757",
"J. c #C97657",
"K. c #D57C58",
"L. c #D16B44",
"P. c #E47544",
"I. c #E67949",
"U. c #E37D53",
"Y. c #E87A56",
"T. c #E87045",
"R. c #C67467",
"E. c #D27B63",
"W. c #D87170",
"Q. c #EC7B6C",
"!. c #F98909",
"~. c #F49712",
"^. c #FBB006",
"/. c #E68A31",
"(. c #E49127",
"). c #F9CA06",
"_. c #FAD30C",
"`. c #FAE516",
"'. c #FFD824",
"]. c #BF8A7A",
"[. c #D7865B",
"{. c #DF9252",
"}. c #E9864C",
"|. c #E48254",
" X c #EA8454",
".X c #E68C5B",
"XX c #EA8C5B",
"oX c #E88756",
"OX c #E8955B",
"+X c #F09252",
"@X c #F1A35D",
"#X c #CB8868",
"$X c #DB8C63",
"%X c #D88766",
"&X c #DD9468",
"*X c #D9977A",
"=X c #CF9574",
"-X c #E58E62",
";X c #ED9B6C",
":X c #E89768",
">X c #F29E6D",
",X c #F39E65",
"<X c #E99873",
"1X c #EE9874",
"2X c #EAA46C",
"3X c #F2A16D",
"4X c #F4AB67",
"5X c #EBA373",
"6X c #EBAB79",
"7X c #F4A373",
"8X c #F3A975",
"9X c #F5AB7B",
"0X c #F9A979",
"qX c #F5B27E",
"wX c #F8B879",
"eX c #EDB47A",
"rX c #D4A97E",
"tX c #D9AA8B",
"yX c #E9AB86",
"uX c #EBBA88",
"iX c #F5B383",
"pX c #F5BC8C",
"aX c #F8B885",
"sX c #ECBB93",
"dX c #F7BD93",
"fX c #ECAE8A",
"gX c #CF9083",
"hX c #F8C48C",
"jX c #EBC498",
"kX c #F5C393",
"lX c #F5CA9B",
"zX c #FACC9B",
"xX c #F8C695",
"cX c #FAD39D",
"vX c #F6D299",
"bX c #ECC9A7",
"nX c #F8CEA3",
"mX c #F6D4A5",
"MX c #F9D4A3",
"NX c #F5DBAC",
"BX c #F9DCAB",
"VX c #F9D8A7",
"CX c #FBDEB2",
"ZX c #F6DBB2",
"AX c #F5C9B3",
"SX c #FBE3B5",
"DX c #FBE4BB",
"FX c #F9E6B7",
"GX c #FAECB9",
"HX c #FBECC3",
"JX c #FBE9C6",
"KX c #FBF4CC",
"LX c #FCF6D3",
"PX c None",
/* pixels */
"PXPXPXPXPXPXPXPXPXPXPXPXPXPXPXPXPXPXPXPXPXPXPXPXPXPXPXPXPXPXPXPXPXPXPXPXPXPXPXPXPXPXPXPXPXPXPXPXPXPXPXPXPXPXPXPXPXPXPXPX",
"PXPXPXPXPXPXPXPXPXPXPXPXPXPXPXPXPXPXPXPXPXPXPXPXPXPXPXPXPXPXPXPXPXPXPXPXPXPXPXPXPXPXPXPXPXPXPXPXPXPXPXPXPXPXPXPXPXPXPXPX",
"PXPXPXPXPXPXPXPXPXPXPXPXPXPXPXPXPXPXPXPXPXPXPXPXPXPXPXPXPXPXPXPXPXPXPXPXPXPXPXPXPXPXPXPXPXPXPXPXPXPXPXPXPXPXPXPXPXPXPXPX",
"PXPXPXPXPXPXPXPXPXPXPXPXPXPXPXPXPXPXPXPXPX6 3 6 6 3 PXPXPXPXPXPXPXPXPXPXPXPXPXPXPXPXPXPXPXPXPXPXPXPXPXPXPXPXPXPXPXPXPXPX",
"PXPXPXPXPXPXPXPXPXPXPXPXPXPXPXPXPXPXPXPXPXj 3 5 j 5 5 j PXPXPXPXPXPXPXPXPXPXPXPXPXPXPXPXPXPXPXPXPXPXPXPXPXPXPXPXPXPXPXPX",
"PXPXPXPXPXPXPXPXPXPXPXPXPXPXPXPXPXPXPXPXPXm j 5 3 4 j j PXPXPXPXPXPXPXPXPXPXPXPXPXPXPXPXPXPXPXPXPXPXPXPXPXPXPXPXPXPXPXPX",
"PXPXPXPXPXPXPXPXPXPXPXPXPXPXPXPXPXPXPXPXPXf z z z k s < PXPXPXPXPXPXPXPXPX5 5 6 PXPXPXPXPXPXPXPXPXPXPXPXPXPXPXPXPXPXPXPX",
"PXPXPXPXPXPXPXPXPXPXPXPXPXPXj 3 PXPX5 PXPXq f w q < PXPXPXPXPXPXPXPXPXPXPX4 f f f 3 PXPXPXPXPXPXPXPXPXPXPXPXPXPXPXPXPXPX",
"PXPXPXPXPXPXPXPXPXPXPXPXPXPXPXj 5 PXPXPXPXPXPXPXPXPXPXPXPX1 q q PXPXPXf c f x x x 4 PXPXPXPXPXPXPXPXPXPXPXPXPXPXPXPXPXPX",
"PXPXPXPXPXPXPXPXPXPXPXPXPXPXPXPXPXPX1 1 1 q e PXPXPX8 < d g g v c PXPXc v c d e e 1 s PXPXPXPXPXPXPXPXPXPXPXPXPXPXPXPXPX",
"PXPXPXPXPXPXPXPXPXPXPXPXPXPXPXPXPXg h w q h 2 PXPX< p p ! ~ ! ! l PX< g d c d i l i } x PXPXPXPXPXPXPXPXPXPXPXPXPXPXPXPX",
"PXPXPXPXPXPXPXPXj j j PXPXPXPXPX< 2 < o o o O * 7 ! ] / ] / ^ ! y * 9 ) p r l h l } } PXPXPXf g h f PXPXPXPXPXPXPXPXPXPX",
"PXPXPXPXPXPXPXPXPXPXPXPXPXPXe h 9 7 y a * r t t * & A ' ^ : : - # & : ~ ~ ^ p a g p 0 PXPXPXPXd d 1 2 PXPXPXPXPXPXPXPXPX",
"PXPXPXPXPXPXPXPXPXPXPXPXPXPXPXPXw w y * u # & ^ $ | | % : : $ ' l $ ; $ $ : u u 9 O PXPXPXPXPXPXPXPXPXPXPXPXPXPXPXPXPXPX",
"PXPXPXPXPXPXPXPXPXPXPXPXPXPXPXPXPX< < t - l.' ..% gXAXY / ] V b.H.% '  .; ; & . + 0 w t t q 0 0 PXPXPXPXPXPXPXPXPXPXPXPX",
"PXPXPXPXPXPXPXPXPX1 d h h x PX7 y ^ a ! % bX].V U bXLXtXV 1.Z #XiXV [ E.Y A S + + ) l i i i i r 1 PXPXPXPXPXPXPXPXPXPXPX",
"PXPXPXPXPXPXPXPX1 d r d h } y ; ( _ ..A k.HXbXZ N.JXLXZXb.1.1.bXFX2.<.yXU U D = & ( ~ p h l a i i 1 PXPX2 5 PXPXPXPXPXPX",
"PXPXPXPXPXPXPXPXs i g g p f.p A P o.@.( V tXCX2.%XKXLXKX*X4.*XGXGX=X#XsXO.O._ ; & ] _ / ~ ! a 9 * o PXPXs 1 2 PXPXPXPXPX",
"PXPXPXPXPXPXPXPXq h g g i i - ^ X.X.X._ [ Z bX=XgXLXKXLXbX4.mXKXGXjXjXnXZ X.D ( S & ] X.~ 9 = * o PXPXPXPXPXPXPXPXPXPXPX",
"PXPXPXPXPXPXPXPXPXPXPXO w 0 O Q _ _ / ] 4.T jXjXsXLXJXJXFXrXSXHXFXSXFXGX#XG @.o.C ; & = 8 + + + o 0 1 PXPXPXPXPXPXPXPXPX",
"PXPXPXPXPXPX4 z PXPXPXy u g 9 ~ G b.C.U W {.BXSXFXJXHXDXGXGXFXFXFXCXNXBXCX#XH :. .D S * + y 9 8 8 w w 1 PXPXPXPXPXPXPXPX",
"PXPXPXPXPXPX1 1 PXPXo g g 8 - / G <X2XJ 4.hXMXBXDXDXDXFXFXFXSXSXCXNXNXBXVXBX*XZ U.O.D A ; ~ Q 9 9 7 8 w < PXPXPXPXPXPXPX",
"PXPXPXPXPXPX4 f PXPX< 7 w 7 ^ C :.8XeXW F.vXxXBXSXSXDXSXSXSXZXNXBXBXBXMXMXmXFX=Xu.A.V S > ' _ Q 9 y 8 < PXPXPXPXPXPXPXPX",
"PXPXPXPXPXPXPXs PXPX* 9 u u X.y.p.3XeX4.[.cXhXvXNXNXBXCXSXBXBXBXBXMXMXMXMXzXZXuXy.O.] ; . * Q ( : - < PXPXPXPXPXPXPXPXPX",
"PXPXPXPXPXPXPXPXPXPXw g u X.1.-X}.@XwXF.:XxXdXdXmXNXNXBXVXBXVXMXMXMXMXcXnXzXMXzXA.R Y S ( S > * - = O X < < < PXPXPXPXPX",
"PXPXPXj PXPXh.n.PXPXt 7 a ] y.>X@XOXwXeX9XaXaXaXxXMXBXdXjXVXMXMXnXzXMXMXMXlXAXnXD.Z X.X.X.X.Y # = = 7 u 9 9 w w PXPXPXPX",
"PXPXPXM PXi j.M.z.PXw l y ' R F.wX2XwXaX9XiXiXaXhXcXcXeXaXcXcXcXzXnXnXzXzXlXCXlXA.E :.o.o.o.D # # & ! Q Q 9 w 8 PXPXPXPX",
"PXPXPXPXPXx j.M.g.+ t l } S F L.wXwX8X7X9X0XiX0XiXhXxX8X6XzXzXzXnXxXzXnXlXlXnXsXy.>.:.:.P D ; $ - . ^ Q Q Q 9 < < PXPXPX",
"PXPXPXPXPXPXi h.PXt ! c.S.S b.;X2X2X3X3X8X9X9XiXiXaXaX>X8XaXlXMXzXzXxXxXxXhXkXfXG :.:.P F D A D D S $ ) 9 * + 8 PXPXPXPX",
"PXPXPXPXPXPXPXPXPXr ! A.Q.] 1X9X2X2X7X8X8X9X9X9X9X9X8X>X5XeXpXzXdXxXxXdXdXdXkXdXD.H I I E P P E I P D $ - . + < PXPXPXPX",
"PXPXPXPXPXk.Z.Z.  2 - ' H.c.C.9X;X7X7X7X7X9X9X7X8X7X7X>X1X7X9X6XaXxXkXdXdXpXpXpXdX7XW &.>.J *.&.E I I F A - 7 9 8 PXPXPX",
"PXPXPXPXj f.n.W.b + d 7 p +.%XfX[.L.K.U.-X7X7X7X7X0X>X>X>X7X0X7XiXdXkXpXpXaXaXwXuXhX;XH u.6.#.&.*.T P F ; # * 7 * PXPXPX",
"PXPXPXPXPX5 n n.Z.@ e g l ' V.=XsXyXE.Y.Y.<X7X0X7X5X>X>X>X7X>X0X0XaXdXaXaXiXfXiX.XG.4X}.8.W H E &.I P C Z C ; A A A PXPX",
"PXPXPXPXPXPXj n z.x + r { ..b.$XyXdXnX-XY.1X7X>X3X8X>X>X>X>X7X>X>X0XiXaXiX9XiX7X|.P.2XeX%.&.J J J K J J L F ; S _ ( PXPX",
"PXPXPXPXPXPXPXPXPXPXPXPX} ] [ v.#X6XuXaXP.|.[.|.K.>X.X|.:X0X3X>X>X7X>X0X9XiXiX>X}.I.@X{.-.7.T J #.K &.$.K J C ; _ PXPXPX",
"PXPXPXPXPXB f.l.Z.PXPXr } } ..] S b.N.<X%XY.Y.Y.|.-X|.|.XX7X>X>X0X1X|.0XiXyX7X-XY.I.4Xi.-.=.$.K =.$.q.q.-.&.J I L ; PXPX",
"PXPXPXPXM f.f.g.m.W.PXPXl } ' { ..[ V J.;XI. XU.oXoX|.|.XX-X:X3X>XY.|.;XU.G.;X-XI.}.4Xp.u.$.$.K ;.%.w.r.9.-.#.&.P A PXPX",
"PXPXPXPXM B f.f.| n.Z.k . i p u l ] R.fX:XI. X X|.oXY. XXXOX,X3X.XT. XXXT.T.-XoXI.OX/.r.d.$.$.=.;.9.0.!.t.9.;.#.` A PXPX",
"PXPXPXPXm N B f.g. .m.l.} y p ! ..u C.fXyX.X XoXXX XXXoXXX,X,X3XoXI. X XT.a.U.U.s./.d.d.u.&.$.w.9.0.!.^.^.!.9.$.L A PXPX",
"PXPXPXPXPXj n f.f.g.g.x.g.' a ! { l . # C.1X,X+XXX,X,X,X>X,X,X-XoX|. XI.T.a.P.P.|.+Xs.d.$.$.%.0.t.t.~.^.).^.t.q.R A PXPX",
"PXPXPXPXPXz j f.b v { } | } i i r w a p % &XwXhXwX8X4XeXwX}.I.I.I.Y.Y.s.s.a.a.@X+Xi.+Xa.$.&.;.0.!.!.^.).).).~.7.F ( PXPX",
"PXPXPXPXPXPXPXPXv v c v b 2 X X X , 0 a ) <X9XhXvXhXvXhX3XT.Y.P.Y.XXI.s.a.s.4X}.e.+X/.8.7.%.%.r.!.~.)._._._.~.H X./ PXPX",
"PXPXPXPXPXPXPXPXPXPXPXPX2 X X , , , @ . - A D.$XzXxXxXhXwX9XqXeXwX+XP.s.s.@X{.i.@Xs.8.7.8.w.0.~._._._._.`.'.!.#.` ; PXPX",
"PXPXPXPXPXPXPXPXB f.f.PX2 3 , X X o | v.S.2.D R fXVXcXcXcXvXvXvX[.i.oX{.@X+X+X@Xa.8.8.*.6.r.t.~.~.(.(.(.(.(.T I A ; PXPX",
"PXPXPXPXPXPXz x f.g.l.f.2 j 2 X   2  .<.H.K.A.V N.MXFXZXNXNXmXjXeXuXkXqXOXe.i.6.-.=.&.y./.s.d.7.L L #.#.Z V A.H.<...PXPX",
"PXPXPXPXPXPXz B v v } v X X k n 2 @ t ..S b.J.@.G J.mXHXJXHXHXFXGXGXSXxX6X{.G.G.G.4././.p.y.:.o.O.*.O.U : H.K.b.+.+.' PX",
"PXPXPXPXPXPXPXz v t k N j X 4 w 0 , t l  .[ c.<.D.3.#XBXZXZXSXZXZXZXNXVXhXhXwXeX[.L.|.4.6.:.R S S U : . k.b.X.+.+.[ } PX",
"PXPXPXPXPXPXPXPX3 f k c k , X o + X @ + + ; ' ..v.%XpXzXmXNXmXmXBXmXMXlXjXhXuXeXqX-Xy.y.3.1.W [ Y # > k.<.+.c.<...l PXPX",
"PXPXPXPXPXPXPXPXPXPXs PXPXk | ,.v.m.n.l k.v.N.J.[.&XeXuXkXnXnXjXuXjXtXyXaXeX6X6X2X&XOX[.$X[.L.A. .' b.S.+.'  .' ' PXPXPX",
"PXPXPXPXPXPXPXPXPXPXPXPXz.m.b.A.D.K.%XE.D.[.-X>X8XeXuX%Xv.B.E.&X$X[.[.B.-X:X$X:X5X&X2X2X3X;XD.3.b. .x.j.{ l PXPXPXPXPXPX",
"PXPXPXPXPXPXPXPXPXj 6 n | v.V.R.J.J.E.:XJ.#X1X-X$X[.#X$X2X&X&X&X2X5X5X&X:X:X$X$X#X[.%X[.[.H.b.b.{ } | l PXPXPXPXPXPXPXPX",
"PXPXPXPXPXPXPXj z z 1 2 4 < e k v b b | k.l ,.x.2.5.[.[.[.[.:X5X&X&X%X[.[.K.F.F.i.D.B.v.| m.c. .v PXPXPXPXPXPXPXPXPXPXPX",
"PXPXPXPXPXPXPXj M z 4 3 5 2 e r r i i i < @ v.N.B.5.B.F.F.J.F.K.%XK.%XN.J.$XK.[.[.J.,.# S.W.j.PXPXPXPXPXPXPXPXPXPXPXPXPX",
"PXPXPXPXPXm PXPXPXPXj 6 4 s r c v k l n n n ,.V.V.N.F.D.F.D.D.F.J.N.| v.b.3.2.2.m.l.,.h.} } PXPXPXPXPXPXPXPXPXPXPXPXPXPX",
"PXPXPXPXPXPXPXPXPXPXPXPXPXPXPXPXt k b | x.n.v.v.v.N.B.B.N.N.B.B.D.H.v.D.K.K.J.Z.Z.PXPXB j PXPXPXPXPXPXPXPXPXPXPXPXPXPXPX",
"PXPXPXPXPXPXPXPXPXPXz x N PXPXPXl.x.<.<.+.<.b.b.m.V.v.v.C.V.V.N.V.PXPXPXPXPXPXPXPXPXPXPX5 z PXPXPXPXPXPXPXPXPXPXPXPXPXPX",
"PXPXPXPXPXPXPXPXPXj j M N PXPXPXPXk.k.<.<.c.v.m.Z.PXPXPXPXPXPXPXPXPXPXPXPXPXPXPXPXPXPXPXPXPXPXPXPXPXPXPXPXPXPXPXPXPXPXPX",
"PXPXPXPXj PXPXPXPXPXPXPXPXPXPXPXPXPXPXPXPXPXPXPXPXPXPXPXPXPXPXPXPXPXPXPXPXPXPXPXPXPXPXPXPXPXPXPXPXPXPXPXPXPXPXM 5 PXPXPX",
"PXPXPXPXPXPXPXPXPXPXPXPXPXPXPXPXPXPXPXPXPXPXPXPXPXPXPXPXPXPXPXPXPXPXPXPXPXPXPXPXPXPXPXPXPXPXPXPXPXPXPXPXPXPXPXPXPXPXPXPX",
"PXPXPXPXPXPXPXPXPXPXPXPXPXPXPXPXPXPXPXPXPXPXPXPXPXPXPXPXPXPXPXPXPXPXPXPXPXPXPXPXPXPXPXPXPXPXPXPXPXPXPXPXPXPXPXPXPXPXPXPX"
};
