/* XPM */
static char *lavawall11703565855[] = {
/* columns rows colors chars-per-pixel */
"60 60 256 2 ",
"   c #0E0B0B",
".  c #0C0606",
"X  c #140301",
"o  c #1C0401",
"O  c #150B04",
"+  c #1B0C05",
"@  c #130D0D",
"#  c #1C0C0B",
"$  c #14060C",
"%  c #0E100C",
"&  c #14120D",
"*  c #1C130B",
"=  c #181608",
"-  c #1C0D13",
";  c #130B13",
":  c #151212",
">  c #1C1413",
",  c #1C1A15",
"<  c #1C151B",
"1  c #1D1B1B",
"2  c #141916",
"3  c #0E1917",
"4  c #240403",
"5  c #2B0101",
"6  c #240B04",
"7  c #230E0D",
"8  c #2A0A09",
"9  c #330201",
"0  c #3C0201",
"q  c #330B03",
"w  c #3B0B03",
"e  c #330D0B",
"r  c #3C0B0A",
"t  c #24130C",
"y  c #2C130D",
"u  c #231A0E",
"i  c #2B1A0D",
"p  c #281505",
"a  c #331304",
"s  c #3C1203",
"d  c #33140B",
"f  c #33190D",
"g  c #3D1B0D",
"h  c #3B140A",
"j  c #230E12",
"k  c #280D17",
"l  c #370D15",
"z  c #231514",
"x  c #2C1514",
"c  c #241A15",
"v  c #2C1C14",
"b  c #24151A",
"n  c #2A151B",
"m  c #251C1B",
"M  c #2B1C1B",
"N  c #331513",
"B  c #3B1513",
"V  c #331B15",
"C  c #3B1B14",
"Z  c #33151B",
"A  c #331D1B",
"S  c #3C1B1B",
"D  c #1E211D",
"F  c #24220D",
"G  c #2B2116",
"H  c #24221B",
"J  c #2C221C",
"K  c #262417",
"L  c #342215",
"P  c #34231C",
"I  c #3B231C",
"U  c #33291E",
"Y  c #3C2718",
"T  c #3E2613",
"R  c #1E1B22",
"E  c #1D1726",
"W  c #241B22",
"Q  c #2B1D22",
"!  c #291826",
"~  c #331E22",
"^  c #391923",
"/  c #1B2222",
"(  c #252322",
")  c #2C2322",
"_  c #2D2A25",
"`  c #2C232A",
"'  c #2D292B",
"]  c #242628",
"[  c #332424",
"{  c #3A2423",
"}  c #342A24",
"|  c #3B2B23",
" . c #33252B",
".. c #3C2529",
"X. c #342B2A",
"o. c #3B2C2B",
"O. c #3A332B",
"+. c #392A33",
"@. c #3D3533",
"#. c #393736",
"$. c #2C2D34",
"%. c #440300",
"&. c #4C0300",
"*. c #440B01",
"=. c #4B0C02",
"-. c #480C0B",
";. c #540300",
":. c #540D01",
">. c #5A0B00",
",. c #590703",
"<. c #431403",
"1. c #4A1202",
"2. c #43130B",
"3. c #4C1D0B",
"4. c #47190A",
"5. c #541401",
"6. c #5B1C0B",
"7. c #581905",
"8. c #441412",
"9. c #441C13",
"0. c #4C1C12",
"q. c #491919",
"w. c #571916",
"e. c #470D11",
"r. c #660A02",
"t. c #651A01",
"y. c #621B0A",
"u. c #681702",
"i. c #771B03",
"p. c #641716",
"a. c #761D14",
"s. c #700D00",
"d. c #492208",
"f. c #5A2308",
"g. c #432213",
"h. c #4D2215",
"j. c #43231C",
"k. c #4C271B",
"l. c #532315",
"z. c #582918",
"x. c #593518",
"c. c #4E3315",
"v. c #672408",
"b. c #75280B",
"n. c #672617",
"m. c #762718",
"M. c #673318",
"N. c #773718",
"B. c #6F320A",
"V. c #461D21",
"C. c #442424",
"Z. c #432B24",
"A. c #432C2C",
"S. c #4B2826",
"D. c #572924",
"F. c #44332C",
"G. c #493429",
"H. c #573629",
"J. c #432C33",
"K. c #423333",
"L. c #4B3332",
"P. c #453A34",
"I. c #4B3A33",
"U. c #443B3A",
"Y. c #4B3E3B",
"T. c #47353B",
"R. c #553B34",
"E. c #5D2832",
"W. c #652A25",
"Q. c #782827",
"!. c #673626",
"~. c #763926",
"^. c #6E3833",
"/. c #631C20",
"(. c #3E4034",
"). c #4B412B",
"_. c #574429",
"`. c #4C423C",
"'. c #494334",
"]. c #54423C",
"[. c #584739",
"{. c #7D4625",
"}. c #66493A",
"|. c #784939",
" X c #795539",
".X c #62553A",
"XX c #443B44",
"oX c #523E40",
"OX c #4A4442",
"+X c #564945",
"@X c #5B544F",
"#X c #634D49",
"$X c #685449",
"%X c #785948",
"&X c #6B5957",
"*X c #725C5A",
"=X c #6F6253",
"-X c #796860",
";X c #8B130D",
":X c #862907",
">X c #86360B",
",X c #872715",
"<X c #912A16",
"1X c #873718",
"2X c #953819",
"3X c #993008",
"4X c #A43919",
"5X c #B4310E",
"6X c #883726",
"7X c #903227",
"8X c #A13221",
"9X c #C53B14",
"0X c #98461F",
"qX c #8F4B1B",
"wX c #AA471C",
"eX c #B24D1B",
"rX c #884529",
"tX c #964627",
"yX c #884937",
"uX c #964B35",
"iX c #89533B",
"pX c #97593B",
"aX c #90522D",
"sX c #A84A28",
"dX c #B34828",
"fX c #A65728",
"gX c #B7562A",
"hX c #A75736",
"jX c #B85835",
"kX c #AD4A34",
"lX c #AA6538",
"zX c #B96839",
"xX c #CA562F",
"cX c #C76637",
"vX c #D06E31",
"bX c #E6673C",
"nX c #955847",
"mX c #91584B",
"MX c #AE5B43",
"NX c #91694F",
"BX c #AA6B47",
"VX c #B76A46",
"CX c #A77358",
"ZX c #B67759",
"AX c #B46D54",
"SX c #B77B60",
"DX c #C76844",
"FX c #C9764A",
"GX c #C97B58",
"HX c #D6734B",
"JX c #E27949",
"KX c #B38764",
"LX c #D58552",
"PX c #EA8652",
"IX c #C68A68",
"UX c #FFA257",
/* pixels */
"2 ( y s w.9 o @   %   . = i B w.<X<XD.^ [ [ O.).| J J.! - z OXS.n.n.;X8X;Xr.5.x._.G.A.o.+.! c + = X o 4 o 4 b < % % 3 @ ",
"2 _ j.h.n.*.9 4 # @ $ # 6 o 9 -.<XkXq.^ [ X.L O.P.$X&XT.Y.} { R.!.m.,X;X;X;Xz.H.'.P.F... .` ) , u 6 6 4 4 Z [ M 1 < , 2 ",
"- n Z q.W.m.y.9 5 8 4 8 8 e w *.m.,Xr J.K.P.'.| } } +X#X].I.G.V g.v.3X5X3X8XW.G.(.(.I.A.+.+.} c u v N e 8 N { _ ( H , , ",
"k b ^ S 0.m.7Xm.%.0 4 5 0 w &.:.m.6.j.I.o.P [.@X+X`.L.R.[.[.[.].g.d.eXxX5X2X^.L.$.O.A.A.J.J.} J u v C N 8 8 x [ J m z j ",
": , [ A h f.1X<Xi.r.-.q.w.;.u.:Xn.3.Z.| A.x A P.@X&XI.Z.}..XI.R.).f.eXvX2X!.R.I.).U Q +.A.M 1 _ } c y { q.8 o c m c z z ",
"& & b P C d.u.:XkXm.q.E.Q.1X3XeXv.4.Y o.L.L.z # H @.$X%X}.[.].I.).c.N.lX7.S.R.I.F.].U.m z { ' 2 } P S j.{ y o o t t # # ",
"= K n n p q 5.tX6X/.V.S.^.yXeXgXv.g | @...L.I.F.H c v L [.[.+XT.#.O.x.yXl.g.Z.A.`.@.o.F.Z.U _ #., [ { N V V p O O X $ # ",
"O = # 7 d q 0 ~.w.q.V.L.H.~.gXvXf.T U _ oXA.R.Y.+XO.P + i t F.+XXXU.Z.H.N.1.h.j.K.T.T.F.Z.| X.' m * + k { A * # O X # - ",
"O * O 6 e 9 =.W.B I  .o.H.{.>XLXN.d.O._ T.J.I.R.@.P.+X+XXXX.P Y.XXXXJ.k.rXi.;.*.C.+.@.P.F.U O.} X._ n # j v z O . O X X ",
"o + + # 5 8.D.9.P X.X.X.G.!.B.zXlXd.| O.+.I.G.H.I.P.T.XXOX+XI.A.T.J.S.w.:XwXsX,X2.A @.X.O.'.Y | O.+.+.~ z # m _ O . O 7 ",
"o 4 y e 9 w.D.B I } o...S.!.N.tXLXB.T @.J.A.L.Z.F.K.T.#.F.F.j.S.D.D.0.v.b.dXgXgX7.1.A ..` X.Z.Y J  .o.o.M > > , > X o 8 ",
"r 9 5 w w./.h.d M J ..o.F.R.!.~.zXf.g | J...Z.k.Z.F.L.C.| G.k.z.6.n.v.u.r.jXHXfX6X7.q V F.c Y V M  .o. . ._ m O z o 4 5 ",
"r.,.,.p./.8.d v v M [ } } F.R.n.lX>Xd.T Z.J.V G.S.C.S.S.k.d.<.3.f.7.5.u.hXLXpX!.rXpXuX:.q Z.A.A._ X.} [ ~ ) J c 6 d r %.",
";X;X,Xa.e.q L J J M _ J _ O.Y.M.fXVX5.g.j.Z.Y Z.C.C.k.w.7.f.M.aXpX{.pXZXKXnX X XH.~.hXVXM.4.A K.X.[ J P M c c J V 8.&.&.",
"5X5X,Xy.g G } D _ H ] ) ..S.R.!.b.cXf.d.g.T G.I Z.S.w.:.N.BXIXIXIXKXCXNXNX%X}.}.$XS.M.uX2X>.C.[ @.| J [ o.P M A N 2.:.p.",
"9XxX,X&.f G K _ _ ( ( [ C.V.S.l.u.lXBX5.3.l.C j.D.1.v.aXZXBXaXrX.X=XKXNX$X#X}.#X+XY.^.6.VX,X2.I I Y { I P P P B 2.&.a.sX",
"3XjXv.<.f Y A { P P | P ^ C.S s yXBXLX0Xu.u.5.y.u.,XBXCX X_.H.}.%X=X%X$X%X&X].+XY.Y.R.z.~.CX5.=.S.q.C.g.C Y C 2.%.2XxX9X",
"u.fXnX*.l.d I ^ j.8.9.C C.S y Z.H.{.0XcXeXi.u.u.,XVXpXx.).'.#X*X'.&X=X[.#X=X*XY.Y.].I.[.k.iXZXM.&.w.0.w.h.0.7.=.2XgXxXeX",
"d.pXzX,.%.<.j.q.0.=.s <.8.j.A | R.!.N.fXPXvXeXFXAXnXc._..X&X&X .& . [.-X=X].X # H J 6 Z.H.c.nXCXqXu.<.3.z.:.,.3XvXcXtXb.",
"T f.zXcXv.5.*.<.y.N.aXrX5.*.B F.Z.S.!.>XvXUXPXlX|.S.H..X_.M ; +.@X`.* `.+Xx K.X., X.'.u y d 4.M.BXBXrXv.t.i.gXJXcXfXM.g ",
"f k.aXVXLXlXqXlXKXCXlXFXcXwX0.....S.v.u.gXvXfXB.k.).).p p I.XX$.+X&X#.O O J OXOX@.) X.U.F.A a X a  XZXzXcXJXgXtXM.k.G u ",
"n 8 2.f.qXlXLXfXn.n.7.1XvXgX7.9.S.q.:.v.vXfXf._.'.'.L | '.P.XXXX2 3 & H I.].A.`.OX#.( H } F.P.{ c Z.f.>XeXfXqX3.A ) H ( ",
", , c P f d 3.3.g.S.d.M.wXzXN.%.-.*.u.gXlXx._.(.(.K | $XF.c _ , #.@X+XJ z I.I.P.Y.#.@XOX' _ +.A.I L T 9.k.x.g.C x x m b ",
"2 / ] ;  .[ A V V V I x.{.GXhX>.r.>.0XlXx.c._ 3 D K | I F.`.@.O.: H `.+XU # c I.`._ ] +.OX#._ X.I A M J ) m K b M n ! ! ",
"> m m c H H W ) { S { C.D.NXLXeXwXFXlXM.Z.c ] $.#.#.+.[ F.).`.@XOX) * } +XG.p c # c > @ : _ #._ ) X.O._ ) H ) W ! ! ` ! ",
"- c c m m H ( ] P Y ~  . .H.fXcXxXsXf.9.v +.$.#.@.+.~ M i t u K P.U.[ u O.[.I.v O.o.K.@.] @ 1 #.H 1 : & m X.[ c ) W E E ",
"x z c R M ) ( ( , J M X.$.` E.yXtXb.1.B | K.F...+.+.T.Y.`.P.} K m P.Y.P p L L P { M M X.@.X.< & X._ ) K z * m } G K , , ",
"2.f b m M M m D H _ m ) $.$. .E.~.f.0.V.B G.Y o.+...~ n ) #.'.(.M m P F.U v u L P [ { J X.U.O.K ) _ }  .) c = O = u F F ",
"3.s p V N N M M c ~ [ ~ ' _ | Z._.k.z.q.2.C L } P ~ ....W ] X.} o.M z P O.U P v J { o.Q z * c m b ) Q m W X._ 2 O = F F ",
"3.s p v x v J M J M ..[ ) _ U L j.H.^.-.8.d U K { A { A. .W m J }  .[ M v c J J } [ ~ } } J c * , > > & ; & m _ > t = p ",
"l.w z ! E W J v | J M c K J J ..I R.^.~.w V U K P P P ..O.X.) [ ~ [ M M } } [ [ Q ) Q n M } } U P c , ' ' 1 < < ! n - - ",
"S.N W ] E R m J * m  .P [ | m [ A.C E.mXH.a L G G ..{ J G [  .~ Q ..[ m P A a d A A { { P J J J J J ( 1 W ` ! j n ! ! W ",
"V.k m 1 m m M v M W Q ~ ~ ~ [ [ K | | [.mXyX3.w x M J [ M A P M A A [ n B <.7.t.&.1.A { z ~ [ J } ] ( D 1 , m n n k z z ",
"l 7 c , z x n n m Q Q Q  .[ [ } } J J Y !.nXMXf.g y [ [ V A P ) v M [ ~ 8.5.zXLXhXn.9 B C.V M c m W m ( H m c c z z t > ",
"w y = u M n M m ) J M M ( ) ) ( J m } S.g.x.nXCX*.w C x A { z _ } M v C *.b.VXFXDXVX6X%.4.A c ( M v ~ Q ~ Q m W < < < z ",
"w g p u M n m W H m M K D 1 W W c X...P Y Y H.CXCXz.s B V v b [ { v A g >.MXrXN.N.~.ZXn.0 h.u J v v Z V n m m < 1 < < < ",
"<.4.e 7 b W b 1 , u u K D K _  .! Q M J U Z.G.H.nXnXQ.<.a v ~ V v V I 2.a.AX!.G.A V k.%Xm.&.a u i p i u z , > > , < < 2 ",
"4.4.q.8 n W R < c c F F K K `  .` < Q | G i U L 8.7.~.~.4.6 V A i C 8.%.7X7Xj.X.#.' K k.6XtX*.d p p i G v u , > , , > < ",
"d.<.D.r z < 1 m c v F F v A A ) ! $.P i G J ) m Y h.f.v.z.z.2.e N 8.&.r.kX7.Y _ ] ] X.N p.uX6X9 l z x N V x n n z z t t ",
"h w Q.e.l > z c v v F c V V M W ` ` L L L U ` ` P f h.d.6.n.5.-.8.w.r.s.kX5.a P _ M ) C =.y.7Xy.e.n N d x y k n b j 6 6 ",
"w -.7Xp.9 f i z n N ! n Z S M Q W Q A f P _ ` ` _ | C g.w.7.1Xu.,.a.r.3XdXs.w s B f i f s >.dX8X%.q y i 7 j Z k k k ! - ",
"9 /.7Xm.%.q f p y Z ^ ^ ^ ^ Q m W M v A A [ ` ` _ , } x 2.5.xXdXs.s.:XfXsXi.=.9 w e f 6 9 y.kXdXb.w s d N S 8 Z l 7 k k ",
"%.7.a.7Xn.%.q a B l l e.^ ! W Q v v v v M ~ M ( _ m _ ~ d =.dXbXxXdXVXBX~.W.p.y.0 9 *.w 1.6XsXsXFX0X0 0 2.5 q w 4 8 x X ",
":.y.p.uXrX:.w <.w 2.e.q.8.Z M M V V v n ! M M v v Q < ` V *.:XxXHXVXpXM.k.k.p.Q.p.,.5.-.D.#Xn.6.v.VXb.%.:.=.4.q r 9 *.4.",
"-.3.l.!.yXM.5.*.5.7.5.5.8.q.q.N f i Z ! Q m M v x M m x 9.=.tXhX~.|.g.a V ^ e.Q.7X;Xv.w E.J.S f C 3.AXtX&.:.%.1.0 ,.<XwX",
"e 8 p a !.iX6Xm.&.;.>.t.5.=.=.4.B V V M M M v V M ^ S d 0 6.yX~.j...G Y ....q.p.<X<X6.2.J.Q _ _ M f l.iXuXb.t.:.b.tXjX3X",
"j > 2 2 I ^.uXMXtXgXzXzX0Xv.>.:.2.V M v v M M M n A h *.*.M.k.N [ M c J v V Z e.,X<Xp.4.S.J J K J N V a ~.IXIXsXgXtXN.y.",
"< 2 3 3 m q.W.6XGXVXlXlXzXFXgXi.=.B i i f f V v Q 7 =.0 6XiXd Q M M } K P M n l p.a.p.0.V P K J M n x P a 3.rXtXb.b.z.h.",
": : 2 2 z x S C.S.g.d.x.rXlXLXPXN.<.s a g d V x k l *.&.nXc.x A Q M u u D K m B p.Q.q.P ( 1 K m M m > z t y d d d y i t ",
"3 : & , > > n A m z K Y x.N.wXcXcXt.*.<.s d 8 N l r :.5.f.a Z b W M v v , 2 b N -.n.d K / / W b m c z > > > > & > : : @ ",
"; @ : & > # - b < < H P d.f.N.eXeXwX:.*.%.e.q.d q.%.r.2XM.a n ^ W b c c > z x e 0 0.p = / R Q c m z , > > > & > > > : > ",
"@ @ & : > > - < W R < c L d.f.1XcXPXb.;.:.%.8.r 9 m.1X,X=.5 k ! n z t t z n - 4 0 w o O > 1 M m z , , > > z & , * @ @ & ",
"$ # & = & & , b < W E > v C g.f.>XcXxXs.&.;.&.=.Q.nXnXv.%.w Z k z t * p t j 7 4 r w 4 o # # z c z > > > > : & & ; * @ ; ",
"# @ & & = 2 > < ; E E R m M P g.7.,XDXDXsXa.m.~.%XW.q.w.z.r l 8 8 # + O X # z A B r e 5 4 o z z > , z > & * @ # @ & : @ ",
"@ @ = % & 2 : : $ ; < E R 1 H A s 5.b.kXcXxXhX!.9.n V Z.| f B e 8 4 + & z , ( X.N r q.e.r 4 = = , z , , > & @ &   @     ",
"$ $   % % & &   < ; ; < W R R c L d.,.i.4X4X5.s x ) m m H c B B 8.e u } @.O.J K N 8.D.w.e.5 = & , , , , > & ; > @   $ @ ",
"$ ;   % % % & & : > k - - < 1 D , d %.a.6Xu.<.p z c , , m M x N V.e z _ O.) D K v e r w./.-.X O > * > : > : ; @ & @     ",
"  ; % % 3 % % % @ * - - - , 1 D , t %.m.m.-.q t z , , H c M c x B e # c M M , H m y 9 e.p.-.4 X $ @ # & & @ @ & ; @     ",
"    ;   % % % % & - > 7 j > , 2 2 k =.m.w.9 t > z > , z z z z z f 7 7 # j m c , c c 7 q p.w.r o X .       & &   @     . ",
"      ;   % % % & * # 7 t > & > < 4 *.Q.w.8 z 1 , z b b x c b > 6 p j j j c m , > c t 5 -.6.8.4 X .     @ @     @       "
};
