/* XPM */
static char *result[] = {
/* columns rows colors chars-per-pixel */
"40 60 212 2 ",
"   c #000001",
".  c #000009",
"X  c #030807",
"o  c #190A06",
"O  c #01120E",
"+  c #010616",
"@  c #011212",
"#  c #0D1313",
"$  c #03191A",
"%  c #141313",
"&  c #1C1414",
"*  c #151A1E",
"=  c #19181A",
"-  c #160B18",
";  c #250506",
":  c #350908",
">  c #231416",
",  c #2B1416",
"<  c #25151A",
"1  c #2B151A",
"2  c #23191B",
"3  c #2A1A1C",
"4  c #34161A",
"5  c #3B171D",
"6  c #341B1D",
"7  c #3A1A1D",
"8  c #200A16",
"9  c #3A211E",
"0  c #2F231F",
"q  c #001E23",
"w  c #171D22",
"e  c #2A1A23",
"r  c #321B22",
"t  c #3A1B23",
"y  c #182530",
"u  c #38222A",
"i  c #282C38",
"p  c #322B36",
"a  c #4B0506",
"s  c #47171C",
"d  c #54171E",
"f  c #5C151B",
"g  c #500C07",
"h  c #740C16",
"j  c #78131D",
"k  c #6A0E17",
"l  c #48241F",
"z  c #441921",
"x  c #4D1B24",
"c  c #551B26",
"v  c #5A1B26",
"b  c #561D28",
"n  c #5A1D28",
"m  c #631A23",
"M  c #6C1B25",
"N  c #651D29",
"B  c #6B1D29",
"V  c #6F1721",
"C  c #7C1A24",
"Z  c #731E2A",
"A  c #7C1D2A",
"S  c #721B26",
"D  c #452220",
"F  c #4C2521",
"G  c #41202A",
"H  c #572925",
"J  c #5C342A",
"K  c #5D3B3D",
"L  c #673529",
"P  c #713C2D",
"I  c #7A2E30",
"U  c #74492D",
"Y  c #003745",
"T  c #283643",
"R  c #393949",
"E  c #333C50",
"W  c #4B3B4A",
"Q  c #3A4456",
"!  c #3E4D64",
"~  c #4A4C58",
"^  c #51545C",
"/  c #7C6A57",
"(  c #4C566B",
")  c #4F5A73",
"_  c #565A63",
"`  c #755B75",
"'  c #58637C",
"]  c #686C73",
"[  c #89111D",
"{  c #A80712",
"}  c #841E2B",
"|  c #8A1E2B",
" . c #881D27",
".. c #921F2C",
"X. c #981E2A",
"o. c #AA1F28",
"O. c #BE0032",
"+. c #A90023",
"@. c #8B212D",
"#. c #9C202C",
"$. c #972534",
"%. c #8F2634",
"&. c #A5212E",
"*. c #AC212E",
"=. c #B2212C",
"-. c #BB232F",
";. c #B72E2E",
":. c #A62432",
">. c #BC2834",
",. c #BA2734",
"<. c #AD3B3C",
"1. c #CC0101",
"2. c #CB0E14",
"3. c #C91219",
"4. c #D80508",
"5. c #C61B27",
"6. c #C30032",
"7. c #C31E30",
"8. c #C4232F",
"9. c #CA222A",
"0. c #C42531",
"q. c #CB2531",
"w. c #C32935",
"e. c #CB2C35",
"r. c #C12C39",
"t. c #D22633",
"y. c #D52C37",
"u. c #C63531",
"i. c #CA3A3A",
"p. c #D13033",
"a. c #E22A37",
"s. c #E5313B",
"d. c #EC323C",
"f. c #F0333D",
"g. c #8A4736",
"h. c #91523B",
"j. c #9F6836",
"k. c #DD7838",
"l. c #DB7D24",
"z. c #D47305",
"x. c #843B4D",
"c. c #853F51",
"v. c #BA3849",
"b. c #B63E51",
"n. c #C03140",
"m. c #98465A",
"M. c #B34255",
"N. c #A36840",
"B. c #9F566E",
"V. c #975C75",
"C. c #894E65",
"Z. c #A3536B",
"A. c #AA4C61",
"S. c #9C607A",
"D. c #BD7F68",
"F. c #C3465A",
"G. c #D07A5E",
"H. c #C8656D",
"J. c #E99D2A",
"K. c #E08D2B",
"L. c #EBA32A",
"P. c #F3AA2B",
"I. c #F1B315",
"U. c #FEC725",
"Y. c #FFD426",
"T. c #96826A",
"R. c #AF8F6F",
"E. c #D1825A",
"W. c #E78349",
"Q. c #D69A72",
"!. c #EA9E79",
"~. c #4F5F83",
"^. c #5E6C8A",
"/. c #5A6682",
"(. c #4C7A9B",
"). c #5B7797",
"_. c #686C8A",
"`. c #786C89",
"'. c #62708D",
"]. c #6B728C",
"[. c #657392",
"{. c #697291",
"}. c #697898",
"|. c #727D95",
" X c #70718F",
".X c #6F7DA0",
"XX c #886682",
"oX c #77849A",
"OX c #7987A3",
"+X c #858A95",
"@X c #8392AD",
"#X c #8C97AA",
"$X c #8998B2",
"%X c #8E98AA",
"&X c #99A2B4",
"*X c #A5ACB8",
"=X c #ABB2BF",
"-X c #E5B488",
";X c #D6B58F",
":X c #FCCEA3",
">X c #ACB7CA",
",X c #B6BECC",
"<X c #BBC0C9",
"1X c #BBC4D5",
"2X c #B7C2D5",
"3X c #C4CDDC",
"4X c #C9D0DE",
"5X c #DADAD4",
"6X c #D2DAE8",
"7X c #C9D2E2",
"8X c #EBEBEB",
"9X c None",
/* pixels */
"9X9X9X9X9X9X9X9X9X9X9X9X9X9X9X9X9X9X9X9X9X9X9X9X9X9X9X9X9X9X9X9X9X9X9X9X9X9X9X9X",
"9X9X9X9X9X9X9X9X9X9X9X9X9X9X9X9X9X9X9X9X9X9X9X9X9X9X9X9X9X9X9X9X9X9X9X9X9X9X9X9X",
"9X9X9X9X9X9X9X9X9X9X9X9X9X9X9X9X9X9X9X9X9X9X9X9X9X9X9X9X9X9X9X9X9X9X9X9X9X9X9X9X",
"9X9X9X9X9X9X9X9X9X9X9X9X9X9X9X9X9X9X9X9X9X9Xw.8.9X9X9X9X9X9X9X9X9X9X9X9X9X9X9X9X",
"9X9X9X9X9X9X9X9X9X9X9X9X9X9X9X9X9X9X9X9X9Xr.y.8.9X9X9X9X9X9X9X9X9X9X9X9X9X9X9X9X",
"9X9X9X9X9X9X9X9X9X9X9X9X9X9X9X9X9X9X9X9X:.t.w.9X9X9X9X9X9X9X9X9X9X9X9X9X9X9X9X9X",
"9X9X9X9X9X9X9X9X9X9X9X9X9X9X9X9X9X9X9X9X:.t.w.9X9X9X9X9X9X9X9X9X9X9X| 9X9X9X9X9X",
"9X9X9X9X9X9X9X9X9X9X9X9X9X9X9X9X9X9X9X9X9Xw.0.9X9X9X9X9X9X9X9X9X9X$.| 9X9X9X9X9X",
"9X9X9X9X9X9X9X9X9X9X9X9X9X9X9X9X9X9X9X9X9X9X0.9X9X9X9X9X9X9Xw.9X9X| | 9X9X9X9X9X",
"9X9X9X9X9X9X9X9X9X9X9X9X9X3 < , > 2 e 9X9X9X9X9X9X9X9X9X9X9Xa.9X9X9X9X9X9X9X9X9X",
"9X9X9X9X9X9X9X9X9X9X9X9X< n n b b n x w 9X9X9X8X8X9X9X9X9X8.a.0.9X9X9X9X9X9X9X9X",
"9X9X9X9X9X9X9X9X9X9X9X3 c b b x A #.A z * 9X9X8X8X9X9X9X9X0.a.r.9X9X9X9X9X9X9X9X",
"9X9X9X9X9X9X9X9X9X9X3 b b b @.} e.d.w.B x @ 9X8X8X9X9X9X9X0.t.0.0.9X9X9X9X9X9X9X",
"9X9X9X9X9X9X9X9X9X, b n c A y.s.d.w.| @.S $ 9X8X8X9X9X9X9X9Xt.8.t.0.9X9X9X9X9X9X",
"9X9X9X9X9X9X9X9X9X; n b } y.d.f.w.m & s V h $ 8X8X9X9X9X9X9Xt.0.t.0.9X9X9X9X9X9X",
"9X9X9X9X9X9X9X9X6 c n | y.d.d.>.m @ & @ s m $ 5X8X9X9X9X9X9Xv.q.0.w.w.9X9X9X9X9X",
"9X9X9X9X9X9X9X9X: n b @.d.d.-.v @ # & O 3 v k <X8X9X9X9X9X9X9Xy.0.q.7.9X9X9X9X9X",
"9X9X9X9X9X9X9Xt x c } y.d.-.m O & & % % & s f K H.9X9X9X9X9X9Xt.w.e.w.9X9X9X9X9X",
"9X9X9X9X9X9X9X5 n %.y.f.,.c O % % % % % O 1 x r 9X9X9X9X9X9X9Xn.9.3.r.>.9X9X9X9X",
"9X9X9X9X9X9Xt c v *.d.=.d O & % % % % % @ 1 c # 9X9X9X9X9Xq.9X9XF.Z.2.t.>.%.9X9X",
"9X9X9X9X9XX s n b :.s.A & # % % % % % % O 4 b % 9X9X9X9X3.9.9X9XF.).Z.0.0.:.9X9X",
"9X9X9X9X9XO s H v *.s.A & % & % % % % % O , x & 9X9Xw.0.Z.C.9Xm.S.).[.0.0.$.9X9X",
"9X9X9X9X9X9Xr c n @.e.>.d O & & % % % % % s B & 9X9Xr.4.XX` { C.(.{.Z.0.0.9X9X9X",
"9X9X9X9X9X9X9Xr x z } e.0.m O O # & & O 4 A Z = 9Xq.q.3.XX] x.` {.Z.3.8.w.9X9X9X",
"9X9X9X9X9X9X9X9Xq 1 6 z e.#.v d , O # 4 m A : f >.0.0.2.A. X).(.XX1.w.0.0.q.9X9X",
"9X9X9X9X9X9X9X9X9Xo 6 4 e Z C } M s v A j 4 W  .[ -.5.v.v.V. XXXV.5.0.q.y.0.9X9X",
"9X9X9X9X9X^ ] _ Q p f b 4 & & t S C } V t ! ].x.x.-.n.`.(.(.V.1.8.0.e.0.0.9X9X9X",
"9X9X9X9Xi >X6X1X$X_.i c c b n 5 % > w o R '.{.).{.b.`.{.XX XZ.5.0.0.r.9X9X9X9X9X",
"9X9X9X  =X6X3X4X1X$X^.= c n b n b b v N g T }.[.[.[.].M.3.0.0.0.q.r.9X9X9X9X9X9X",
"9X9X9X  *X7X3X4X1X$X^.2 c n v A ..Z B @.h T }.[.[.].M.5.-.7.7.7.8.0.e.0.9X9X9X9X",
"9X9X9X  ' @X>X4X1X$X^.2 c c A } =.*.A :.{ Y [.[.{.b.5.0.u.u.u.w.8.8.w.9X9X9X9X9X",
"9X9X9X9Xi w ' oX}.}.^.< c c A =.q.&.#.q.o.$ p i '.v.9.O.J.U.U.J.6.e.0.9X9X| 9X9X",
"9X9X9X9X  ( ) + i i i & c A =.q.8.8.*.C s c d V p ,.0.w.u.L.Y.L.O.u.9.9X9X| @.9X",
"9X9X9X9X&X&X~.' /.) o x v } X.X.#.@.*.X.$ N @.@.[ f ;.6.K.U.U.L.6.p.8.9X9X9X9X9X",
"9X9X9X  ,X1X$XOX}.'.o b n n A *.-.*.8.&.@ B |  .c $ +.J.U.U.U.J.6.i.9X9X9X9X9X9X",
"9X9X9X  |.@X$X$X~.R c b b A | X.#.-.0.C # N | | %   E.k.I.U.Y.P.{ a 9X9X9X9X9X9X",
"9X9X*X#XQ + /.OX'   6 5 b Z Z A *.=.} & 1 N } N > O h.E.W.K.z.k.!.R.9X9X9X9X9X9X",
"9X9X+X,X%X].' E Q & 3 3 5 1 < s C j s 9 < B } c & & X U k <.!.R.Q.:X  9X9X9X9X9X",
"9X9X  >X7X>XoX! Q o 3 3 3 3 z D 0 9 F 6 1 N Z c & =   T.R.j.-X;Xw R.9X9X9X9X9X9X",
"9X9X  <X6X>XOXOX^.  t 5 3 3 l F l F 7 1 5 z c c & 2   -X!.g / R.  9X9X9X9X9X9X9X",
"9X9X9X+X3X>X) ) ~ z n n 5 1 1 < 1 - c Z c > b b & = . N.P +     9X9X9X9X9X9X9X9X",
"9X9X9X  +X+XE E R a n v b B B Z Z B A #.| @ n c & # & + + 9X9X9X9X9X9X9X9X9X9X9X",
"9X9X9Xw ~ #X$XOX_.T c b B | | | | @.A *.=.4 x c & % % 9X9X9X9X9X9X9X9X9X9X9X9X9X",
"9X9X9X  ,X3X&XoX' ^.  b | | | | } } } &.0. .% b & # % 9X9X9X9X9X9X9X9X9X9X9X9X9X",
"9X9X9X9X%X4X1XoX( ' : N } | | } N Z } #.q.=.% c > # * 9X9X9X9X9X9X9X9X9X9X9X9X9X",
"9X9X9X9X  %X>X#X|.; H | | | | B x A | o.q.o.# x < * 9X9X9X9X9X9X9X9X9X9X9X9X9X9X",
"9X9X9XX x s % 8 5 b N } | } | B x B o.q.q.=.$ * & 9X9X9X9X9X9X9X8X8X9X9X9X9X9X9X",
"9X9X9Xw x v c c c B | | | | | N b B *.8.8.=.$ 9X9X9X9X9X9X9X9X9X8X8X9X9X9X9X9X9X",
"9X9X@ x b n n b B | } | | | N c A } &.q.-.A $ 9X9X9X9X9X9X9X9X8X8X9X9X9X9X9X9X9X",
"9X9X$ x n v x B | | | | | | N x Z *.0.q.o.q 9X9X9X9X9X9X9X9X9X8X8X9X9X9X9X9X9X9X",
"9X* F b c b b B | | | | | B c A } *.q.q.=.O 9X9X9X9X9X9X9X9X9X9X9X9X9X9X9X9X9X9X",
"9X# c n b b c b B | | | | n x A } } o.q.o.@ 9X9X9X9X9X9X9X9X9X9X9X9X9X9X9X9X9X9X",
"9X9X3 c n c B } A | | } B c A  .*.-.0.0.| $ 9X9X9X9X9X9X9X9X9X9X9X9X9X9X9X9X9X9X",
"9X9X9Xr 4 x N A ..| | B b n B v m j h f z 9X9X9X9X9X9X9X9X9X9X9X9X9X9X9X9X9X9X9X",
"9X9X9X9X9Xu , x Z B B v 5 7 6 @ = J U J X 9X9X9X9X9X9X9X9X9X9X9X9X9X9X9X9X9X9X9X",
"9X9X9X9X9X9Xy & 1 - 8 e 9X9X9X% 7 H L F + 9X9X9X9X9X9X9X9X9X9X9X9X9X9X9X9X9X9X9X",
"9X9X9X9X9X9X9X< H L L J 9X9X9X# 4 J L L J 9X9X9X9X9X9X9X9X9X9X9X9X9X9X9X9X9X9X9X",
"9X9X9X9X9X9X9Xl P g.h.h.P 9X9X@ F P g.h.g.L 9X9X9X9X9X9X9X9X9X9X9X9X9X9X9X9X9X9X",
"9X9X9X9X9X9X9X6 D F P P P 6 9X# D D H P P P @ 9X9X9X9X9X9X9X9X9X9X9X9X9X9X9X9X9X",
"9X9X9X9X9X9X9X@ O O .   . @ 9X9XO @ X   . . % 9X9X9X9X9X9X9X9X9X9X9X9X9X9X9X9X9X"
};
