/* XPM */
static char *result[] = {
/* columns rows colors chars-per-pixel */
"40 60 216 2 ",
"   c #000101",
".  c #000A06",
"X  c #000409",
"o  c #020A0A",
"O  c #0C0B0B",
"+  c #120401",
"@  c #130B0C",
"#  c #1A0B0D",
"$  c #1A0207",
"%  c #14100D",
"&  c #000014",
"*  c #010E11",
"=  c #0D0811",
"-  c #180D11",
";  c #011216",
":  c #0B1216",
">  c #09161C",
",  c #1B1214",
"<  c #151518",
"1  c #00170B",
"2  c #24090C",
"3  c #320403",
"4  c #230C12",
"5  c #2B0D13",
"6  c #2A0C1B",
"7  c #340E14",
"8  c #231215",
"9  c #291418",
"0  c #341215",
"q  c #321219",
"w  c #3A131A",
"e  c #371716",
"r  c #091F28",
"t  c #371B25",
"y  c #1A2233",
"u  c #272835",
"i  c #2B2A36",
"p  c #4C0401",
"a  c #430E14",
"s  c #5C0D14",
"d  c #43121B",
"f  c #4C131E",
"g  c #421C1A",
"h  c #4A1919",
"j  c #53121D",
"k  c #5D121B",
"l  c #531015",
"z  c #51060C",
"x  c #680415",
"c  c #750A16",
"v  c #6C121D",
"b  c #64121C",
"n  c #74090C",
"m  c #4D211C",
"M  c #54271D",
"N  c #4C1521",
"B  c #551522",
"V  c #5A1623",
"C  c #5C1825",
"Z  c #5B1A26",
"A  c #651624",
"S  c #6B1623",
"D  c #6D1825",
"F  c #641926",
"G  c #731623",
"H  c #7C1624",
"J  c #711926",
"K  c #7E1826",
"L  c #7A1929",
"P  c #5C3125",
"I  c #5B312E",
"U  c #643123",
"Y  c #6C3726",
"T  c #723929",
"R  c #79382D",
"E  c #7A4C2D",
"W  c #0F3443",
"Q  c #2C3649",
"!  c #323C4F",
"~  c #373646",
"^  c #4A3849",
"/  c #3D455B",
"(  c #3B4C64",
")  c #484B57",
"_  c #4F525C",
"`  c #7D6A56",
"'  c #4A546A",
"]  c #4D5972",
"[  c #555A63",
"{  c #765B76",
"}  c #59647C",
"|  c #686C74",
" . c #870816",
".. c #80111A",
"X. c #AB0417",
"o. c #A30000",
"O. c #821725",
"+. c #841826",
"@. c #8A1827",
"#. c #8B1928",
"$. c #8A1825",
"%. c #921A29",
"&. c #9D1A29",
"*. c #931825",
"=. c #AC1A25",
"-. c #A51B2A",
";. c #AB1C2B",
":. c #B31C2A",
">. c #B71C29",
",. c #BF0032",
"<. c #952536",
"1. c #B8242C",
"2. c #BD2331",
"3. c #A82933",
"4. c #CC0408",
"5. c #CA0A13",
"6. c #C9151C",
"7. c #D90102",
"8. c #C1002D",
"9. c #C51E2C",
"0. c #CA1F2D",
"q. c #C71727",
"w. c #C90031",
"e. c #C5202D",
"r. c #CC202D",
"t. c #C82A2D",
"y. c #D1212E",
"u. c #C7322D",
"i. c #C42432",
"p. c #CA2432",
"a. c #C12C3D",
"s. c #C92935",
"d. c #D32231",
"f. c #D72833",
"g. c #CC3838",
"h. c #EB2E39",
"j. c #E32835",
"k. c #EF303A",
"l. c #F0303A",
"z. c #8B4533",
"x. c #925239",
"c. c #A26839",
"v. c #D97910",
"b. c #DE7935",
"n. c #85394D",
"m. c #BA3749",
"M. c #B63E52",
"N. c #99455A",
"B. c #B34155",
"V. c #985C76",
"C. c #915068",
"Z. c #A3536B",
"A. c #AB4B61",
"S. c #9D607B",
"D. c #C44459",
"F. c #D17B5E",
"G. c #C9656D",
"H. c #EA9E25",
"J. c #E18E27",
"K. c #ECA425",
"L. c #F3AB27",
"P. c #F1B40D",
"I. c #FFCE1F",
"U. c #FFD71E",
"Y. c #FDC621",
"T. c #FFD423",
"R. c #B38D6D",
"E. c #97836A",
"W. c #D2835A",
"Q. c #E88447",
"!. c #CD9F75",
"~. c #E59574",
"^. c #EBAB7C",
"/. c #4E5F84",
"(. c #5E6C8B",
"). c #576482",
"_. c #4B7B9C",
"`. c #5A7898",
"'. c #62708E",
"]. c #6C738B",
"[. c #74708E",
"{. c #657493",
"}. c #6A7392",
"|. c #697999",
" X c #727A94",
".X c #736A87",
"XX c #6F7EA1",
"oX c #876784",
"OX c #78859B",
"+X c #7A88A4",
"@X c #868B96",
"#X c #8694AC",
"$X c #939AA7",
"%X c #8998B3",
"&X c #818FAA",
"*X c #96A3BA",
"=X c #9CA1AC",
"-X c #A6ADB9",
";X c #AEB5BF",
":X c #E6B589",
">X c #D7B690",
",X c #FCCFA4",
"<X c #ABB5C6",
"1X c #B4BDCC",
"2X c #B6BFD0",
"3X c #BAC1CE",
"4X c #BBC5D5",
"5X c #BBC6D8",
"6X c #C5CEDD",
"7X c #C9D1DF",
"8X c #CECECC",
"9X c #CCD3E2",
"0X c #D3DBE9",
"qX c #C6CFE1",
"wX c #ECECEC",
"eX c None",
/* pixels */
"eXeXeXeXeXeXeXeXeXeXeXeXeXeXeXeXeXeXeXeXeXeXeXeXeXeXeXeXeXeXeXeXeXeXeXeXeXeXeXeX",
"eXeXeXeXeXeXeXeXeXeXeXeXeXeXeXeXeXeXeXeXeXeXeXeXeXeXeXeXeXeXeXeXeXeXeXeXeXeXeXeX",
"eXeXeXeXeXeXeXeXeXeXeXeXeXeXeXeXeXeXeXeXeXeXeXeXeXeXeXeXeXeXeXeXeXeXeXeXeXeXeXeX",
"eXeXeXeXeXeXeXeXeXeXeXeXeXeXeXeXe.a.eXeXeXeXeXeXeXeXeXeXeXeXeXeXeXeXeXeXeXeXeXeX",
"eXeXeXeXeXeXeXeXeXeXeXeXeXeXeXeX9.f.a.eXeXeXeXeXeXeXeXeXeXeXeXeXeXeXeXeXeXeXeXeX",
"eXeXeXeXeXeXeXeXeXeXeXeXeXeXeXeXeX9.y.3.eXeXeXeXeXeXeXeXeXeXeXeXeXeXeXeXeXeXeXeX",
"eXeXeXeXeX#.eXeXeXeXeXeXeXeXeXeXeXp.f.-.eXeXeXeXeXeXeXeXeXeXeXeXeXeXeXeXeXeXeXeX",
"eXeXeXeXeX#.&.eXeXeXeXeXeXeXeXeXeX9.9.eXeXeXeXeXeXeXeXeXeXeXeXeXeXeXeXeXeXeXeXeX",
"eXeXeXeXeX@.@.eXeXi.eXeXeXeXeXeXeXe.eXeXeXeXeXeXeXeXeXeXeXeXeXeXeXeXeXeXeXeXeXeX",
"eXeXeXeXeXeXeXeXeXj.eXeXeXeXeXeXeXeXeXeXeX9 4 # 4 4 8 eXeXeXeXeXeXeXeXeXeXeXeXeX",
"eXeXeXeXeXeXeXeXq.j.0.eXeXeXeXwXwXeXeXeX> h V B j B B , eXeXeXeXeXeXeXeXeXeXeXeX",
"eXeXeXeXeXeXeXeXa.j.9.eXeXeXeXwXwXeXeX> N K &.K B B V B 8 eXeXeXeXeXeXeXeXeXeXeX",
"eXeXeXeXeXeXeXi.r.y.i.eXeXeXeXwXwXeX. N S i.k.p.+.+.B V B 8 eXeXeXeXeXeXeXeXeXeX",
"eXeXeXeXeXeXe.d.9.d.eXeXeXeXeXwXwXeX; G %.+.i.k.j.f.K B V B 4 eXeXeXeXeXeXeXeXeX",
"eXeXeXeXeXeXi.y.9.d.eXeXeXeXeXwXwX; n c f @ b i.l.k.f.+.B V 2 eXeXeXeXeXeXeXeXeX",
"eXeXeXeXeXi.i.9.y.2.eXeXeXeXeXwX0X* s w o O o b 2.k.h.f.@.B j q eXeXeXeXeXeXeXeX",
"eXeXeXeXeX9.0.9.d.eXeXeXeXeXeXwX8Xn k 4 . # . . k 2.l.h.#.B Z 3 eXeXeXeXeXeXeXeX",
"eXeXeXeXeXe.p.9.f.eXeXeXeXeXeXG.I s a @ O O @ # . k 2.h.f.O.B N t eXeXeXeXeXeXeX",
"eXeXeXeXi.i.5.y.a.eXeXeXeXeXeXeXq h 4 . O O O @ O . l 2.l.f.#.F 0 eXeXeXeXeXeXeX",
"eXeX<.2.p.4.Z.D.eXeXi.eXeXeXeXeX; j 5 . O O O o @ @ o l 1.h.;.V f t eXeXeXeXeXeX",
"eXeX-.9.e.Z.`.D.eXeXq.5.eXeXeXeX@ j 5 . @ O O O O @ o O K j.-.V Z a   eXeXeXeXeX",
"eXeX<.9.e.`.`.V.N.eXC.Z.9.i.eXeX@ N 4 o O O O O o @ @ # H j.;.B F w . eXeXeXeXeX",
"eXeXeXr.e.Z.]._.C.o.{ oX7.i.eXeX% S d O @ O O O # @ . l i.s.%.Z B q eXeXeXeXeXeX",
"eXeXeXi.9.5.Z.}.{ n.(.S.5.p.0.eX: L K 5 . # # o . . b e.s.+.w f q eXeXeXeXeXeXeX",
"eXeXy.e.9.i.4.V._.`.[.A.5.e.9.2.k 3 H S 7 o . 5 l k -.s.w q 5 > eXeXeXeXeXeXeXeX",
"eXeXi.d.r.9.9.V.oX[.V.m.m.q.9. . .^ 6 c K k a v +.H G , 5 w + eXeXeXeXeXeXeXeXeX",
"eXeXeXe.i.r.e.9.4.V._._..Xa.9.n.n.}.' q v +.+.S w @ - 7 B z i ! [ | _ eXeXeXeXeX",
"eXeXeXeXeXi.9.2.5.Z..X.X[..XM.{.{.}.{.~   < # = 7 V B V B i (.*X4X0X-Xu eXeXeXeX",
"eXeXeXeXeXeXi.r.9.9.i.q.B.}.{.{.{.{.Q p F B B V V B B j , (.%X4X7X6X0X<X  eXeXeX",
"eXeXeXeXi.p.9.e.q.>.q.q.6.M.}.{.{.|.y n %.S J %.K B Z B < (.%X4X7X6X9X-X  eXeXeX",
"eXeXeXeXeXi.r.9.e.u.u.u.i.q.M.].'.].W X.;.H =.:.+.+.B j , (.%X4X7X1X#X}   eXeXeX",
"eXeX#.eXeX9.t.8.H.I.I.K.,.6.m.`.u u ; -.0.&.-.0.:.K B B , (.|. X+X} > y eXeXeXeX",
"eX#.#.eXeX9.t.8.K.U.H.t.t.e.1.i c s f l H ;.9.e.0.:.O.B @ u u y X ] '   eXeXeXeX",
"eXeXeXeXeXe.f.,.K.U.Y.J.,.1.s  .#.#.F o *.;.%.*.*.&.#.B f + ] (.)./.*X$XeXeXeXeX",
"eXeXeXeXeXeXg.w.K.I.I.I.H.X.1 j +.$.D o =.9.>.>.=.H V V V @ (.|.&X#X5X2X  eXeXeX",
"eXeXeXeXeXeXp X.L.T.T.P.b.W.. O #.#.F * H 9.>.&.&.#.H B V f ~ /.%X%X%X X  eXeXeX",
"eXeXeXeXeXeXR.~.b.v.v.Q.F.x.. # S +.F 5 # +.1.-.K D J V 0 w   } &X} & ( %X-XeXeX",
"eXeXeXeXeX  ,X!.F.^.3.x z.. % O B +.S - e e c O.a 4 5 7 9 8 @ ! ! } ].%X1X@XeXeX",
"eXeXeXeXeXeXR.: >X:Xc.R.E.  % % j D A 4 e m e 9 g g 9 8 8 9 + / ) +X<XqX;X  eXeX",
"eXeXeXeXeXeXeX  R.` p ^.:X. , # B j d w 5 e m h m g 8 8 0 w   (.XX+X1X0X3X  eXeX",
"eXeXeXeXeXeXeXeX    & Y c.  % @ B B # j L l = 5 4 4 5 w B Z a ) ] ' ;X7X@XeXeXeX",
"eXeXeXeXeXeXeXeXeXeXeXX & , o @ B C o $.&.L D J J D S B B V p ~ ! ! @X@X  eXeXeX",
"eXeXeXeXeXeXeXeXeXeXeXeXeXO O # B f 5 :.=.+.@.@.@.@.@.S V N i {.OX%X#X) < eXeXeX",
"eXeXeXeXeXeXeXeXeXeXeXeXeXO o # B @ $.9.-.+.+.+.@.#.@.@.B   '.} &X*XqX3X  eXeXeX",
"eXeXeXeXeXeXeXeXeXeXeXeXeX< o # V O :.r.&.@.G A @.@.@.@.A 3 /.' OX5X9X$XeXeXeXeX",
"eXeXeXeXeXeXeXeXeXeXeXeXeXeX: - N o =.r.-.@.H N A @.@.@.#.Z $ OX#X<X$X  eXeXeXeX",
"eXeXeXeXeXeXwXwXeXeXeXeXeXeXeX@ = * :.0.0.;.D N S #.@.@.@.A B 7 # O d f . eXeXeX",
"eXeXeXeXeXeXwXwXeXeXeXeXeXeXeXeXeX* :.0.9.;.D B A @.+.@.@.@.A j j j V h > eXeXeX",
"eXeXeXeXeXeXeXwXwXeXeXeXeXeXeXeXeX* K 1.0.-.#.H N S @.@.@.@.@.S B V B V N o eXeX",
"eXeXeXeXeXeXeXwXwXeXeXeXeXeXeXeXeXeX> =.r.9.;.G N A @.@.@.@.@.@.A B B V f ; eXeX",
"eXeXeXeXeXeXeXeXeXeXeXeXeXeXeXeXeXeX. =.0.9.:.+.H B A @.@.@.@.@.D N V B B N : eX",
"eXeXeXeXeXeXeXeXeXeXeXeXeXeXeXeXeXeX. =.r.;.+.@.+.N V #.@.+.@.D B B B B V B o eX",
"eXeXeXeXeXeXeXeXeXeXeXeXeXeXeXeXeXeXo +.e.9.>.;.@.H B S #.#.#.O.O.D B Z B 9 eXeX",
"eXeXeXeXeXeXeXeXeXeXeXeXeXeXeXeXeXeXeXN x c c v j D B B A #.#.#.K F d 0 q eXeXeX",
"eXeXeXeXeXeXeXeXeXeXeXeXeXeXeXeXeXeXeX  M E P < . q 7 w j D D J f 4 t eXeXeXeXeX",
"eXeXeXeXeXeXeXeXeXeXeXeXeXeXeXeXeXeXeXX m U M 0 O eXeXeX6 # = , # r eXeXeXeXeXeX",
"eXeXeXeXeXeXeXeXeXeXeXeXeXeXeXeXeXeXeXI Y U M 9 o eXeXeXU Y Y M 8 eXeXeXeXeXeXeX",
"eXeXeXeXeXeXeXeXeXeXeXeXeXeXeXeXeXeXP z.x.z.R B . eXeXT z.x.<.Y e eXeXeXeXeXeXeX",
"eXeXeXeXeXeXeXeXeXeXeXeXeXeXeXeXeX. T T T M g g . eX9 R T T m h e eXeXeXeXeXeXeX",
"eXeXeXeXeXeXeXeXeXeXeXeXeXeXeXeXeX@       X . . eXeX. .   X X . . eXeXeXeXeXeXeX"
};
