/* XPM */
static char *result[] = {
/* columns rows colors chars-per-pixel */
"60 60 114 2 ",
"   c #030202",
".  c #0B0303",
"X  c #0D0907",
"o  c #070708",
"O  c #080708",
"+  c #070809",
"@  c #0B0A0A",
"#  c #130302",
"$  c #1B0402",
"%  c #130905",
"&  c #1C0A03",
"*  c #120B0B",
"=  c #1B0C0A",
"-  c #1E100F",
";  c #0D0F10",
":  c #100F10",
">  c #0D1011",
",  c #131212",
"<  c #1A1212",
"1  c #171818",
"2  c #1B1A1B",
"3  c #230402",
"4  c #2B0501",
"5  c #240A02",
"6  c #2B0B02",
"7  c #240B08",
"8  c #2C0C0A",
"9  c #320601",
"0  c #3C0501",
"q  c #330A02",
"w  c #3B0C02",
"e  c #340D09",
"r  c #3C0B0A",
"t  c #261000",
"y  c #2C1101",
"u  c #25120C",
"i  c #2C120C",
"p  c #341102",
"a  c #3C1301",
"s  c #3B1A04",
"d  c #33120A",
"f  c #3B1608",
"g  c #361A0F",
"h  c #3B1A0D",
"j  c #221312",
"k  c #201818",
"l  c #281B1A",
"z  c #311B19",
"x  c #212121",
"c  c #430500",
"v  c #4C0201",
"b  c #420D01",
"n  c #4A0D01",
"m  c #5C0301",
"M  c #560A01",
"N  c #461402",
"B  c #4C1302",
"V  c #441902",
"C  c #4B1B02",
"Z  c #44140A",
"A  c #461D08",
"S  c #4B180D",
"D  c #531501",
"F  c #5B1401",
"G  c #531A02",
"H  c #5B1C01",
"J  c #521209",
"K  c #591609",
"L  c #561D09",
"P  c #610A01",
"I  c #641401",
"U  c #681301",
"Y  c #651C01",
"T  c #6B1C00",
"R  c #691209",
"E  c #771A00",
"W  c #7D1C04",
"Q  c #44240D",
"!  c #5C2201",
"~  c #5F2806",
"^  c #51220A",
"/  c #642303",
"(  c #6B2301",
")  c #6C2A01",
"_  c #68240B",
"`  c #742503",
"'  c #792600",
"]  c #742B01",
"[  c #7B2C02",
"{  c #78220B",
"}  c #7B2E09",
"|  c #6B320D",
" . c #703104",
".. c #7D3302",
"X. c #723814",
"o. c #812403",
"O. c #833402",
"+. c #833C03",
"@. c #8D3B01",
"#. c #86360B",
"$. c #823A0B",
"%. c #8B3A0C",
"&. c #953500",
"*. c #923B01",
"=. c #9B3A03",
"-. c #A13A03",
";. c #8F4307",
":. c #81430E",
">. c #934100",
",. c #994302",
"<. c #B05404",
"1. c #D36003",
"2. c #D56B04",
"3. c #EE7803",
/* pixels */
"I #         * O           @ @ # .   . O               < > C 2.p           . $   + @ @ @ + @   # P v # # B 4   .   @   . ",
"Y .                 o       O $ #                 + O @ @ ;.1.p           . < @   @ * X @       # m 0 3 # $ # # .     $ ",
"!         .         # O       O                     .   O <.3.,.X           @ @   , @ @           . 4 M c # 4 3         ",
"V                   .   +         . # . $ p ( & & ] G # $ .. .=.y           @ *                   . # 4 F Y = Z &       ",
"( #                         & V [ N b 3 6 N p . . 5     O * @ g }       @ O X % %           .   . .     X w b W o.#     ",
"` w 3       .         & ! O.@.! B     .                     #   D e   + @ O   O @ .     . # .   $ .         # I ' !     ",
". $ 4 w # . w H ! w B ' @.s X   .               X @             $ ( @     @ 1         . .   . # $ .       5 _ % w *.#   ",
"    # c 3 H -.G p . # N .       . #     @ X     . @             O _ f @     @         .     . .           a X.> # ..5 . ",
"* @ # w F D q         4 3       $ .       .                   * : = U S @               @               O H C     5 ' & ",
"  O . # $         @   . D . @   O       . 3         . O       8 7 & 4 Y e #   @       @     . #     . @   Y t @ @   ! O.",
"  . . .                 4 5         X . . 0 #       + @ . . r 6 @ @   % r R 3                 # .   . $ # D 5   O @ . H ",
"    @ .               O   3         . O   3 #         . . * = * O O ; < @ e P B           . 6 4 8 = &   2 & 3 # O O   . ",
"      . . .             . .     X @ :     & B .       . @ O   O %     O @ O # P q .     d 4 % X   $ & o x ; 7 = . &     ",
"    .                   $ .       @ @ @     b K %       @ O . $ # X     #     . $ 3 n 9 9 .           @   @ $ k X X   . ",
"  @ O                   . 3           @       6 G . .   X @ 6 q   . .   .         . 4 o.a O     o     @ o ; $ .     . $ ",
"            O # *       . #       O @           f K d L i % = . . . O .   .       .   3 F 5 .     . o ; > 2 9 .     # 9 ",
"      $ # $ # X <       3 O     . X   . @ @     * } D 7 = * O                   .       @ J H .         .   4 # . . . . ",
".   . # . .             q .         O ; k O   5 u C . O - = .   .           .           o = ` 3       3 w   . $   X . - ",
"        = .             . 5 $ . +   @   @   # n X ; . = < O                           O o   & J $   # 9 # @ < $ .     * ",
"      . .                 $ $ $   @ ,       9 6 . O X = @                       X   @         7 B $ $ .   O 8 e O   O . ",
"  #   .           # .   . #     O O * *     4 # .   O =   .   .                     @   O @   o d 6     . # X 8 #   O   ",
"# # # .   X   o # .     = -   .             w b   # . .       # 9         .     . O     . .   o 6 C       *   4 3 .   . ",
".     3 $ .   # b #     6 6         @       e ] O #           . =         . .     .   .   O     w '       .   3 #       ",
"  .   . $ $ 3 q #       $ / O +             q d 4 # .                     # 3       . # .   . # N F # e w   + 3 6   *   ",
"  #       3 5             } Q @ : @ O : . . $ 3 # O 9 3       # +         * $       . #   .   D 5 $ % # D Z = G p       ",
"O         9 i             ^ +.  o : : 1 @   3 4 % @ 3 F #     .   @   + , @ % #   . . . . # 6 *.&   +   . n a D 3 . # . ",
"      @   w 5         O @ % ] #   o @ : < . 3 $ $   $ 9 4 & @               $ c     . .   . O.a                 9 6 $ # ",
"O         d q         > +   4 %     O = < 8 3 % .   .     . # O           # . 9 $ . .   . 3 *.u o   +                   ",
"    O @   6 i         > o   p u     o @ Z i # =     . .       4     @ - . $   # 9 . # q D 4 T X   >           % 6       ",
". .       O @   +   + @ @   f #.%   @ * z 1 . : # $ .         9 $     j $       j # B H $ $ 0 $                 D &     ",
"  .             +   o @ @ + * { / @ : , @   . . # r 6 .       . .   o X $ .     , S ` & $ # . . .       o @   o H y     ",
"        @       @     @ ; @ > i %.j @ @ @   . #   $ $     @     . . O @ #   @     ( 6   . $ 3 @         , 1     N N     ",
"      #       O O     + @ > , * $.Q @ @     . .   4 # @ @ @ O   . #   .         & / X     # 4 r   X $ . O     . F #     ",
"      # # $     @       + @ * @ | :.@ O           . # .         .               y _ ; = . X   0 0 b 6 .     O $ Y $ .   ",
"  .     . 4       @   +     O + h $.      .     . .                 @ @       % H ! O = $ # # $ $           . . B 6 . O ",
"      .                         X D .       . .       $ #   .   +   . $ 3 7 N G V X # 9 3 3 # # #       @ o     9 =     ",
"@     . .                       C F N 5 3 $ 3   . w a D p   .   . # b 3 & . #   @ : % 3 4 v $         . *     . w @ + # ",
"      . .           @         C ] # 5 $ q 4 v / ( N 5 [ )     . $ 3 .   ,         O - 3 I 9 . o               6 N O @ * ",
"    X @ @ X           +     p O.&           q ) y     H @.                      .   # 9 F   .       # .       B & , 2   ",
"    = . O X               p ) &           @           $ &.5   .       $ .   X       . $ D &           1       9 w   +   ",
"  . @   @   O           p ..&     @ @     . .   . $ # O # . . c .   # q   . .           H a           >       7 C     @ ",
"X   @ @   @     #     p ..5     % O       . .   # #   O O   . 0 n # w 6   # .   #       ! C   . @ ,         + i d +     ",
"X @   @ @ @       & H ] &         @           X   . O . # .     4 a G           . # . . H C $ $ @ o           & q       ",
"  @ o       . . a Y 5 .               @             . . .         ! +.        .   . .   B C   9 Z * +         X b       ",
"@ o @ . . a H q V %                   @ O             #           C >.        # .       w C     w N @     +   # D .     ",
"# A ~ D D / &           @                                   O O   6 -.5       9 #     O & N       6 7 $ <     . w . .   ",
"O.~ & .   .                                 . . # . @ X <   #     * } G   . # 3       X   n .     O < 7 q e # . #       ",
"5         .           + O   .             @ @ # #     .     O @   @ 7 ] .   # . .     . . # &     + @ @ # 8 3 0 # .     ",
"    #     O   .       @     #       - ,   * < 3 .       .   * O   * X ` #             .   # #     .     @   O I [       ",
"        . .                         O     O   $ .       # . 3 @ X * * o.&   .         # 4 6 # . .   .   O     # ( 6 . & ",
"  . #                                   . X X . .           q # .   # ] %     @ @     4 6 # # .             + O 4 w ! ] ",
"                # & .         .         . . O   #   O     O q # O   . H %     + + @   X     #                 $ w . .   ",
"    O           # n q q     $ 4 6 w $ . #       $ .   . . # $ .     . B #   .   O - #       # * o ,         + # q       ",
"# .   . #       # # . #         $ 6 $ w w 3 $ . # O   .     .   .     3 .         3 6 . .   * . $ 5       * d &     @ > ",
"      O .   #           .             .   # a ) D 3 . .       .   . . .     @ + # B # .     . # B @ +   o l J O         ",
"  O #       #                         X       % % # w C 3 # # .       . 6   @   3 #   . .     3 B O @   o O 5 < @ +     ",
"    %   7 5                                     ,   . # n b G N B V q 5 3 .   . $     .       $ .       # $ .   O       ",
"    $ . X                       .           ,   : . #   3     = g a N D Y T B b $                     X $ X o           ",
"# .                   O 1 X . $ #           *         X b               . 6 G w E 5   O         O     5 4               ",
"$                     O @ $ . # . @           O   o   6 S @ + @ @       . .   . ( *.#         $ X   @ 7               . "
};
